<?xml version="1.0" encoding="utf-8"?>
<!-- Generator: Adobe Illustrator 26.0.1, SVG Export Plug-In . SVG Version: 6.00 Build 0)  -->
<svg version="1.1" id="Ebene_1" xmlns="http://www.w3.org/2000/svg" xmlns:xlink="http://www.w3.org/1999/xlink" x="0px" y="0px"
	 viewBox="0 0 492.3 468.1" style="enable-background:new 0 0 492.3 468.1;" xml:space="preserve">
<style type="text/css">
	.st0{fill:url(#Strand_6_00000111190201102269655980000011423814687198090890_);}
	.st1{fill:url(#Strand_5_00000132089795346188263950000007025258295020959909_);}
	.st2{fill:url(#strand_4_00000036948838589169106210000006016232591518253457_);}
	.st3{fill:url(#strand_3_00000159450658642482127570000014727070083889274791_);}
	.st4{fill:url(#strand_2_00000090289509085332202880000016141426643482688170_);}
	.st5{fill:url(#strand_1_00000134971930763193708280000004853763252595594644_);}
</style>
<g id="Shapes">
	
		<linearGradient id="Strand_6_00000134231655528521525580000010620132962636204961_" gradientUnits="userSpaceOnUse" x1="173.2383" y1="805.005" x2="376.0883" y2="805.005" gradientTransform="matrix(1 0 0 -1 -107.51 1039.03)">
		<stop  offset="0" style="stop-color:#FFD048"/>
		<stop  offset="0.32" style="stop-color:#FCF18D"/>
		<stop  offset="0.68" style="stop-color:#CE9B16"/>
		<stop  offset="1" style="stop-color:#DD9F17"/>
		<stop  offset="1" style="stop-color:#FFE360"/>
	</linearGradient>
	<path id="Strand_6" style="fill:url(#Strand_6_00000134231655528521525580000010620132962636204961_);" d="M268.6,0
		c-27.9,53.6-50.1,108.9-68.5,166.5c-5.2,16.4-9.3,33.2-12.5,50.1C177.1,270.5,174,325.8,160,379.3c-1.2,4.7-2.5,9.3-3.9,13.9
		c-4.4,15-9.9,30.2-19.9,42.2c-17,20.4-44.3,28.8-70.5,32.6c1.5-0.7,2.9-1.5,4.3-2.3c21.6-12.9,33.2-38.3,41-62.6
		c16.9-52.9,23-108.4,32.2-163.2S164.9,130,193,82.2c9.4-16,20.4-30.9,32.9-44.6c8.4-9.3,18.8-21,29.8-29.5
		C259.6,4.9,264,2.2,268.6,0z"/>
	
		<linearGradient id="Strand_5_00000093891539433119974960000013361996407923393666_" gradientUnits="userSpaceOnUse" x1="177.5283" y1="802.09" x2="363.1583" y2="802.09" gradientTransform="matrix(1 0 0 -1 -107.51 1039.03)">
		<stop  offset="0" style="stop-color:#FFE360"/>
		<stop  offset="0" style="stop-color:#DD9F17"/>
		<stop  offset="0.32" style="stop-color:#CE9B16"/>
		<stop  offset="0.68" style="stop-color:#FCF18D"/>
		<stop  offset="1" style="stop-color:#FFD048"/>
	</linearGradient>
	<path id="Strand_5" style="fill:url(#Strand_5_00000093891539433119974960000013361996407923393666_);" d="M255.6,8.1
		c-26,51.1-46.8,103.7-64.3,158.4c-5.2,16.4-9.4,33.2-12.5,50.1c-10.4,53.9-13.5,109.2-27.5,162.7c-1.2,4.7-2.5,9.3-3.9,13.9
		c-4.4,15-9.9,30.2-19.9,42.2c-14.1,17-35.5,25.7-57.4,30.3c21.6-12.9,33.3-38.3,41-62.6c16.9-52.9,23-108.4,32.2-163.2
		S164.9,130,193,82.2c9.4-16,20.4-30.9,32.9-44.6C234.3,28.3,244.6,16.6,255.6,8.1z"/>
	
		<linearGradient id="strand_4_00000047019251248277874700000017297428289787137435_" gradientUnits="userSpaceOnUse" x1="331.1983" y1="805.005" x2="534.0583" y2="805.005" gradientTransform="matrix(1 0 0 -1 -107.51 1039.03)">
		<stop  offset="0" style="stop-color:#FFD048"/>
		<stop  offset="0.32" style="stop-color:#FCF18D"/>
		<stop  offset="0.68" style="stop-color:#CE9B16"/>
		<stop  offset="1" style="stop-color:#DD9F17"/>
		<stop  offset="1" style="stop-color:#FFE360"/>
	</linearGradient>
	<path id="strand_4" style="fill:url(#strand_4_00000047019251248277874700000017297428289787137435_);" d="M426.5,0
		c-28,53.6-50.1,108.9-68.5,166.5c-5.2,16.4-9.4,33.2-12.5,50.1C335.1,270.5,332,325.8,318,379.3c-1.2,4.7-2.5,9.3-3.9,13.9
		c-4.5,15-9.9,30.2-19.9,42.2c-16.9,20.4-44.3,28.8-70.5,32.6c1.5-0.7,2.9-1.5,4.3-2.3c21.6-12.9,33.2-38.3,41-62.6
		c16.9-52.8,23.1-108.4,32.2-163.1S322.9,130,351,82.2c9.4-16,20.4-30.9,32.8-44.6c8.4-9.3,18.8-21,29.8-29.5
		C417.6,4.9,422,2.2,426.5,0z"/>
	
		<linearGradient id="strand_3_00000045592514559078491030000012924556914860357300_" gradientUnits="userSpaceOnUse" x1="335.4783" y1="802.09" x2="521.1283" y2="802.09" gradientTransform="matrix(1 0 0 -1 -107.51 1039.03)">
		<stop  offset="0" style="stop-color:#FFE360"/>
		<stop  offset="0" style="stop-color:#DD9F17"/>
		<stop  offset="0.32" style="stop-color:#CE9B16"/>
		<stop  offset="0.68" style="stop-color:#FCF18D"/>
		<stop  offset="1" style="stop-color:#FFD048"/>
	</linearGradient>
	<path id="strand_3" style="fill:url(#strand_3_00000045592514559078491030000012924556914860357300_);" d="M413.6,8.1
		c-26,51.1-46.8,103.7-64.3,158.4c-5.2,16.4-9.4,33.2-12.5,50.1c-10.4,53.9-13.5,109.2-27.5,162.7c-1.2,4.7-2.5,9.3-3.9,13.9
		c-4.5,15-9.9,30.2-19.9,42.2c-14.1,17-35.5,25.7-57.4,30.3c21.6-12.9,33.2-38.3,41-62.6c16.9-52.9,23.1-108.4,32.2-163.2
		S322.9,130,351,82.2c9.4-16,20.4-30.9,32.8-44.6C392.2,28.3,402.6,16.6,413.6,8.1z"/>
	
		<linearGradient id="strand_2_00000029024496492776229470000010299480358153710772_" gradientUnits="userSpaceOnUse" x1="251.3683" y1="804.99" x2="454.1783" y2="804.99" gradientTransform="matrix(1 0 0 -1 -107.51 1039.03)">
		<stop  offset="0" style="stop-color:#FFD048"/>
		<stop  offset="0.32" style="stop-color:#FCF18D"/>
		<stop  offset="0.68" style="stop-color:#CE9B16"/>
		<stop  offset="1" style="stop-color:#DD9F17"/>
		<stop  offset="1" style="stop-color:#FFE360"/>
	</linearGradient>
	<path id="strand_2" style="fill:url(#strand_2_00000029024496492776229470000010299480358153710772_);" d="M346.7,0
		c-27.9,53.7-50.1,108.9-68.5,166.5c-5.2,16.4-9.3,33.2-12.5,50.1c-10.4,53.9-13.5,109.2-27.5,162.7c-1.2,4.7-2.5,9.3-3.9,13.9
		c-4.5,15-9.9,30.2-19.9,42.2c-16.9,20.4-44.3,28.8-70.5,32.6c1.5-0.7,2.9-1.5,4.3-2.3c21.6-12.9,33.2-38.3,41-62.6
		c16.9-52.9,23-108.4,32.2-163.2c9.2-54.7,21.7-110,49.8-157.8c9.4-16,20.4-30.9,32.9-44.6c8.4-9.3,18.8-21,29.8-29.5
		C337.8,5,342.1,2.2,346.7,0z"/>
	
		<linearGradient id="strand_1_00000155145626370940491780000002319921011012469133_" gradientUnits="userSpaceOnUse" x1="255.6183" y1="802.09" x2="441.2483" y2="802.09" gradientTransform="matrix(1 0 0 -1 -107.51 1039.03)">
		<stop  offset="0" style="stop-color:#FFE360"/>
		<stop  offset="0" style="stop-color:#DD9F17"/>
		<stop  offset="0.32" style="stop-color:#CE9B16"/>
		<stop  offset="0.68" style="stop-color:#FCF18D"/>
		<stop  offset="1" style="stop-color:#FFD048"/>
	</linearGradient>
	<path id="strand_1" style="fill:url(#strand_1_00000155145626370940491780000002319921011012469133_);" d="M333.7,8.1
		c-26,51.1-46.8,103.7-64.3,158.4c-5.2,16.4-9.4,33.2-12.5,50.1c-10.4,53.9-13.5,109.2-27.5,162.7c-1.2,4.7-2.5,9.3-3.9,13.9
		c-4.5,15-9.9,30.2-19.9,42.2c-14.1,17-35.5,25.7-57.4,30.3c21.6-12.9,33.2-38.3,41-62.6c16.9-52.9,23-108.4,32.2-163.2
		S243,130,271.1,82.2c9.4-16,20.4-30.9,32.9-44.6C312.4,28.3,322.7,16.6,333.7,8.1z"/>
</g>
</svg>
