<svg id="Ebene_1" data-name="Ebene 1" xmlns="http://www.w3.org/2000/svg" viewBox="0 0 360.82 468.04"><g id="Shapes"><path id="Strand_6" data-name="Strand 6" d="M705.45,150.48C677.5,204.1,655.38,259.38,637,317a433.49,433.49,0,0,0-12.53,50.09C614,421,610.91,476.29,596.9,529.74q-1.83,7-3.88,13.91c-4.45,15-9.9,30.18-19.94,42.24-16.94,20.35-44.27,28.77-70.49,32.63q2.21-1.08,4.29-2.33c21.61-12.87,33.25-38.28,41-62.58,16.88-52.85,23-108.41,32.18-163.14s21.69-110,49.79-157.85A267.4,267.4,0,0,1,662.7,188c8.43-9.29,18.79-21,29.82-29.45A67.67,67.67,0,0,1,705.45,150.48Z" transform="translate(-502.59 -150.48)"/><path id="Strand_5" data-name="Strand 5" d="M692.52,158.59c-26,51.07-46.84,103.69-64.33,158.39a433.49,433.49,0,0,0-12.53,50.09C605.22,421,602.14,476.29,588.13,529.74q-1.83,7-3.87,13.91c-4.46,15-9.91,30.18-19.94,42.24-14.15,17-35.51,25.66-57.44,30.3,21.61-12.87,33.25-38.28,41-62.58,16.88-52.85,23-108.41,32.18-163.14s21.69-110,49.79-157.85A267.4,267.4,0,0,1,662.7,188C671.13,178.75,681.49,167.08,692.52,158.59Z" transform="translate(-502.59 -150.48)"/><path id="strand_4" data-name="strand 4" d="M863.41,150.48c-27.95,53.62-50.06,108.9-68.49,166.5a433.49,433.49,0,0,0-12.53,50.09C772,421,768.87,476.29,754.86,529.74q-1.83,7-3.87,13.91c-4.46,15-9.91,30.18-19.94,42.24-16.95,20.35-44.28,28.77-70.5,32.63,1.47-.72,2.91-1.5,4.29-2.33,21.61-12.87,33.25-38.28,41-62.58,16.87-52.85,23-108.41,32.17-163.14s21.69-110,49.79-157.85A268,268,0,0,1,820.66,188c8.44-9.29,18.79-21,29.82-29.45A68,68,0,0,1,863.41,150.48Z" transform="translate(-502.59 -150.48)"/><path id="strand_3" data-name="strand 3" d="M850.48,158.59c-26,51.07-46.84,103.69-64.33,158.39a433.49,433.49,0,0,0-12.53,50.09C763.18,421,760.1,476.29,746.09,529.74c-1.21,4.65-2.51,9.29-3.87,13.91-4.45,15-9.9,30.18-19.94,42.24-14.15,17-35.51,25.66-57.44,30.3,21.61-12.87,33.25-38.28,41-62.58,16.87-52.85,23-108.41,32.17-163.14s21.69-110,49.79-157.85A268,268,0,0,1,820.66,188C829.1,178.75,839.45,167.08,850.48,158.59Z" transform="translate(-502.59 -150.48)"/><path id="strand_2" data-name="strand 2" d="M783.54,150.48c-27.95,53.62-50.07,108.9-68.49,166.5a433.49,433.49,0,0,0-12.53,50.09C692.08,421,689,476.29,675,529.74q-1.83,7-3.88,13.91c-4.45,15-9.9,30.18-19.94,42.24-16.94,20.35-44.27,28.77-70.49,32.63q2.21-1.08,4.29-2.33c21.61-12.87,33.25-38.28,41-62.58,16.88-52.85,23-108.41,32.18-163.14s21.69-110,49.79-157.85A267.4,267.4,0,0,1,740.79,188c8.43-9.29,18.79-21,29.81-29.45A68,68,0,0,1,783.54,150.48Z" transform="translate(-502.59 -150.48)"/><path id="strand_1" data-name="strand 1" d="M770.6,158.59c-26,51.07-46.83,103.69-64.32,158.39a433.49,433.49,0,0,0-12.53,50.09C683.31,421,680.23,476.29,666.22,529.74q-1.83,7-3.87,13.91c-4.46,15-9.91,30.18-19.94,42.24-14.15,17-35.51,25.66-57.44,30.3,21.61-12.87,33.25-38.28,41-62.58,16.88-52.85,23-108.41,32.18-163.14s21.69-110,49.79-157.85A267.4,267.4,0,0,1,740.79,188C749.22,178.75,759.58,167.08,770.6,158.59Z" transform="translate(-502.59 -150.48)"/></g></svg>