<svg id="Ebene_1" data-name="Ebene 1" xmlns="http://www.w3.org/2000/svg" xmlns:xlink="http://www.w3.org/1999/xlink"
     viewBox="0 0 1501.96 1007.93">
    <defs>
        <style>
            .cls-1{fill:url(#Unbenannter_Verlauf_4);}.cls-2{fill:url(#Unbenannter_Verlauf_5);}.cls-3{fill:url(#Unbenannter_Verlauf_4-2);}.cls-4{fill:url(#Unbenannter_Verlauf_5-2);}.cls-5{fill:url(#Unbenannter_Verlauf_4-3);}.cls-6{fill:url(#Unbenannter_Verlauf_5-3);}.cls-7{font-size:478.38px;font-family:CopperplateGothic-Light,
            Copperplate Gothic
            Light;font-weight:300;}.cls-8{letter-spacing:-0.07em;}.cls-9{letter-spacing:-0.08em;}.cls-10{fill:url(#Unbenannter_Verlauf_38);}.cls-11{fill:url(#Unbenannter_Verlauf_38-6);}.cls-12{fill:url(#Unbenannter_Verlauf_38-11);}.cls-13{fill:url(#Unbenannter_Verlauf_38-16);}.cls-14{fill:url(#Unbenannter_Verlauf_38-21);}.cls-15{fill:url(#Unbenannter_Verlauf_38-26);}.cls-16{fill:url(#Unbenannter_Verlauf_38-31);}.cls-17{fill:url(#Unbenannter_Verlauf_38-36);}.cls-18{fill:url(#Unbenannter_Verlauf_38-41);}.cls-19{fill:url(#Unbenannter_Verlauf_38-46);}.cls-20{fill:url(#Unbenannter_Verlauf_38-51);}.cls-21{fill:url(#Unbenannter_Verlauf_38-56);}.cls-22{fill:url(#Unbenannter_Verlauf_38-61);}.cls-23{fill:url(#Unbenannter_Verlauf_38-66);}.cls-24{fill:url(#Unbenannter_Verlauf_38-71);}.cls-25{fill:url(#Unbenannter_Verlauf_38-76);}.cls-26{fill:url(#Unbenannter_Verlauf_38-81);}.cls-27{fill:url(#Unbenannter_Verlauf_38-86);}.cls-28{fill:url(#Unbenannter_Verlauf_38-91);}.cls-29{fill:url(#Unbenannter_Verlauf_38-96);}.cls-30{fill:url(#Unbenannter_Verlauf_38-101);}.cls-31{fill:url(#Unbenannter_Verlauf_23);}
        </style>
        <linearGradient id="Unbenannter_Verlauf_4" x1="819.59" y1="485.25" x2="1022.45" y2="485.25"
                        gradientUnits="userSpaceOnUse">
            <stop offset="0" stop-color="#ffd048"/>
            <stop offset="0.32" stop-color="#fcf18d"/>
            <stop offset="0.68" stop-color="#ce9b16"/>
            <stop offset="1" stop-color="#dd9f17"/>
            <stop offset="1" stop-color="#ffe360"/>
        </linearGradient>
        <linearGradient id="Unbenannter_Verlauf_5" x1="823.88" y1="488.14" x2="1009.52" y2="488.14"
                        gradientUnits="userSpaceOnUse">
            <stop offset="0" stop-color="#ffe360"/>
            <stop offset="0" stop-color="#dd9f17"/>
            <stop offset="0.32" stop-color="#ce9b16"/>
            <stop offset="0.68" stop-color="#fcf18d"/>
            <stop offset="1" stop-color="#ffd048"/>
        </linearGradient>
        <linearGradient id="Unbenannter_Verlauf_4-2" x1="977.55" y1="485.25" x2="1180.41" y2="485.25"
                        xlink:href="#Unbenannter_Verlauf_4"/>
        <linearGradient id="Unbenannter_Verlauf_5-2" x1="981.84" y1="488.14" x2="1167.48" y2="488.14"
                        xlink:href="#Unbenannter_Verlauf_5"/>
        <linearGradient id="Unbenannter_Verlauf_4-3" x1="897.68" y1="485.25" x2="1100.54" y2="485.25"
                        xlink:href="#Unbenannter_Verlauf_4"/>
        <linearGradient id="Unbenannter_Verlauf_5-3" x1="901.97" y1="488.14" x2="1087.6" y2="488.14"
                        xlink:href="#Unbenannter_Verlauf_5"/>
        <linearGradient id="Unbenannter_Verlauf_38" x1="1017.34" y1="1139.57" x2="1017.34" y2="820.72"
                        gradientTransform="translate(10 10)" xlink:href="#Unbenannter_Verlauf_4"/>
        <linearGradient id="Unbenannter_Verlauf_38-6" x1="1017.34" y1="1139.57" x2="1017.34" y2="820.72"
                        gradientTransform="translate(9.5 9.5)" xlink:href="#Unbenannter_Verlauf_4"/>
        <linearGradient id="Unbenannter_Verlauf_38-11" x1="1017.34" y1="1139.57" x2="1017.34" y2="820.72"
                        gradientTransform="translate(9 9)" xlink:href="#Unbenannter_Verlauf_4"/>
        <linearGradient id="Unbenannter_Verlauf_38-16" x1="1017.34" y1="1139.57" x2="1017.34" y2="820.72"
                        gradientTransform="translate(8.5 8.5)" xlink:href="#Unbenannter_Verlauf_4"/>
        <linearGradient id="Unbenannter_Verlauf_38-21" x1="1017.34" y1="1139.57" x2="1017.34" y2="820.72"
                        gradientTransform="translate(8 8)" xlink:href="#Unbenannter_Verlauf_4"/>
        <linearGradient id="Unbenannter_Verlauf_38-26" x1="1017.34" y1="1139.57" x2="1017.34" y2="820.72"
                        gradientTransform="translate(7.5 7.5)" xlink:href="#Unbenannter_Verlauf_4"/>
        <linearGradient id="Unbenannter_Verlauf_38-31" x1="1017.34" y1="1139.57" x2="1017.34" y2="820.72"
                        gradientTransform="translate(7 7)" xlink:href="#Unbenannter_Verlauf_4"/>
        <linearGradient id="Unbenannter_Verlauf_38-36" x1="1017.34" y1="1139.57" x2="1017.34" y2="820.72"
                        gradientTransform="translate(6.5 6.5)" xlink:href="#Unbenannter_Verlauf_4"/>
        <linearGradient id="Unbenannter_Verlauf_38-41" x1="1017.34" y1="1139.57" x2="1017.34" y2="820.72"
                        gradientTransform="translate(6 6)" xlink:href="#Unbenannter_Verlauf_4"/>
        <linearGradient id="Unbenannter_Verlauf_38-46" x1="1017.34" y1="1139.57" x2="1017.34" y2="820.72"
                        gradientTransform="translate(5.5 5.5)" xlink:href="#Unbenannter_Verlauf_4"/>
        <linearGradient id="Unbenannter_Verlauf_38-51" x1="1017.34" y1="1139.57" x2="1017.34" y2="820.72"
                        gradientTransform="translate(5 5)" xlink:href="#Unbenannter_Verlauf_4"/>
        <linearGradient id="Unbenannter_Verlauf_38-56" x1="1017.34" y1="1139.57" x2="1017.34" y2="820.72"
                        gradientTransform="translate(4.5 4.5)" xlink:href="#Unbenannter_Verlauf_4"/>
        <linearGradient id="Unbenannter_Verlauf_38-61" x1="1017.34" y1="1139.57" x2="1017.34" y2="820.72"
                        gradientTransform="translate(4 4)" xlink:href="#Unbenannter_Verlauf_4"/>
        <linearGradient id="Unbenannter_Verlauf_38-66" x1="1017.34" y1="1139.57" x2="1017.34" y2="820.72"
                        gradientTransform="translate(3.5 3.5)" xlink:href="#Unbenannter_Verlauf_4"/>
        <linearGradient id="Unbenannter_Verlauf_38-71" x1="1017.34" y1="1139.57" x2="1017.34" y2="820.72"
                        gradientTransform="translate(3 3)" xlink:href="#Unbenannter_Verlauf_4"/>
        <linearGradient id="Unbenannter_Verlauf_38-76" x1="1017.34" y1="1139.57" x2="1017.34" y2="820.72"
                        gradientTransform="translate(2.5 2.5)" xlink:href="#Unbenannter_Verlauf_4"/>
        <linearGradient id="Unbenannter_Verlauf_38-81" x1="1017.34" y1="1139.57" x2="1017.34" y2="820.72"
                        gradientTransform="translate(2 2)" xlink:href="#Unbenannter_Verlauf_4"/>
        <linearGradient id="Unbenannter_Verlauf_38-86" x1="1017.34" y1="1139.57" x2="1017.34" y2="820.72"
                        gradientTransform="translate(1.5 1.5)" xlink:href="#Unbenannter_Verlauf_4"/>
        <linearGradient id="Unbenannter_Verlauf_38-91" x1="1017.34" y1="1139.57" x2="1017.34" y2="820.72"
                        gradientTransform="translate(1 1)" xlink:href="#Unbenannter_Verlauf_4"/>
        <linearGradient id="Unbenannter_Verlauf_38-96" x1="1017.34" y1="1139.57" x2="1017.34" y2="820.72"
                        gradientTransform="translate(0.5 0.5)" xlink:href="#Unbenannter_Verlauf_4"/>
        <linearGradient id="Unbenannter_Verlauf_38-101" x1="1017.34" y1="1139.57" x2="1017.34" y2="820.72"
                        xlink:href="#Unbenannter_Verlauf_4"/>
        <linearGradient id="Unbenannter_Verlauf_23" x1="1017.34" y1="1139.57" x2="1017.34" y2="820.72"
                        xlink:href="#Unbenannter_Verlauf_5"/>
    </defs>
    <g id="Shapes">
        <path id="Strand_6" data-name="Strand 6" class="cls-1"
              d="M1022.45,251.23c-28,53.62-50.07,108.91-68.49,166.51a432.47,432.47,0,0,0-12.53,50.09C931,521.71,927.91,577.05,913.9,630.49c-1.22,4.65-2.52,9.3-3.88,13.91-4.45,15-9.9,30.19-19.94,42.24-16.94,20.36-44.27,28.77-70.49,32.63q2.2-1.07,4.29-2.33c21.61-12.86,33.25-38.27,41-62.57,16.88-52.86,23-108.42,32.18-163.15s21.69-110,49.79-157.84a267.89,267.89,0,0,1,32.84-44.59c8.43-9.28,18.79-21,29.82-29.45A68.68,68.68,0,0,1,1022.45,251.23Z"
              transform="translate(-253.84 -251.23)"/>
        <path id="Strand_5" data-name="Strand 5" class="cls-2"
              d="M1009.52,259.34c-26,51.08-46.84,103.7-64.33,158.4a432.47,432.47,0,0,0-12.53,50.09c-10.44,53.88-13.52,109.22-27.53,162.66-1.22,4.65-2.51,9.3-3.87,13.91-4.46,15-9.91,30.19-19.94,42.24-14.15,17-35.51,25.66-57.44,30.3,21.61-12.86,33.25-38.27,41-62.57,16.88-52.86,23-108.42,32.18-163.15s21.69-110,49.79-157.84a267.89,267.89,0,0,1,32.84-44.59C988.13,279.51,998.49,267.84,1009.52,259.34Z"
              transform="translate(-253.84 -251.23)"/>
        <path id="strand_4" data-name="strand 4" class="cls-3"
              d="M1180.41,251.23c-28,53.62-50.06,108.91-68.49,166.51a432.47,432.47,0,0,0-12.53,50.09c-10.44,53.88-13.52,109.22-27.53,162.66-1.22,4.65-2.51,9.3-3.87,13.91-4.46,15-9.91,30.19-19.94,42.24-17,20.36-44.28,28.77-70.5,32.63,1.47-.71,2.91-1.49,4.29-2.33,21.61-12.86,33.25-38.27,41-62.57,16.87-52.86,23-108.42,32.17-163.15s21.69-110,49.79-157.84a268.45,268.45,0,0,1,32.84-44.59c8.44-9.28,18.79-21,29.82-29.45A69,69,0,0,1,1180.41,251.23Z"
              transform="translate(-253.84 -251.23)"/>
        <path id="strand_3" data-name="strand 3" class="cls-4"
              d="M1167.48,259.34c-26,51.08-46.84,103.7-64.33,158.4a432.47,432.47,0,0,0-12.53,50.09c-10.44,53.88-13.52,109.22-27.53,162.66-1.21,4.65-2.51,9.3-3.87,13.91-4.45,15-9.9,30.19-19.94,42.24-14.15,17-35.51,25.66-57.44,30.3,21.61-12.86,33.25-38.27,41-62.57,16.87-52.86,23-108.42,32.17-163.15s21.69-110,49.79-157.84a268.45,268.45,0,0,1,32.84-44.59C1146.1,279.51,1156.45,267.84,1167.48,259.34Z"
              transform="translate(-253.84 -251.23)"/>
        <path id="strand_2" data-name="strand 2" class="cls-5"
              d="M1100.54,251.23c-28,53.62-50.07,108.91-68.49,166.51a432.47,432.47,0,0,0-12.53,50.09C1009.08,521.71,1006,577.05,992,630.49c-1.22,4.65-2.52,9.3-3.88,13.91-4.45,15-9.9,30.19-19.94,42.24-16.94,20.36-44.27,28.77-70.49,32.63q2.21-1.07,4.29-2.33c21.61-12.86,33.25-38.27,41-62.57,16.88-52.86,23-108.42,32.18-163.15s21.69-110,49.79-157.84a267.89,267.89,0,0,1,32.84-44.59c8.43-9.28,18.79-21,29.81-29.45A69.07,69.07,0,0,1,1100.54,251.23Z"
              transform="translate(-253.84 -251.23)"/>
        <path id="strand_1" data-name="strand 1" class="cls-6"
              d="M1087.6,259.34c-26,51.08-46.83,103.7-64.32,158.4a432.47,432.47,0,0,0-12.53,50.09c-10.44,53.88-13.52,109.22-27.53,162.66-1.22,4.65-2.51,9.3-3.87,13.91-4.46,15-9.91,30.19-19.94,42.24-14.15,17-35.51,25.66-57.44,30.3,21.61-12.86,33.25-38.27,41-62.57,16.88-52.86,23-108.42,32.18-163.15s21.69-110,49.79-157.84a267.89,267.89,0,0,1,32.84-44.59C1066.22,279.51,1076.58,267.84,1087.6,259.34Z"
              transform="translate(-253.84 -251.23)"/>
    </g>
    <text class="cls-7" transform="translate(0 888.33)">HA
        <tspan class="cls-8" x="744.43" y="0">I</tspan>
        <tspan class="cls-9" x="847.82" y="0">R</tspan>
        <tspan x="1177.56" y="0">Y</tspan>
    </text>
    <path class="cls-10"
          d="M568.9,1000.77H350.5V1122q0,9.81,2.92,13.78t12,6.31v7.48H298.88v-7.48q9.11-2.33,12-6.31t2.92-13.78V858.29q0-9.81-3-13.9t-11.91-6.19v-7.48h66.57v7.48q-8.88,2.34-11.92,6.31t-3,13.78V970.41H568.9V858.29q0-9.81-3-13.9T554,838.2v-7.48h66.57v7.48q-8.88,2.34-11.91,6.31t-3,13.78V1122q0,9.59,3,13.67t11.91,6.42v7.48H554v-7.48q8.87-2.33,11.91-6.31t3-13.78Z"
          transform="translate(-253.84 -251.23)"/>
    <path class="cls-10"
          d="M916.8,1060.1H746.26l-28,60.5q-4,8.64-4,12.15,0,7,13.82,9.34v7.48H657v-7.48q9.57-1.63,14.6-7t13.19-23.36l116.8-252q4.2-9.11,4.2-12.38,0-6.07-11.45-9.11v-7.48h77.55v7.48q-11.45,3.74-11.44,9.81,0,2.58,4.2,11.68L976.5,1102.62q12.38,26.85,16.35,31.53t17.29,7.94v7.48H934.45v-7.48q13.59-1.86,13.59-10.28,0-3.74-5.14-14.48Zm-13.47-30.36L831.54,872.19l-71.72,157.55Z"
          transform="translate(-253.84 -251.23)"/>
    <path class="cls-10"
          d="M1058.25,1122V858.29q0-9.81-3-13.9t-11.92-6.19v-7.48h66.58v7.48q-8.88,2.34-11.92,6.31t-3,13.78V1122q0,9.81,2.92,13.78t12,6.31v7.48H1043.3v-7.48q9.12-2.33,12-6.31T1058.25,1122Z"
          transform="translate(-253.84 -251.23)"/>
    <path class="cls-10"
          d="M1198.32,1006.15V1122q0,9.56,3,13.64t11.91,6.41v7.48H1146.7v-7.48q8.86-2.33,11.91-6.31t3-13.78V858.29q0-9.81-3-13.9t-11.91-6.19v-7.48h175q36,0,56.88,3.87T1414.85,848a74.78,74.78,0,0,1,25.69,26.9q11.22,19.41,11.22,43.74,0,36.5-24.18,59.53t-66.45,26.31l81,125.92q7.23,11.65,21,11.66v7.48h-73.8v-7.48q11.44-1.86,11.44-6.53,0-2.32-8.17-15.16l-72.44-114.25Zm0-30.37h129.17q26.4,0,39.83-2.22A71,71,0,0,0,1391,965.5q24-14,24-47,0-33.16-24.75-47.18a73.51,73.51,0,0,0-24.41-8.18q-13.44-2.1-41.7-2.1h-125.9Z"
          transform="translate(-253.84 -251.23)"/>
    <path class="cls-10"
          d="M1616.82,1008.36V1122c0,6.4,1,11,3,13.68s6,4.87,11.92,6.43v7.48h-66.58v-7.48q8.88-2.34,11.92-6.31t3-13.8V1008.36l-103-134.92q-16.82-21.93-23.24-27.77a30.92,30.92,0,0,0-16-7.47v-7.48h80.95v7.48q-11,2.81-11,9.1,0,7.71,11,22.64l80.92,110.23,80.71-114q10.3-14.48,10.3-19.61,0-5.83-10.3-8.4v-7.48h75.33v7.48a36.41,36.41,0,0,0-19.62,10.27q-16.83,17.73-21.73,25Z"
          transform="translate(-253.84 -251.23)"/>
    <path class="cls-11"
          d="M568.4,1000.27H350V1121.5q0,9.81,2.92,13.78t12,6.31v7.48H298.38v-7.48q9.11-2.33,12-6.31t2.92-13.78V857.79q0-9.81-3-13.9t-11.91-6.19v-7.48H365v7.48Q356.07,840,353,844t-3,13.78V969.91H568.4V857.79q0-9.81-3-13.9t-11.91-6.19v-7.48H620v7.48Q611.14,840,608.11,844t-3,13.78V1121.5q0,9.59,3,13.67t11.91,6.42v7.48H553.45v-7.48q8.87-2.33,11.91-6.31t3-13.78Z"
          transform="translate(-253.84 -251.23)"/>
    <path class="cls-11"
          d="M916.3,1059.6H745.76l-28,60.5q-4,8.64-4,12.15,0,7,13.82,9.34v7.48H656.46v-7.48q9.57-1.63,14.6-7t13.19-23.36l116.8-252q4.2-9.11,4.2-12.38,0-6.07-11.45-9.11v-7.48h77.55v7.48q-11.45,3.74-11.44,9.81,0,2.58,4.2,11.68L976,1102.12q12.38,26.85,16.35,31.53t17.29,7.94v7.48H934v-7.48q13.59-1.86,13.59-10.28,0-3.74-5.14-14.48Zm-13.47-30.36L831,871.69l-71.72,157.55Z"
          transform="translate(-253.84 -251.23)"/>
    <path class="cls-11"
          d="M1057.75,1121.5V857.79q0-9.81-3-13.9t-11.92-6.19v-7.48h66.58v7.48q-8.88,2.34-11.92,6.31t-3,13.78V1121.5q0,9.81,2.92,13.78t12,6.31v7.48H1042.8v-7.48q9.12-2.33,12-6.31T1057.75,1121.5Z"
          transform="translate(-253.84 -251.23)"/>
    <path class="cls-11"
          d="M1197.82,1005.65v115.89q0,9.56,3,13.64t11.91,6.41v7.48H1146.2v-7.48q8.86-2.33,11.91-6.31t3-13.78V857.79q0-9.81-3-13.9t-11.91-6.19v-7.48h175q36,0,56.88,3.87t36.32,13.44a74.78,74.78,0,0,1,25.69,26.9q11.22,19.41,11.22,43.74,0,36.5-24.18,59.53T1360.63,1004l81,125.92q7.23,11.65,21,11.66v7.48h-73.8v-7.48q11.44-1.86,11.44-6.53,0-2.32-8.17-15.16l-72.44-114.25Zm0-30.37H1327q26.4,0,39.83-2.22a71,71,0,0,0,23.71-8.06q24-14,24-47,0-33.16-24.75-47.18a73.51,73.51,0,0,0-24.41-8.18q-13.44-2.1-41.7-2.1h-125.9Z"
          transform="translate(-253.84 -251.23)"/>
    <path class="cls-11"
          d="M1616.32,1007.86v113.62c0,6.4,1,11,3,13.68s6,4.87,11.92,6.43v7.48h-66.58v-7.48q8.88-2.34,11.92-6.31t3-13.8V1007.86l-103-134.92q-16.82-21.93-23.24-27.77a30.92,30.92,0,0,0-16-7.47v-7.48h80.95v7.48q-11,2.81-11,9.1,0,7.71,11,22.64l80.92,110.23,80.71-114q10.3-14.48,10.3-19.61,0-5.83-10.3-8.4v-7.48h75.33v7.48A36.41,36.41,0,0,0,1735.68,848q-16.83,17.73-21.73,25Z"
          transform="translate(-253.84 -251.23)"/>
    <path class="cls-12"
          d="M567.9,999.77H349.5V1121q0,9.81,2.92,13.78t12,6.31v7.48H297.88v-7.48q9.11-2.33,12-6.31t2.92-13.78V857.29q0-9.81-3-13.9t-11.91-6.19v-7.48h66.57v7.48q-8.88,2.34-11.92,6.31t-3,13.78V969.41H567.9V857.29q0-9.81-3-13.9T553,837.2v-7.48h66.57v7.48q-8.88,2.34-11.91,6.31t-3,13.78V1121q0,9.59,3,13.67t11.91,6.42v7.48H553v-7.48q8.87-2.33,11.91-6.31t3-13.78Z"
          transform="translate(-253.84 -251.23)"/>
    <path class="cls-12"
          d="M915.8,1059.1H745.26l-28,60.5q-4,8.64-4,12.15,0,7,13.82,9.34v7.48H656v-7.48q9.57-1.63,14.6-7t13.19-23.36l116.8-252q4.2-9.11,4.2-12.38,0-6.07-11.45-9.11v-7.48h77.55v7.48q-11.45,3.74-11.44,9.81,0,2.58,4.2,11.68L975.5,1101.62q12.38,26.85,16.35,31.53t17.29,7.94v7.48H933.45v-7.48q13.59-1.86,13.59-10.28,0-3.74-5.14-14.48Zm-13.47-30.36L830.54,871.19l-71.72,157.55Z"
          transform="translate(-253.84 -251.23)"/>
    <path class="cls-12"
          d="M1057.25,1121V857.29q0-9.81-3-13.9t-11.92-6.19v-7.48h66.58v7.48q-8.88,2.34-11.92,6.31t-3,13.78V1121q0,9.81,2.92,13.78t12,6.31v7.48H1042.3v-7.48q9.12-2.33,12-6.31T1057.25,1121Z"
          transform="translate(-253.84 -251.23)"/>
    <path class="cls-12"
          d="M1197.32,1005.15V1121q0,9.56,3,13.64t11.91,6.41v7.48H1145.7v-7.48q8.86-2.33,11.91-6.31t3-13.78V857.29q0-9.81-3-13.9t-11.91-6.19v-7.48h175q36,0,56.88,3.87T1413.85,847a74.78,74.78,0,0,1,25.69,26.9q11.22,19.41,11.22,43.74,0,36.5-24.18,59.53t-66.45,26.31l81,125.92q7.23,11.65,21,11.66v7.48h-73.8v-7.48q11.44-1.86,11.44-6.53,0-2.32-8.17-15.16l-72.44-114.25Zm0-30.37h129.17q26.4,0,39.83-2.22A71,71,0,0,0,1390,964.5q24-14,24-47,0-33.16-24.75-47.18a73.51,73.51,0,0,0-24.41-8.18q-13.44-2.1-41.7-2.1h-125.9Z"
          transform="translate(-253.84 -251.23)"/>
    <path class="cls-12"
          d="M1615.82,1007.36V1121c0,6.4,1,11,3,13.68s6,4.87,11.92,6.43v7.48h-66.58v-7.48q8.88-2.34,11.92-6.31t3-13.8V1007.36l-103-134.92q-16.82-21.93-23.24-27.77a30.92,30.92,0,0,0-16-7.47v-7.48h80.95v7.48q-11,2.81-11,9.1,0,7.71,11,22.64l80.92,110.23,80.71-114q10.3-14.48,10.3-19.61,0-5.83-10.3-8.4v-7.48h75.33v7.48a36.41,36.41,0,0,0-19.62,10.27q-16.83,17.73-21.73,25Z"
          transform="translate(-253.84 -251.23)"/>
    <path class="cls-13"
          d="M567.4,999.27H349V1120.5q0,9.81,2.92,13.78t12,6.31v7.48H297.38v-7.48q9.11-2.33,12-6.31t2.92-13.78V856.79q0-9.81-3-13.9t-11.91-6.19v-7.48H364v7.48Q355.07,839,352,843t-3,13.78V968.91H567.4V856.79q0-9.81-3-13.9t-11.91-6.19v-7.48H619v7.48Q610.14,839,607.11,843t-3,13.78V1120.5q0,9.59,3,13.67t11.91,6.42v7.48H552.45v-7.48q8.87-2.33,11.91-6.31t3-13.78Z"
          transform="translate(-253.84 -251.23)"/>
    <path class="cls-13"
          d="M915.3,1058.6H744.76l-28,60.5q-4,8.64-4,12.15,0,7,13.82,9.34v7.48H655.46v-7.48q9.57-1.63,14.6-7t13.19-23.36l116.8-252q4.2-9.11,4.2-12.38,0-6.07-11.45-9.11v-7.48h77.55v7.48q-11.45,3.74-11.44,9.81,0,2.58,4.2,11.68L975,1101.12q12.38,26.85,16.35,31.53t17.29,7.94v7.48H933v-7.48q13.59-1.86,13.59-10.28,0-3.74-5.14-14.48Zm-13.47-30.36L830,870.69l-71.72,157.55Z"
          transform="translate(-253.84 -251.23)"/>
    <path class="cls-13"
          d="M1056.75,1120.5V856.79q0-9.81-3-13.9t-11.92-6.19v-7.48h66.58v7.48q-8.88,2.34-11.92,6.31t-3,13.78V1120.5q0,9.81,2.92,13.78t12,6.31v7.48H1041.8v-7.48q9.12-2.33,12-6.31T1056.75,1120.5Z"
          transform="translate(-253.84 -251.23)"/>
    <path class="cls-13"
          d="M1196.82,1004.65v115.89q0,9.56,3,13.64t11.91,6.41v7.48H1145.2v-7.48q8.86-2.33,11.91-6.31t3-13.78V856.79q0-9.81-3-13.9t-11.91-6.19v-7.48h175q36,0,56.88,3.87t36.32,13.44a74.78,74.78,0,0,1,25.69,26.9q11.22,19.41,11.22,43.74,0,36.5-24.18,59.53T1359.63,1003l81,125.92q7.23,11.65,21,11.66v7.48h-73.8v-7.48q11.44-1.86,11.44-6.53,0-2.32-8.17-15.16l-72.44-114.25Zm0-30.37H1326q26.4,0,39.83-2.22a71,71,0,0,0,23.71-8.06q24-14,24-47,0-33.16-24.75-47.18a73.51,73.51,0,0,0-24.41-8.18q-13.44-2.1-41.7-2.1h-125.9Z"
          transform="translate(-253.84 -251.23)"/>
    <path class="cls-13"
          d="M1615.32,1006.86v113.62c0,6.4,1,11,3,13.68s6,4.87,11.92,6.43v7.48h-66.58v-7.48q8.88-2.34,11.92-6.31t3-13.8V1006.86l-103-134.92q-16.82-21.93-23.24-27.77a30.92,30.92,0,0,0-16-7.47v-7.48h80.95v7.48q-11,2.81-11,9.1,0,7.71,11,22.64l80.92,110.23,80.71-114q10.3-14.48,10.3-19.61,0-5.83-10.3-8.4v-7.48h75.33v7.48A36.41,36.41,0,0,0,1734.68,847q-16.83,17.73-21.73,25Z"
          transform="translate(-253.84 -251.23)"/>
    <path class="cls-14"
          d="M566.9,998.77H348.5V1120q0,9.81,2.92,13.78t12,6.31v7.48H296.88v-7.48q9.11-2.33,12-6.31t2.92-13.78V856.29q0-9.81-3-13.9t-11.91-6.19v-7.48h66.57v7.48q-8.88,2.34-11.92,6.31t-3,13.78V968.41H566.9V856.29q0-9.81-3-13.9T552,836.2v-7.48h66.57v7.48q-8.88,2.34-11.91,6.31t-3,13.78V1120q0,9.59,3,13.67t11.91,6.42v7.48H552v-7.48q8.87-2.33,11.91-6.31t3-13.78Z"
          transform="translate(-253.84 -251.23)"/>
    <path class="cls-14"
          d="M914.8,1058.1H744.26l-28,60.5q-4,8.64-4,12.15,0,7,13.82,9.34v7.48H655v-7.48q9.57-1.63,14.6-7t13.19-23.36l116.8-252q4.2-9.11,4.2-12.38,0-6.07-11.45-9.11v-7.48h77.55v7.48q-11.45,3.74-11.44,9.81,0,2.58,4.2,11.68L974.5,1100.62q12.38,26.85,16.35,31.53t17.29,7.94v7.48H932.45v-7.48q13.59-1.86,13.59-10.28,0-3.74-5.14-14.48Zm-13.47-30.36L829.54,870.19l-71.72,157.55Z"
          transform="translate(-253.84 -251.23)"/>
    <path class="cls-14"
          d="M1056.25,1120V856.29q0-9.81-3-13.9t-11.92-6.19v-7.48h66.58v7.48q-8.88,2.34-11.92,6.31t-3,13.78V1120q0,9.81,2.92,13.78t12,6.31v7.48H1041.3v-7.48q9.12-2.33,12-6.31T1056.25,1120Z"
          transform="translate(-253.84 -251.23)"/>
    <path class="cls-14"
          d="M1196.32,1004.15V1120q0,9.56,3,13.64t11.91,6.41v7.48H1144.7v-7.48q8.86-2.33,11.91-6.31t3-13.78V856.29q0-9.81-3-13.9t-11.91-6.19v-7.48h175q36,0,56.88,3.87T1412.85,846a74.78,74.78,0,0,1,25.69,26.9q11.22,19.41,11.22,43.74,0,36.5-24.18,59.53t-66.45,26.31l81,125.92q7.23,11.65,21,11.66v7.48h-73.8v-7.48q11.44-1.86,11.44-6.53,0-2.32-8.17-15.16l-72.44-114.25Zm0-30.37h129.17q26.4,0,39.83-2.22A71,71,0,0,0,1389,963.5q24-14,24-47,0-33.16-24.75-47.18a73.51,73.51,0,0,0-24.41-8.18q-13.44-2.1-41.7-2.1h-125.9Z"
          transform="translate(-253.84 -251.23)"/>
    <path class="cls-14"
          d="M1614.82,1006.36V1120c0,6.4,1,11,3,13.68s6,4.87,11.92,6.43v7.48h-66.58v-7.48q8.88-2.34,11.92-6.31t3-13.8V1006.36l-103-134.92q-16.82-21.93-23.24-27.77a30.92,30.92,0,0,0-16-7.47v-7.48h80.95v7.48q-11,2.81-11,9.1,0,7.71,11,22.64l80.92,110.23,80.71-114q10.3-14.48,10.3-19.61,0-5.83-10.3-8.4v-7.48h75.33v7.48a36.41,36.41,0,0,0-19.62,10.27q-16.83,17.73-21.73,25Z"
          transform="translate(-253.84 -251.23)"/>
    <path class="cls-15"
          d="M566.4,998.27H348V1119.5q0,9.81,2.92,13.78t12,6.31v7.48H296.38v-7.48q9.11-2.33,12-6.31t2.92-13.78V855.79q0-9.81-3-13.9t-11.91-6.19v-7.48H363v7.48Q354.07,838,351,842t-3,13.78V967.91H566.4V855.79q0-9.81-3-13.9t-11.91-6.19v-7.48H618v7.48Q609.14,838,606.11,842t-3,13.78V1119.5q0,9.59,3,13.67t11.91,6.42v7.48H551.45v-7.48q8.87-2.33,11.91-6.31t3-13.78Z"
          transform="translate(-253.84 -251.23)"/>
    <path class="cls-15"
          d="M914.3,1057.6H743.76l-28,60.5q-4,8.64-4,12.15,0,7,13.82,9.34v7.48H654.46v-7.48q9.57-1.63,14.6-7t13.19-23.36l116.8-252q4.2-9.11,4.2-12.38,0-6.07-11.45-9.11v-7.48h77.55v7.48q-11.45,3.74-11.44,9.81,0,2.58,4.2,11.68L974,1100.12q12.38,26.85,16.35,31.53t17.29,7.94v7.48H932v-7.48q13.59-1.86,13.59-10.28,0-3.74-5.14-14.48Zm-13.47-30.36L829,869.69l-71.72,157.55Z"
          transform="translate(-253.84 -251.23)"/>
    <path class="cls-15"
          d="M1055.75,1119.5V855.79q0-9.81-3-13.9t-11.92-6.19v-7.48h66.58v7.48q-8.88,2.34-11.92,6.31t-3,13.78V1119.5q0,9.81,2.92,13.78t12,6.31v7.48H1040.8v-7.48q9.12-2.33,12-6.31T1055.75,1119.5Z"
          transform="translate(-253.84 -251.23)"/>
    <path class="cls-15"
          d="M1195.82,1003.65v115.89q0,9.56,3,13.64t11.91,6.41v7.48H1144.2v-7.48q8.86-2.33,11.91-6.31t3-13.78V855.79q0-9.81-3-13.9t-11.91-6.19v-7.48h175q36,0,56.88,3.87t36.32,13.44a74.78,74.78,0,0,1,25.69,26.9q11.22,19.41,11.22,43.74,0,36.5-24.18,59.53T1358.63,1002l81,125.92q7.23,11.65,21,11.66v7.48h-73.8v-7.48q11.44-1.86,11.44-6.53,0-2.32-8.17-15.16l-72.44-114.25Zm0-30.37H1325q26.4,0,39.83-2.22a71,71,0,0,0,23.71-8.06q24-14,24-47,0-33.16-24.75-47.18a73.51,73.51,0,0,0-24.41-8.18q-13.44-2.1-41.7-2.1h-125.9Z"
          transform="translate(-253.84 -251.23)"/>
    <path class="cls-15"
          d="M1614.32,1005.86v113.62c0,6.4,1,11,3,13.68s6,4.87,11.92,6.43v7.48h-66.58v-7.48q8.88-2.34,11.92-6.31t3-13.8V1005.86l-103-134.92q-16.82-21.93-23.24-27.77a30.92,30.92,0,0,0-16-7.47v-7.48h80.95v7.48q-11,2.81-11,9.1,0,7.71,11,22.64l80.92,110.23,80.71-114q10.3-14.48,10.3-19.61,0-5.83-10.3-8.4v-7.48h75.33v7.48A36.41,36.41,0,0,0,1733.68,846q-16.83,17.73-21.73,25Z"
          transform="translate(-253.84 -251.23)"/>
    <path class="cls-16"
          d="M565.9,997.77H347.5V1119q0,9.81,2.92,13.78t12,6.31v7.48H295.88v-7.48q9.11-2.33,12-6.31t2.92-13.78V855.29q0-9.81-3-13.9t-11.91-6.19v-7.48h66.57v7.48q-8.88,2.34-11.92,6.31t-3,13.78V967.41H565.9V855.29q0-9.81-3-13.9T551,835.2v-7.48h66.57v7.48q-8.88,2.34-11.91,6.31t-3,13.78V1119q0,9.59,3,13.67t11.91,6.42v7.48H551v-7.48q8.87-2.33,11.91-6.31t3-13.78Z"
          transform="translate(-253.84 -251.23)"/>
    <path class="cls-16"
          d="M913.8,1057.1H743.26l-28,60.5q-4,8.64-4,12.15,0,7,13.82,9.34v7.48H654v-7.48q9.57-1.63,14.6-7t13.19-23.36l116.8-252q4.2-9.11,4.2-12.38,0-6.07-11.45-9.11v-7.48h77.55v7.48q-11.45,3.74-11.44,9.81,0,2.58,4.2,11.68L973.5,1099.62q12.38,26.85,16.35,31.53t17.29,7.94v7.48H931.45v-7.48q13.59-1.86,13.59-10.28,0-3.74-5.14-14.48Zm-13.47-30.36L828.54,869.19l-71.72,157.55Z"
          transform="translate(-253.84 -251.23)"/>
    <path class="cls-16"
          d="M1055.25,1119V855.29q0-9.81-3-13.9t-11.92-6.19v-7.48h66.58v7.48q-8.88,2.34-11.92,6.31t-3,13.78V1119q0,9.81,2.92,13.78t12,6.31v7.48H1040.3v-7.48q9.12-2.33,12-6.31T1055.25,1119Z"
          transform="translate(-253.84 -251.23)"/>
    <path class="cls-16"
          d="M1195.32,1003.15V1119q0,9.56,3,13.64t11.91,6.41v7.48H1143.7v-7.48q8.86-2.33,11.91-6.31t3-13.78V855.29q0-9.81-3-13.9t-11.91-6.19v-7.48h175q36,0,56.88,3.87T1411.85,845a74.78,74.78,0,0,1,25.69,26.9q11.22,19.41,11.22,43.74,0,36.5-24.18,59.53t-66.45,26.31l81,125.92q7.23,11.65,21,11.66v7.48h-73.8v-7.48q11.44-1.86,11.44-6.53,0-2.32-8.17-15.16l-72.44-114.25Zm0-30.37h129.17q26.4,0,39.83-2.22A71,71,0,0,0,1388,962.5q24-14,24-47,0-33.16-24.75-47.18a73.51,73.51,0,0,0-24.41-8.18q-13.44-2.1-41.7-2.1h-125.9Z"
          transform="translate(-253.84 -251.23)"/>
    <path class="cls-16"
          d="M1613.82,1005.36V1119c0,6.4,1,11,3,13.68s6,4.87,11.92,6.43v7.48h-66.58v-7.48q8.88-2.34,11.92-6.31t3-13.8V1005.36l-103-134.92q-16.82-21.93-23.24-27.77a30.92,30.92,0,0,0-16-7.47v-7.48h80.95v7.48q-11,2.81-11,9.1,0,7.71,11,22.64l80.92,110.23,80.71-114q10.3-14.48,10.3-19.61,0-5.83-10.3-8.4v-7.48h75.33v7.48a36.41,36.41,0,0,0-19.62,10.27q-16.83,17.73-21.73,25Z"
          transform="translate(-253.84 -251.23)"/>
    <path class="cls-17"
          d="M565.4,997.27H347V1118.5q0,9.81,2.92,13.78t12,6.31v7.48H295.38v-7.48q9.11-2.33,12-6.31t2.92-13.78V854.79q0-9.81-3-13.9t-11.91-6.19v-7.48H362v7.48Q353.07,837,350,841t-3,13.78V966.91H565.4V854.79q0-9.81-3-13.9t-11.91-6.19v-7.48H617v7.48Q608.14,837,605.11,841t-3,13.78V1118.5q0,9.59,3,13.67t11.91,6.42v7.48H550.45v-7.48q8.87-2.33,11.91-6.31t3-13.78Z"
          transform="translate(-253.84 -251.23)"/>
    <path class="cls-17"
          d="M913.3,1056.6H742.76l-28,60.5q-4,8.64-4,12.15,0,7,13.82,9.34v7.48H653.46v-7.48q9.57-1.63,14.6-7t13.19-23.36l116.8-252q4.2-9.11,4.2-12.38,0-6.07-11.45-9.11v-7.48h77.55v7.48q-11.45,3.74-11.44,9.81,0,2.58,4.2,11.68L973,1099.12q12.38,26.85,16.35,31.53t17.29,7.94v7.48H931v-7.48q13.59-1.86,13.59-10.28,0-3.74-5.14-14.48Zm-13.47-30.36L828,868.69l-71.72,157.55Z"
          transform="translate(-253.84 -251.23)"/>
    <path class="cls-17"
          d="M1054.75,1118.5V854.79q0-9.81-3-13.9t-11.92-6.19v-7.48h66.58v7.48q-8.88,2.34-11.92,6.31t-3,13.78V1118.5q0,9.81,2.92,13.78t12,6.31v7.48H1039.8v-7.48q9.12-2.33,12-6.31T1054.75,1118.5Z"
          transform="translate(-253.84 -251.23)"/>
    <path class="cls-17"
          d="M1194.82,1002.65v115.89q0,9.56,3,13.64t11.91,6.41v7.48H1143.2v-7.48q8.86-2.33,11.91-6.31t3-13.78V854.79q0-9.81-3-13.9t-11.91-6.19v-7.48h175q36,0,56.88,3.87t36.32,13.44a74.78,74.78,0,0,1,25.69,26.9q11.22,19.41,11.22,43.74,0,36.5-24.18,59.53T1357.63,1001l81,125.92q7.23,11.65,21,11.66v7.48h-73.8v-7.48q11.44-1.86,11.44-6.53,0-2.32-8.17-15.16l-72.44-114.25Zm0-30.37H1324q26.4,0,39.83-2.22a71,71,0,0,0,23.71-8.06q24-14,24-47,0-33.16-24.75-47.18a73.51,73.51,0,0,0-24.41-8.18q-13.44-2.1-41.7-2.1h-125.9Z"
          transform="translate(-253.84 -251.23)"/>
    <path class="cls-17"
          d="M1613.32,1004.86v113.62c0,6.4,1,11,3,13.68s6,4.87,11.92,6.43v7.48h-66.58v-7.48q8.88-2.34,11.92-6.31t3-13.8V1004.86l-103-134.92q-16.82-21.93-23.24-27.77a30.92,30.92,0,0,0-16-7.47v-7.48h80.95v7.48q-11,2.81-11,9.1,0,7.71,11,22.64l80.92,110.23,80.71-114q10.3-14.48,10.3-19.61,0-5.83-10.3-8.4v-7.48h75.33v7.48A36.41,36.41,0,0,0,1732.68,845q-16.83,17.73-21.73,25Z"
          transform="translate(-253.84 -251.23)"/>
    <path class="cls-18"
          d="M564.9,996.77H346.5V1118q0,9.81,2.92,13.78t12,6.31v7.48H294.88v-7.48q9.11-2.33,12-6.31t2.92-13.78V854.29q0-9.81-3-13.9t-11.91-6.19v-7.48h66.57v7.48q-8.88,2.34-11.92,6.31t-3,13.78V966.41H564.9V854.29q0-9.81-3-13.9T550,834.2v-7.48h66.57v7.48q-8.88,2.34-11.91,6.31t-3,13.78V1118q0,9.59,3,13.67t11.91,6.42v7.48H550v-7.48q8.87-2.33,11.91-6.31t3-13.78Z"
          transform="translate(-253.84 -251.23)"/>
    <path class="cls-18"
          d="M912.8,1056.1H742.26l-28,60.5q-4,8.64-4,12.15,0,7,13.82,9.34v7.48H653v-7.48q9.57-1.63,14.6-7t13.19-23.36l116.8-252q4.2-9.11,4.2-12.38,0-6.07-11.45-9.11v-7.48h77.55v7.48q-11.45,3.74-11.44,9.81,0,2.58,4.2,11.68L972.5,1098.62q12.38,26.85,16.35,31.53t17.29,7.94v7.48H930.45v-7.48q13.59-1.86,13.59-10.28,0-3.74-5.14-14.48Zm-13.47-30.36L827.54,868.19l-71.72,157.55Z"
          transform="translate(-253.84 -251.23)"/>
    <path class="cls-18"
          d="M1054.25,1118V854.29q0-9.81-3-13.9t-11.92-6.19v-7.48h66.58v7.48q-8.88,2.34-11.92,6.31t-3,13.78V1118q0,9.81,2.92,13.78t12,6.31v7.48H1039.3v-7.48q9.12-2.33,12-6.31T1054.25,1118Z"
          transform="translate(-253.84 -251.23)"/>
    <path class="cls-18"
          d="M1194.32,1002.15V1118q0,9.56,3,13.64t11.91,6.41v7.48H1142.7v-7.48q8.86-2.33,11.91-6.31t3-13.78V854.29q0-9.81-3-13.9t-11.91-6.19v-7.48h175q36,0,56.88,3.87T1410.85,844a74.78,74.78,0,0,1,25.69,26.9q11.22,19.41,11.22,43.74,0,36.5-24.18,59.53t-66.45,26.31l81,125.92q7.23,11.65,21,11.66v7.48h-73.8v-7.48q11.44-1.86,11.44-6.53,0-2.32-8.17-15.16l-72.44-114.25Zm0-30.37h129.17q26.4,0,39.83-2.22A71,71,0,0,0,1387,961.5q24-14,24-47,0-33.16-24.75-47.18a73.51,73.51,0,0,0-24.41-8.18q-13.44-2.1-41.7-2.1h-125.9Z"
          transform="translate(-253.84 -251.23)"/>
    <path class="cls-18"
          d="M1612.82,1004.36V1118c0,6.4,1,11,3,13.68s6,4.87,11.92,6.43v7.48h-66.58v-7.48q8.88-2.34,11.92-6.31t3-13.8V1004.36l-103-134.92q-16.82-21.93-23.24-27.77a30.92,30.92,0,0,0-16-7.47v-7.48h80.95v7.48q-11,2.81-11,9.1,0,7.71,11,22.64l80.92,110.23,80.71-114q10.3-14.48,10.3-19.61,0-5.83-10.3-8.4v-7.48h75.33v7.48a36.41,36.41,0,0,0-19.62,10.27q-16.83,17.73-21.73,25Z"
          transform="translate(-253.84 -251.23)"/>
    <path class="cls-19"
          d="M564.4,996.27H346V1117.5q0,9.81,2.92,13.78t12,6.31v7.48H294.38v-7.48q9.11-2.33,12-6.31t2.92-13.78V853.79q0-9.81-3-13.9t-11.91-6.19v-7.48H361v7.48Q352.07,836,349,840t-3,13.78V965.91H564.4V853.79q0-9.81-3-13.9t-11.91-6.19v-7.48H616v7.48Q607.14,836,604.11,840t-3,13.78V1117.5q0,9.59,3,13.67t11.91,6.42v7.48H549.45v-7.48q8.87-2.33,11.91-6.31t3-13.78Z"
          transform="translate(-253.84 -251.23)"/>
    <path class="cls-19"
          d="M912.3,1055.6H741.76l-28,60.5q-4,8.64-4,12.15,0,7,13.82,9.34v7.48H652.46v-7.48q9.57-1.63,14.6-7t13.19-23.36l116.8-252q4.2-9.11,4.2-12.38,0-6.07-11.45-9.11v-7.48h77.55v7.48q-11.45,3.74-11.44,9.81,0,2.58,4.2,11.68L972,1098.12q12.38,26.85,16.35,31.53t17.29,7.94v7.48H930v-7.48q13.59-1.86,13.59-10.28,0-3.74-5.14-14.48Zm-13.47-30.36L827,867.69l-71.72,157.55Z"
          transform="translate(-253.84 -251.23)"/>
    <path class="cls-19"
          d="M1053.75,1117.5V853.79q0-9.81-3-13.9t-11.92-6.19v-7.48h66.58v7.48q-8.88,2.34-11.92,6.31t-3,13.78V1117.5q0,9.81,2.92,13.78t12,6.31v7.48H1038.8v-7.48q9.12-2.33,12-6.31T1053.75,1117.5Z"
          transform="translate(-253.84 -251.23)"/>
    <path class="cls-19"
          d="M1193.82,1001.65v115.89q0,9.56,3,13.64t11.91,6.41v7.48H1142.2v-7.48q8.86-2.33,11.91-6.31t3-13.78V853.79q0-9.81-3-13.9t-11.91-6.19v-7.48h175q36,0,56.88,3.87t36.32,13.44a74.78,74.78,0,0,1,25.69,26.9q11.22,19.41,11.22,43.74,0,36.5-24.18,59.53T1356.63,1000l81,125.92q7.23,11.65,21,11.66v7.48h-73.8v-7.48q11.44-1.86,11.44-6.53,0-2.32-8.17-15.16l-72.44-114.25Zm0-30.37H1323q26.4,0,39.83-2.22a71,71,0,0,0,23.71-8.06q24-14,24-47,0-33.16-24.75-47.18a73.51,73.51,0,0,0-24.41-8.18q-13.44-2.1-41.7-2.1h-125.9Z"
          transform="translate(-253.84 -251.23)"/>
    <path class="cls-19"
          d="M1612.32,1003.86v113.62c0,6.4,1,11,3,13.68s6,4.87,11.92,6.43v7.48h-66.58v-7.48q8.88-2.34,11.92-6.31t3-13.8V1003.86l-103-134.92q-16.82-21.93-23.24-27.77a30.92,30.92,0,0,0-16-7.47v-7.48h80.95v7.48q-11,2.81-11,9.1,0,7.71,11,22.64l80.92,110.23,80.71-114q10.3-14.48,10.3-19.61,0-5.83-10.3-8.4v-7.48h75.33v7.48A36.41,36.41,0,0,0,1731.68,844q-16.83,17.73-21.73,25Z"
          transform="translate(-253.84 -251.23)"/>
    <path class="cls-20"
          d="M563.9,995.77H345.5V1117q0,9.81,2.92,13.78t12,6.31v7.48H293.88v-7.48q9.11-2.33,12-6.31t2.92-13.78V853.29q0-9.81-3-13.9t-11.91-6.19v-7.48h66.57v7.48q-8.88,2.34-11.92,6.31t-3,13.78V965.41H563.9V853.29q0-9.81-3-13.9T549,833.2v-7.48h66.57v7.48q-8.88,2.34-11.91,6.31t-3,13.78V1117q0,9.59,3,13.67t11.91,6.42v7.48H549v-7.48q8.87-2.33,11.91-6.31t3-13.78Z"
          transform="translate(-253.84 -251.23)"/>
    <path class="cls-20"
          d="M911.8,1055.1H741.26l-28,60.5q-4,8.64-4,12.15,0,7,13.82,9.34v7.48H652v-7.48q9.57-1.63,14.6-7t13.19-23.36l116.8-252q4.2-9.11,4.2-12.38,0-6.07-11.45-9.11v-7.48h77.55v7.48q-11.45,3.74-11.44,9.81,0,2.58,4.2,11.68L971.5,1097.62q12.38,26.85,16.35,31.53t17.29,7.94v7.48H929.45v-7.48q13.59-1.86,13.59-10.28,0-3.74-5.14-14.48Zm-13.47-30.36L826.54,867.19l-71.72,157.55Z"
          transform="translate(-253.84 -251.23)"/>
    <path class="cls-20"
          d="M1053.25,1117V853.29q0-9.81-3-13.9t-11.92-6.19v-7.48h66.58v7.48q-8.88,2.34-11.92,6.31t-3,13.78V1117q0,9.81,2.92,13.78t12,6.31v7.48H1038.3v-7.48q9.12-2.33,12-6.31T1053.25,1117Z"
          transform="translate(-253.84 -251.23)"/>
    <path class="cls-20"
          d="M1193.32,1001.15V1117q0,9.56,3,13.64t11.91,6.41v7.48H1141.7v-7.48q8.86-2.33,11.91-6.31t3-13.78V853.29q0-9.81-3-13.9t-11.91-6.19v-7.48h175q36,0,56.88,3.87T1409.85,843a74.78,74.78,0,0,1,25.69,26.9q11.22,19.41,11.22,43.74,0,36.5-24.18,59.53t-66.45,26.31l81,125.92q7.23,11.65,21,11.66v7.48h-73.8v-7.48q11.44-1.86,11.44-6.53,0-2.32-8.17-15.16l-72.44-114.25Zm0-30.37h129.17q26.4,0,39.83-2.22A71,71,0,0,0,1386,960.5q24-14,24-47,0-33.16-24.75-47.18a73.51,73.51,0,0,0-24.41-8.18q-13.44-2.1-41.7-2.1h-125.9Z"
          transform="translate(-253.84 -251.23)"/>
    <path class="cls-20"
          d="M1611.82,1003.36V1117c0,6.4,1,11,3,13.68s6,4.87,11.92,6.43v7.48h-66.58v-7.48q8.88-2.34,11.92-6.31t3-13.8V1003.36l-103-134.92q-16.82-21.93-23.24-27.77a30.92,30.92,0,0,0-16-7.47v-7.48h80.95v7.48q-11,2.81-11,9.1,0,7.71,11,22.64l80.92,110.23,80.71-114q10.3-14.48,10.3-19.61,0-5.83-10.3-8.4v-7.48h75.33v7.48a36.41,36.41,0,0,0-19.62,10.27q-16.83,17.73-21.73,25Z"
          transform="translate(-253.84 -251.23)"/>
    <path class="cls-21"
          d="M563.4,995.27H345V1116.5q0,9.81,2.92,13.78t12,6.31v7.48H293.38v-7.48q9.11-2.33,12-6.31t2.92-13.78V852.79q0-9.81-3-13.9t-11.91-6.19v-7.48H360v7.48Q351.07,835,348,839t-3,13.78V964.91H563.4V852.79q0-9.81-3-13.9t-11.91-6.19v-7.48H615v7.48Q606.14,835,603.11,839t-3,13.78V1116.5q0,9.59,3,13.67t11.91,6.42v7.48H548.45v-7.48q8.87-2.33,11.91-6.31t3-13.78Z"
          transform="translate(-253.84 -251.23)"/>
    <path class="cls-21"
          d="M911.3,1054.6H740.76l-28,60.5q-4,8.64-4,12.15,0,7,13.82,9.34v7.48H651.46v-7.48q9.57-1.63,14.6-7t13.19-23.36l116.8-252q4.2-9.11,4.2-12.38,0-6.07-11.45-9.11v-7.48h77.55v7.48q-11.45,3.74-11.44,9.81,0,2.58,4.2,11.68L971,1097.12q12.38,26.85,16.35,31.53t17.29,7.94v7.48H929v-7.48q13.59-1.86,13.59-10.28,0-3.74-5.14-14.48Zm-13.47-30.36L826,866.69l-71.72,157.55Z"
          transform="translate(-253.84 -251.23)"/>
    <path class="cls-21"
          d="M1052.75,1116.5V852.79q0-9.81-3-13.9t-11.92-6.19v-7.48h66.58v7.48q-8.88,2.34-11.92,6.31t-3,13.78V1116.5q0,9.81,2.92,13.78t12,6.31v7.48H1037.8v-7.48q9.12-2.33,12-6.31T1052.75,1116.5Z"
          transform="translate(-253.84 -251.23)"/>
    <path class="cls-21"
          d="M1192.82,1000.65v115.89q0,9.56,3,13.64t11.91,6.41v7.48H1141.2v-7.48q8.86-2.33,11.91-6.31t3-13.78V852.79q0-9.81-3-13.9t-11.91-6.19v-7.48h175q36,0,56.88,3.87t36.32,13.44a74.78,74.78,0,0,1,25.69,26.9q11.22,19.41,11.22,43.74,0,36.5-24.18,59.53T1355.63,999l81,125.92q7.23,11.65,21,11.66v7.48h-73.8v-7.48q11.44-1.86,11.44-6.53,0-2.32-8.17-15.16l-72.44-114.25Zm0-30.37H1322q26.4,0,39.83-2.22a71,71,0,0,0,23.71-8.06q24-14,24-47,0-33.16-24.75-47.18a73.51,73.51,0,0,0-24.41-8.18q-13.44-2.1-41.7-2.1h-125.9Z"
          transform="translate(-253.84 -251.23)"/>
    <path class="cls-21"
          d="M1611.32,1002.86v113.62c0,6.4,1,11,3,13.68s6,4.87,11.92,6.43v7.48h-66.58v-7.48q8.88-2.34,11.92-6.31t3-13.8V1002.86l-103-134.92q-16.82-21.93-23.24-27.77a30.92,30.92,0,0,0-16-7.47v-7.48h80.95v7.48q-11,2.81-11,9.1,0,7.71,11,22.64l80.92,110.23,80.71-114q10.3-14.48,10.3-19.61,0-5.83-10.3-8.4v-7.48h75.33v7.48A36.41,36.41,0,0,0,1730.68,843q-16.83,17.73-21.73,25Z"
          transform="translate(-253.84 -251.23)"/>
    <path class="cls-22"
          d="M562.9,994.77H344.5V1116q0,9.81,2.92,13.78t12,6.31v7.48H292.88v-7.48q9.11-2.33,12-6.31t2.92-13.78V852.29q0-9.81-3-13.9t-11.91-6.19v-7.48h66.57v7.48q-8.88,2.34-11.92,6.31t-3,13.78V964.41H562.9V852.29q0-9.81-3-13.9T548,832.2v-7.48h66.57v7.48q-8.88,2.34-11.91,6.31t-3,13.78V1116q0,9.59,3,13.67t11.91,6.42v7.48H548v-7.48q8.87-2.33,11.91-6.31t3-13.78Z"
          transform="translate(-253.84 -251.23)"/>
    <path class="cls-22"
          d="M910.8,1054.1H740.26l-28,60.5q-4,8.64-4,12.15,0,7,13.82,9.34v7.48H651v-7.48q9.57-1.63,14.6-7t13.19-23.36l116.8-252q4.2-9.11,4.2-12.38,0-6.07-11.45-9.11v-7.48h77.55v7.48q-11.45,3.74-11.44,9.81,0,2.58,4.2,11.68L970.5,1096.62q12.38,26.85,16.35,31.53t17.29,7.94v7.48H928.45v-7.48q13.59-1.86,13.59-10.28,0-3.74-5.14-14.48Zm-13.47-30.36L825.54,866.19l-71.72,157.55Z"
          transform="translate(-253.84 -251.23)"/>
    <path class="cls-22"
          d="M1052.25,1116V852.29q0-9.81-3-13.9t-11.92-6.19v-7.48h66.58v7.48q-8.88,2.34-11.92,6.31t-3,13.78V1116q0,9.81,2.92,13.78t12,6.31v7.48H1037.3v-7.48q9.12-2.33,12-6.31T1052.25,1116Z"
          transform="translate(-253.84 -251.23)"/>
    <path class="cls-22"
          d="M1192.32,1000.15V1116q0,9.56,3,13.64t11.91,6.41v7.48H1140.7v-7.48q8.86-2.33,11.91-6.31t3-13.78V852.29q0-9.81-3-13.9t-11.91-6.19v-7.48h175q36,0,56.88,3.87T1408.85,842a74.78,74.78,0,0,1,25.69,26.9q11.22,19.41,11.22,43.74,0,36.5-24.18,59.53t-66.45,26.31l81,125.92q7.23,11.65,21,11.66v7.48h-73.8v-7.48q11.44-1.86,11.44-6.53,0-2.32-8.17-15.16l-72.44-114.25Zm0-30.37h129.17q26.4,0,39.83-2.22A71,71,0,0,0,1385,959.5q24-14,24-47,0-33.16-24.75-47.18a73.51,73.51,0,0,0-24.41-8.18q-13.44-2.1-41.7-2.1h-125.9Z"
          transform="translate(-253.84 -251.23)"/>
    <path class="cls-22"
          d="M1610.82,1002.36V1116c0,6.4,1,11,3,13.68s6,4.87,11.92,6.43v7.48h-66.58v-7.48q8.88-2.34,11.92-6.31t3-13.8V1002.36l-103-134.92q-16.82-21.93-23.24-27.77a30.92,30.92,0,0,0-16-7.47v-7.48h80.95v7.48q-11,2.81-11,9.1,0,7.71,11,22.64l80.92,110.23,80.71-114q10.3-14.48,10.3-19.61,0-5.83-10.3-8.4v-7.48h75.33v7.48a36.41,36.41,0,0,0-19.62,10.27q-16.83,17.73-21.73,25Z"
          transform="translate(-253.84 -251.23)"/>
    <path class="cls-23"
          d="M562.4,994.27H344V1115.5q0,9.81,2.92,13.78t12,6.31v7.48H292.38v-7.48q9.11-2.33,12-6.31t2.92-13.78V851.79q0-9.81-3-13.9t-11.91-6.19v-7.48H359v7.48Q350.07,834,347,838t-3,13.78V963.91H562.4V851.79q0-9.81-3-13.9t-11.91-6.19v-7.48H614v7.48Q605.14,834,602.11,838t-3,13.78V1115.5q0,9.59,3,13.67t11.91,6.42v7.48H547.45v-7.48q8.87-2.33,11.91-6.31t3-13.78Z"
          transform="translate(-253.84 -251.23)"/>
    <path class="cls-23"
          d="M910.3,1053.6H739.76l-28,60.5q-4,8.64-4,12.15,0,7,13.82,9.34v7.48H650.46v-7.48q9.57-1.63,14.6-7t13.19-23.36l116.8-252q4.2-9.11,4.2-12.38,0-6.07-11.45-9.11v-7.48h77.55v7.48q-11.45,3.74-11.44,9.81,0,2.58,4.2,11.68L970,1096.12q12.38,26.85,16.35,31.53t17.29,7.94v7.48H928v-7.48q13.59-1.86,13.59-10.28,0-3.74-5.14-14.48Zm-13.47-30.36L825,865.69l-71.72,157.55Z"
          transform="translate(-253.84 -251.23)"/>
    <path class="cls-23"
          d="M1051.75,1115.5V851.79q0-9.81-3-13.9t-11.92-6.19v-7.48h66.58v7.48q-8.88,2.34-11.92,6.31t-3,13.78V1115.5q0,9.81,2.92,13.78t12,6.31v7.48H1036.8v-7.48q9.12-2.33,12-6.31T1051.75,1115.5Z"
          transform="translate(-253.84 -251.23)"/>
    <path class="cls-23"
          d="M1191.82,999.65v115.89q0,9.56,3,13.64t11.91,6.41v7.48H1140.2v-7.48q8.86-2.33,11.91-6.31t3-13.78V851.79q0-9.81-3-13.9t-11.91-6.19v-7.48h175q36,0,56.88,3.87t36.32,13.44a74.78,74.78,0,0,1,25.69,26.9q11.22,19.41,11.22,43.74,0,36.5-24.18,59.53T1354.63,998l81,125.92q7.23,11.65,21,11.66v7.48h-73.8v-7.48q11.44-1.86,11.44-6.53,0-2.32-8.17-15.16l-72.44-114.25Zm0-30.37H1321q26.4,0,39.83-2.22a71,71,0,0,0,23.71-8.06q24-14,24-47,0-33.16-24.75-47.18a73.51,73.51,0,0,0-24.41-8.18q-13.44-2.1-41.7-2.1h-125.9Z"
          transform="translate(-253.84 -251.23)"/>
    <path class="cls-23"
          d="M1610.32,1001.86v113.62c0,6.4,1,11,3,13.68s6,4.87,11.92,6.43v7.48h-66.58v-7.48q8.88-2.34,11.92-6.31t3-13.8V1001.86l-103-134.92q-16.82-21.93-23.24-27.77a30.92,30.92,0,0,0-16-7.47v-7.48h80.95v7.48q-11,2.81-11,9.1,0,7.71,11,22.64l80.92,110.23,80.71-114q10.3-14.48,10.3-19.61,0-5.83-10.3-8.4v-7.48h75.33v7.48A36.41,36.41,0,0,0,1729.68,842q-16.83,17.73-21.73,25Z"
          transform="translate(-253.84 -251.23)"/>
    <path class="cls-24"
          d="M561.9,993.77H343.5V1115q0,9.81,2.92,13.78t12,6.31v7.48H291.88v-7.48q9.11-2.33,12-6.31t2.92-13.78V851.29q0-9.81-3-13.9t-11.91-6.19v-7.48h66.57v7.48q-8.88,2.34-11.92,6.31t-3,13.78V963.41H561.9V851.29q0-9.81-3-13.9T547,831.2v-7.48h66.57v7.48q-8.88,2.34-11.91,6.31t-3,13.78V1115q0,9.59,3,13.67t11.91,6.42v7.48H547v-7.48q8.87-2.33,11.91-6.31t3-13.78Z"
          transform="translate(-253.84 -251.23)"/>
    <path class="cls-24"
          d="M909.8,1053.1H739.26l-28,60.5q-4,8.64-4,12.15,0,7,13.82,9.34v7.48H650v-7.48q9.57-1.63,14.6-7t13.19-23.36l116.8-252q4.2-9.11,4.2-12.38,0-6.07-11.45-9.11v-7.48h77.55v7.48q-11.45,3.74-11.44,9.81,0,2.58,4.2,11.68L969.5,1095.62q12.38,26.85,16.35,31.53t17.29,7.94v7.48H927.45v-7.48q13.59-1.86,13.59-10.28,0-3.74-5.14-14.48Zm-13.47-30.36L824.54,865.19l-71.72,157.55Z"
          transform="translate(-253.84 -251.23)"/>
    <path class="cls-24"
          d="M1051.25,1115V851.29q0-9.81-3-13.9t-11.92-6.19v-7.48h66.58v7.48q-8.88,2.34-11.92,6.31t-3,13.78V1115q0,9.81,2.92,13.78t12,6.31v7.48H1036.3v-7.48q9.12-2.33,12-6.31T1051.25,1115Z"
          transform="translate(-253.84 -251.23)"/>
    <path class="cls-24"
          d="M1191.32,999.15V1115q0,9.56,3,13.64t11.91,6.41v7.48H1139.7v-7.48q8.86-2.33,11.91-6.31t3-13.78V851.29q0-9.81-3-13.9t-11.91-6.19v-7.48h175q36,0,56.88,3.87T1407.85,841a74.78,74.78,0,0,1,25.69,26.9q11.22,19.41,11.22,43.74,0,36.5-24.18,59.53t-66.45,26.31l81,125.92q7.23,11.65,21,11.66v7.48h-73.8v-7.48q11.44-1.86,11.44-6.53,0-2.32-8.17-15.16l-72.44-114.25Zm0-30.37h129.17q26.4,0,39.83-2.22A71,71,0,0,0,1384,958.5q24-14,24-47,0-33.16-24.75-47.18a73.51,73.51,0,0,0-24.41-8.18q-13.44-2.1-41.7-2.1h-125.9Z"
          transform="translate(-253.84 -251.23)"/>
    <path class="cls-24"
          d="M1609.82,1001.36V1115c0,6.4,1,11,3,13.68s6,4.87,11.92,6.43v7.48h-66.58v-7.48q8.88-2.34,11.92-6.31t3-13.8V1001.36l-103-134.92q-16.82-21.93-23.24-27.77a30.92,30.92,0,0,0-16-7.47v-7.48h80.95v7.48q-11,2.81-11,9.1,0,7.71,11,22.64l80.92,110.23,80.71-114q10.3-14.48,10.3-19.61,0-5.83-10.3-8.4v-7.48h75.33v7.48a36.41,36.41,0,0,0-19.62,10.27q-16.83,17.73-21.73,25Z"
          transform="translate(-253.84 -251.23)"/>
    <path class="cls-25"
          d="M561.4,993.27H343V1114.5q0,9.81,2.92,13.78t12,6.31v7.48H291.38v-7.48q9.11-2.33,12-6.31t2.92-13.78V850.79q0-9.81-3-13.9t-11.91-6.19v-7.48H358v7.48Q349.07,833,346,837t-3,13.78V962.91H561.4V850.79q0-9.81-3-13.9t-11.91-6.19v-7.48H613v7.48Q604.14,833,601.11,837t-3,13.78V1114.5q0,9.59,3,13.67t11.91,6.42v7.48H546.45v-7.48q8.87-2.33,11.91-6.31t3-13.78Z"
          transform="translate(-253.84 -251.23)"/>
    <path class="cls-25"
          d="M909.3,1052.6H738.76l-28,60.5q-4,8.64-4,12.15,0,7,13.82,9.34v7.48H649.46v-7.48q9.57-1.63,14.6-7t13.19-23.36l116.8-252q4.2-9.11,4.2-12.38,0-6.07-11.45-9.11v-7.48h77.55v7.48q-11.45,3.74-11.44,9.81,0,2.58,4.2,11.68L969,1095.12q12.38,26.85,16.35,31.53t17.29,7.94v7.48H927v-7.48q13.59-1.86,13.59-10.28,0-3.74-5.14-14.48Zm-13.47-30.36L824,864.69l-71.72,157.55Z"
          transform="translate(-253.84 -251.23)"/>
    <path class="cls-25"
          d="M1050.75,1114.5V850.79q0-9.81-3-13.9t-11.92-6.19v-7.48h66.58v7.48q-8.88,2.34-11.92,6.31t-3,13.78V1114.5q0,9.81,2.92,13.78t12,6.31v7.48H1035.8v-7.48q9.12-2.33,12-6.31T1050.75,1114.5Z"
          transform="translate(-253.84 -251.23)"/>
    <path class="cls-25"
          d="M1190.82,998.65v115.89q0,9.56,3,13.64t11.91,6.41v7.48H1139.2v-7.48q8.86-2.33,11.91-6.31t3-13.78V850.79q0-9.81-3-13.9t-11.91-6.19v-7.48h175q36,0,56.88,3.87t36.32,13.44a74.78,74.78,0,0,1,25.69,26.9q11.22,19.41,11.22,43.74,0,36.5-24.18,59.53T1353.63,997l81,125.92q7.23,11.65,21,11.66v7.48h-73.8v-7.48q11.44-1.86,11.44-6.53,0-2.32-8.17-15.16l-72.44-114.25Zm0-30.37H1320q26.4,0,39.83-2.22a71,71,0,0,0,23.71-8.06q24-14,24-47,0-33.16-24.75-47.18a73.51,73.51,0,0,0-24.41-8.18q-13.44-2.1-41.7-2.1h-125.9Z"
          transform="translate(-253.84 -251.23)"/>
    <path class="cls-25"
          d="M1609.32,1000.86v113.62c0,6.4,1,11,3,13.68s6,4.87,11.92,6.43v7.48h-66.58v-7.48q8.88-2.34,11.92-6.31t3-13.8V1000.86l-103-134.92q-16.82-21.93-23.24-27.77a30.92,30.92,0,0,0-16-7.47v-7.48h80.95v7.48q-11,2.81-11,9.1,0,7.71,11,22.64l80.92,110.23,80.71-114q10.3-14.48,10.3-19.61,0-5.83-10.3-8.4v-7.48h75.33v7.48A36.41,36.41,0,0,0,1728.68,841q-16.83,17.73-21.73,25Z"
          transform="translate(-253.84 -251.23)"/>
    <path class="cls-26"
          d="M560.9,992.77H342.5V1114q0,9.81,2.92,13.78t12,6.31v7.48H290.88v-7.48q9.11-2.33,12-6.31t2.92-13.78V850.29q0-9.81-3-13.9t-11.91-6.19v-7.48h66.57v7.48q-8.88,2.34-11.92,6.31t-3,13.78V962.41H560.9V850.29q0-9.81-3-13.9T546,830.2v-7.48h66.57v7.48q-8.88,2.34-11.91,6.31t-3,13.78V1114q0,9.59,3,13.67t11.91,6.42v7.48H546v-7.48q8.87-2.33,11.91-6.31t3-13.78Z"
          transform="translate(-253.84 -251.23)"/>
    <path class="cls-26"
          d="M908.8,1052.1H738.26l-28,60.5q-4,8.64-4,12.15,0,7,13.82,9.34v7.48H649v-7.48q9.57-1.63,14.6-7t13.19-23.36l116.8-252q4.2-9.11,4.2-12.38,0-6.07-11.45-9.11v-7.48h77.55v7.48q-11.45,3.74-11.44,9.81,0,2.58,4.2,11.68L968.5,1094.62q12.38,26.85,16.35,31.53t17.29,7.94v7.48H926.45v-7.48q13.59-1.86,13.59-10.28,0-3.74-5.14-14.48Zm-13.47-30.36L823.54,864.19l-71.72,157.55Z"
          transform="translate(-253.84 -251.23)"/>
    <path class="cls-26"
          d="M1050.25,1114V850.29q0-9.81-3-13.9t-11.92-6.19v-7.48h66.58v7.48q-8.88,2.34-11.92,6.31t-3,13.78V1114q0,9.81,2.92,13.78t12,6.31v7.48H1035.3v-7.48q9.12-2.33,12-6.31T1050.25,1114Z"
          transform="translate(-253.84 -251.23)"/>
    <path class="cls-26"
          d="M1190.32,998.15V1114q0,9.56,3,13.64t11.91,6.41v7.48H1138.7v-7.48q8.86-2.33,11.91-6.31t3-13.78V850.29q0-9.81-3-13.9t-11.91-6.19v-7.48h175q36,0,56.88,3.87T1406.85,840a74.78,74.78,0,0,1,25.69,26.9q11.22,19.41,11.22,43.74,0,36.5-24.18,59.53t-66.45,26.31l81,125.92q7.23,11.65,21,11.66v7.48h-73.8v-7.48q11.44-1.86,11.44-6.53,0-2.32-8.17-15.16l-72.44-114.25Zm0-30.37h129.17q26.4,0,39.83-2.22A71,71,0,0,0,1383,957.5q24-14,24-47,0-33.16-24.75-47.18a73.51,73.51,0,0,0-24.41-8.18q-13.44-2.1-41.7-2.1h-125.9Z"
          transform="translate(-253.84 -251.23)"/>
    <path class="cls-26"
          d="M1608.82,1000.36V1114c0,6.4,1,11,3,13.68s6,4.87,11.92,6.43v7.48h-66.58v-7.48q8.88-2.34,11.92-6.31t3-13.8V1000.36l-103-134.92q-16.82-21.93-23.24-27.77a30.92,30.92,0,0,0-16-7.47v-7.48h80.95v7.48q-11,2.81-11,9.1,0,7.71,11,22.64l80.92,110.23,80.71-114q10.3-14.48,10.3-19.61,0-5.83-10.3-8.4v-7.48h75.33v7.48a36.41,36.41,0,0,0-19.62,10.27q-16.83,17.73-21.73,25Z"
          transform="translate(-253.84 -251.23)"/>
    <path class="cls-27"
          d="M560.4,992.27H342V1113.5q0,9.81,2.92,13.78t12,6.31v7.48H290.38v-7.48q9.11-2.33,12-6.31t2.92-13.78V849.79q0-9.81-3-13.9t-11.91-6.19v-7.48H357v7.48Q348.07,832,345,836t-3,13.78V961.91H560.4V849.79q0-9.81-3-13.9t-11.91-6.19v-7.48H612v7.48Q603.14,832,600.11,836t-3,13.78V1113.5q0,9.59,3,13.67t11.91,6.42v7.48H545.45v-7.48q8.87-2.33,11.91-6.31t3-13.78Z"
          transform="translate(-253.84 -251.23)"/>
    <path class="cls-27"
          d="M908.3,1051.6H737.76l-28,60.5q-4,8.64-4,12.15,0,7,13.82,9.34v7.48H648.46v-7.48q9.57-1.63,14.6-7t13.19-23.36l116.8-252q4.2-9.11,4.2-12.38,0-6.07-11.45-9.11v-7.48h77.55v7.48q-11.45,3.74-11.44,9.81,0,2.58,4.2,11.68L968,1094.12q12.38,26.85,16.35,31.53t17.29,7.94v7.48H926v-7.48q13.59-1.86,13.59-10.28,0-3.74-5.14-14.48Zm-13.47-30.36L823,863.69l-71.72,157.55Z"
          transform="translate(-253.84 -251.23)"/>
    <path class="cls-27"
          d="M1049.75,1113.5V849.79q0-9.81-3-13.9t-11.92-6.19v-7.48h66.58v7.48q-8.88,2.34-11.92,6.31t-3,13.78V1113.5q0,9.81,2.92,13.78t12,6.31v7.48H1034.8v-7.48q9.12-2.33,12-6.31T1049.75,1113.5Z"
          transform="translate(-253.84 -251.23)"/>
    <path class="cls-27"
          d="M1189.82,997.65v115.89q0,9.56,3,13.64t11.91,6.41v7.48H1138.2v-7.48q8.86-2.33,11.91-6.31t3-13.78V849.79q0-9.81-3-13.9t-11.91-6.19v-7.48h175q36,0,56.88,3.87t36.32,13.44a74.78,74.78,0,0,1,25.69,26.9q11.22,19.41,11.22,43.74,0,36.5-24.18,59.53T1352.63,996l81,125.92q7.23,11.65,21,11.66v7.48h-73.8v-7.48q11.44-1.86,11.44-6.53,0-2.32-8.17-15.16l-72.44-114.25Zm0-30.37H1319q26.4,0,39.83-2.22a71,71,0,0,0,23.71-8.06q24-14,24-47,0-33.16-24.75-47.18a73.51,73.51,0,0,0-24.41-8.18q-13.44-2.1-41.7-2.1h-125.9Z"
          transform="translate(-253.84 -251.23)"/>
    <path class="cls-27"
          d="M1608.32,999.86v113.62c0,6.4,1,11,3,13.68s6,4.87,11.92,6.43v7.48h-66.58v-7.48q8.88-2.34,11.92-6.31t3-13.8V999.86l-103-134.92q-16.82-21.93-23.24-27.77a30.92,30.92,0,0,0-16-7.47v-7.48h80.95v7.48q-11,2.81-11,9.1,0,7.71,11,22.64l80.92,110.23,80.71-114q10.3-14.48,10.3-19.61,0-5.83-10.3-8.4v-7.48h75.33v7.48A36.41,36.41,0,0,0,1727.68,840q-16.83,17.73-21.73,25Z"
          transform="translate(-253.84 -251.23)"/>
    <path class="cls-28"
          d="M559.9,991.77H341.5V1113q0,9.81,2.92,13.78t12,6.31v7.48H289.88v-7.48q9.11-2.33,12-6.31t2.92-13.78V849.29q0-9.81-3-13.9t-11.91-6.19v-7.48h66.57v7.48q-8.88,2.34-11.92,6.31t-3,13.78V961.41H559.9V849.29q0-9.81-3-13.9T545,829.2v-7.48h66.57v7.48q-8.88,2.34-11.91,6.31t-3,13.78V1113q0,9.59,3,13.67t11.91,6.42v7.48H545v-7.48q8.87-2.33,11.91-6.31t3-13.78Z"
          transform="translate(-253.84 -251.23)"/>
    <path class="cls-28"
          d="M907.8,1051.1H737.26l-28,60.5q-4,8.64-4,12.15,0,7,13.82,9.34v7.48H648v-7.48q9.57-1.63,14.6-7t13.19-23.36l116.8-252q4.2-9.11,4.2-12.38,0-6.07-11.45-9.11v-7.48h77.55v7.48q-11.45,3.74-11.44,9.81,0,2.58,4.2,11.68L967.5,1093.62q12.38,26.85,16.35,31.53t17.29,7.94v7.48H925.45v-7.48q13.59-1.86,13.59-10.28,0-3.74-5.14-14.48Zm-13.47-30.36L822.54,863.19l-71.72,157.55Z"
          transform="translate(-253.84 -251.23)"/>
    <path class="cls-28"
          d="M1049.25,1113V849.29q0-9.81-3-13.9t-11.92-6.19v-7.48h66.58v7.48q-8.88,2.34-11.92,6.31t-3,13.78V1113q0,9.81,2.92,13.78t12,6.31v7.48H1034.3v-7.48q9.12-2.33,12-6.31T1049.25,1113Z"
          transform="translate(-253.84 -251.23)"/>
    <path class="cls-28"
          d="M1189.32,997.15V1113q0,9.56,3,13.64t11.91,6.41v7.48H1137.7v-7.48q8.86-2.33,11.91-6.31t3-13.78V849.29q0-9.81-3-13.9t-11.91-6.19v-7.48h175q36,0,56.88,3.87T1405.85,839a74.78,74.78,0,0,1,25.69,26.9q11.22,19.41,11.22,43.74,0,36.5-24.18,59.53t-66.45,26.31l81,125.92q7.23,11.65,21,11.66v7.48h-73.8v-7.48q11.44-1.86,11.44-6.53,0-2.32-8.17-15.16l-72.44-114.25Zm0-30.37h129.17q26.4,0,39.83-2.22A71,71,0,0,0,1382,956.5q24-14,24-47,0-33.16-24.75-47.18a73.51,73.51,0,0,0-24.41-8.18q-13.44-2.1-41.7-2.1h-125.9Z"
          transform="translate(-253.84 -251.23)"/>
    <path class="cls-28"
          d="M1607.82,999.36V1113c0,6.4,1,11,3,13.68s6,4.87,11.92,6.43v7.48h-66.58v-7.48q8.88-2.34,11.92-6.31t3-13.8V999.36l-103-134.92q-16.82-21.93-23.24-27.77a30.92,30.92,0,0,0-16-7.47v-7.48h80.95v7.48q-11,2.81-11,9.1,0,7.71,11,22.64l80.92,110.23,80.71-114q10.3-14.48,10.3-19.61,0-5.83-10.3-8.4v-7.48h75.33v7.48a36.41,36.41,0,0,0-19.62,10.27q-16.83,17.73-21.73,25Z"
          transform="translate(-253.84 -251.23)"/>
    <path class="cls-29"
          d="M559.4,991.27H341V1112.5q0,9.81,2.92,13.78t12,6.31v7.48H289.38v-7.48q9.11-2.33,12-6.31t2.92-13.78V848.79q0-9.81-3-13.9t-11.91-6.19v-7.48H356v7.48Q347.07,831,344,835t-3,13.78V960.91H559.4V848.79q0-9.81-3-13.9t-11.91-6.19v-7.48H611v7.48Q602.14,831,599.11,835t-3,13.78V1112.5q0,9.59,3,13.67t11.91,6.42v7.48H544.45v-7.48q8.87-2.33,11.91-6.31t3-13.78Z"
          transform="translate(-253.84 -251.23)"/>
    <path class="cls-29"
          d="M907.3,1050.6H736.76l-28,60.5q-4,8.64-4,12.15,0,7,13.82,9.34v7.48H647.46v-7.48q9.57-1.63,14.6-7t13.19-23.36l116.8-252q4.2-9.11,4.2-12.38,0-6.07-11.45-9.11v-7.48h77.55v7.48q-11.45,3.74-11.44,9.81,0,2.58,4.2,11.68L967,1093.12q12.38,26.85,16.35,31.53t17.29,7.94v7.48H925v-7.48q13.59-1.86,13.59-10.28,0-3.74-5.14-14.48Zm-13.47-30.36L822,862.69l-71.72,157.55Z"
          transform="translate(-253.84 -251.23)"/>
    <path class="cls-29"
          d="M1048.75,1112.5V848.79q0-9.81-3-13.9t-11.92-6.19v-7.48h66.58v7.48q-8.88,2.34-11.92,6.31t-3,13.78V1112.5q0,9.81,2.92,13.78t12,6.31v7.48H1033.8v-7.48q9.12-2.33,12-6.31T1048.75,1112.5Z"
          transform="translate(-253.84 -251.23)"/>
    <path class="cls-29"
          d="M1188.82,996.65v115.89q0,9.56,3,13.64t11.91,6.41v7.48H1137.2v-7.48q8.86-2.33,11.91-6.31t3-13.78V848.79q0-9.81-3-13.9t-11.91-6.19v-7.48h175q36,0,56.88,3.87t36.32,13.44a74.78,74.78,0,0,1,25.69,26.9q11.22,19.41,11.22,43.74,0,36.5-24.18,59.53T1351.63,995l81,125.92q7.23,11.65,21,11.66v7.48h-73.8v-7.48q11.44-1.86,11.44-6.53,0-2.32-8.17-15.16l-72.44-114.25Zm0-30.37H1318q26.4,0,39.83-2.22a71,71,0,0,0,23.71-8.06q24-14,24-47,0-33.16-24.75-47.18a73.51,73.51,0,0,0-24.41-8.18q-13.44-2.1-41.7-2.1h-125.9Z"
          transform="translate(-253.84 -251.23)"/>
    <path class="cls-29"
          d="M1607.32,998.86v113.62c0,6.4,1,11,3,13.68s6,4.87,11.92,6.43v7.48h-66.58v-7.48q8.88-2.34,11.92-6.31t3-13.8V998.86l-103-134.92q-16.82-21.93-23.24-27.77a30.92,30.92,0,0,0-16-7.47v-7.48h80.95v7.48q-11,2.81-11,9.1,0,7.71,11,22.64l80.92,110.23,80.71-114q10.3-14.48,10.3-19.61,0-5.83-10.3-8.4v-7.48h75.33v7.48A36.41,36.41,0,0,0,1726.68,839q-16.83,17.73-21.73,25Z"
          transform="translate(-253.84 -251.23)"/>
    <path class="cls-30"
          d="M558.9,990.77H340.5V1112q0,9.81,2.92,13.78t12,6.31v7.48H288.88v-7.48q9.11-2.33,12-6.31t2.92-13.78V848.29q0-9.81-3-13.9t-11.91-6.19v-7.48h66.57v7.48q-8.88,2.34-11.92,6.31t-3,13.78V960.41H558.9V848.29q0-9.81-3-13.9T544,828.2v-7.48h66.57v7.48q-8.88,2.34-11.91,6.31t-3,13.78V1112q0,9.59,3,13.67t11.91,6.42v7.48H544v-7.48q8.87-2.33,11.91-6.31t3-13.78Z"
          transform="translate(-253.84 -251.23)"/>
    <path class="cls-30"
          d="M906.8,1050.1H736.26l-28,60.5q-4,8.64-4,12.15,0,7,13.82,9.34v7.48H647v-7.48q9.57-1.63,14.6-7t13.19-23.36l116.8-252q4.2-9.11,4.2-12.38,0-6.07-11.45-9.11v-7.48h77.55v7.48q-11.45,3.74-11.44,9.81,0,2.58,4.2,11.68L966.5,1092.62q12.38,26.85,16.35,31.53t17.29,7.94v7.48H924.45v-7.48q13.59-1.86,13.59-10.28,0-3.74-5.14-14.48Zm-13.47-30.36L821.54,862.19l-71.72,157.55Z"
          transform="translate(-253.84 -251.23)"/>
    <path class="cls-30"
          d="M1048.25,1112V848.29q0-9.81-3-13.9t-11.92-6.19v-7.48h66.58v7.48q-8.88,2.34-11.92,6.31t-3,13.78V1112q0,9.81,2.92,13.78t12,6.31v7.48H1033.3v-7.48q9.12-2.33,12-6.31T1048.25,1112Z"
          transform="translate(-253.84 -251.23)"/>
    <path class="cls-30"
          d="M1188.32,996.15V1112q0,9.56,3,13.64t11.91,6.41v7.48H1136.7v-7.48q8.86-2.33,11.91-6.31t3-13.78V848.29q0-9.81-3-13.9t-11.91-6.19v-7.48h175q36,0,56.88,3.87T1404.85,838a74.78,74.78,0,0,1,25.69,26.9q11.22,19.41,11.22,43.74,0,36.5-24.18,59.53t-66.45,26.31l81,125.92q7.23,11.65,21,11.66v7.48h-73.8v-7.48q11.44-1.86,11.44-6.53,0-2.32-8.17-15.16l-72.44-114.25Zm0-30.37h129.17q26.4,0,39.83-2.22A71,71,0,0,0,1381,955.5q24-14,24-47,0-33.16-24.75-47.18a73.51,73.51,0,0,0-24.41-8.18q-13.44-2.1-41.7-2.1h-125.9Z"
          transform="translate(-253.84 -251.23)"/>
    <path class="cls-30"
          d="M1606.82,998.36V1112c0,6.4,1,11,3,13.68s6,4.87,11.92,6.43v7.48h-66.58v-7.48q8.88-2.34,11.92-6.31t3-13.8V998.36l-103-134.92q-16.82-21.93-23.24-27.77a30.92,30.92,0,0,0-16-7.47v-7.48h80.95v7.48q-11,2.81-11,9.1,0,7.71,11,22.64l80.92,110.23,80.71-114q10.3-14.48,10.3-19.61,0-5.83-10.3-8.4v-7.48h75.33v7.48a36.41,36.41,0,0,0-19.62,10.27q-16.83,17.73-21.73,25Z"
          transform="translate(-253.84 -251.23)"/>
    <path class="cls-31"
          d="M558.9,990.77H340.5V1112q0,9.81,2.92,13.78t12,6.31v7.48H288.88v-7.48q9.11-2.33,12-6.31t2.92-13.78V848.29q0-9.81-3-13.9t-11.91-6.19v-7.48h66.57v7.48q-8.88,2.34-11.92,6.31t-3,13.78V960.41H558.9V848.29q0-9.81-3-13.9T544,828.2v-7.48h66.57v7.48q-8.88,2.34-11.91,6.31t-3,13.78V1112q0,9.59,3,13.67t11.91,6.42v7.48H544v-7.48q8.87-2.33,11.91-6.31t3-13.78Z"
          transform="translate(-253.84 -251.23)"/>
    <path class="cls-31"
          d="M906.8,1050.1H736.26l-28,60.5q-4,8.64-4,12.15,0,7,13.82,9.34v7.48H647v-7.48q9.57-1.63,14.6-7t13.19-23.36l116.8-252q4.2-9.11,4.2-12.38,0-6.07-11.45-9.11v-7.48h77.55v7.48q-11.45,3.74-11.44,9.81,0,2.58,4.2,11.68L966.5,1092.62q12.38,26.85,16.35,31.53t17.29,7.94v7.48H924.45v-7.48q13.59-1.86,13.59-10.28,0-3.74-5.14-14.48Zm-13.47-30.36L821.54,862.19l-71.72,157.55Z"
          transform="translate(-253.84 -251.23)"/>
    <path class="cls-31"
          d="M1048.25,1112V848.29q0-9.81-3-13.9t-11.92-6.19v-7.48h66.58v7.48q-8.88,2.34-11.92,6.31t-3,13.78V1112q0,9.81,2.92,13.78t12,6.31v7.48H1033.3v-7.48q9.12-2.33,12-6.31T1048.25,1112Z"
          transform="translate(-253.84 -251.23)"/>
    <path class="cls-31"
          d="M1188.32,996.15V1112q0,9.56,3,13.64t11.91,6.41v7.48H1136.7v-7.48q8.86-2.33,11.91-6.31t3-13.78V848.29q0-9.81-3-13.9t-11.91-6.19v-7.48h175q36,0,56.88,3.87T1404.85,838a74.78,74.78,0,0,1,25.69,26.9q11.22,19.41,11.22,43.74,0,36.5-24.18,59.53t-66.45,26.31l81,125.92q7.23,11.65,21,11.66v7.48h-73.8v-7.48q11.44-1.86,11.44-6.53,0-2.32-8.17-15.16l-72.44-114.25Zm0-30.37h129.17q26.4,0,39.83-2.22A71,71,0,0,0,1381,955.5q24-14,24-47,0-33.16-24.75-47.18a73.51,73.51,0,0,0-24.41-8.18q-13.44-2.1-41.7-2.1h-125.9Z"
          transform="translate(-253.84 -251.23)"/>
    <path class="cls-31"
          d="M1606.82,998.36V1112c0,6.4,1,11,3,13.68s6,4.87,11.92,6.43v7.48h-66.58v-7.48q8.88-2.34,11.92-6.31t3-13.8V998.36l-103-134.92q-16.82-21.93-23.24-27.77a30.92,30.92,0,0,0-16-7.47v-7.48h80.95v7.48q-11,2.81-11,9.1,0,7.71,11,22.64l80.92,110.23,80.71-114q10.3-14.48,10.3-19.61,0-5.83-10.3-8.4v-7.48h75.33v7.48a36.41,36.41,0,0,0-19.62,10.27q-16.83,17.73-21.73,25Z"
          transform="translate(-253.84 -251.23)"/>
</svg>
