<svg id="Ebene_1" data-name="Ebene 1" xmlns="http://www.w3.org/2000/svg" xmlns:xlink="http://www.w3.org/1999/xlink" viewBox="0 0 1466.87 898.36"><defs><style>.cls-1{fill:url(#Unbenannter_Verlauf);}.cls-2{fill:url(#Unbenannter_Verlauf_2);}.cls-3{fill:url(#Unbenannter_Verlauf_3);}.cls-4{fill:url(#Unbenannter_Verlauf_4);}.cls-5{fill:url(#Unbenannter_Verlauf_5);}.cls-6{fill:url(#Unbenannter_Verlauf_6);}.cls-7{fill:url(#Unbenannter_Verlauf_7);}.cls-8{fill:url(#Unbenannter_Verlauf_8);}.cls-9{fill:url(#Unbenannter_Verlauf_9);}.cls-10{fill:url(#Unbenannter_Verlauf_10);}.cls-11{fill:url(#Unbenannter_Verlauf_11);}.cls-12{fill:url(#Unbenannter_Verlauf_12);}.cls-13{fill:url(#Unbenannter_Verlauf_13);}.cls-14{fill:url(#Unbenannter_Verlauf_14);}.cls-15{fill:url(#Unbenannter_Verlauf_15);}.cls-16{fill:url(#Unbenannter_Verlauf_16);}.cls-17{fill:url(#Unbenannter_Verlauf_17);}.cls-18{fill:url(#Unbenannter_Verlauf_18);}.cls-19{fill:url(#Unbenannter_Verlauf_19);}.cls-20{fill:url(#Unbenannter_Verlauf_20);}.cls-21{fill:url(#Unbenannter_Verlauf_21);}.cls-22{fill:url(#Unbenannter_Verlauf_22);}.cls-23{fill:url(#Unbenannter_Verlauf_23);}.cls-24{fill:url(#Unbenannter_Verlauf_24);}.cls-25{fill:url(#Unbenannter_Verlauf_25);}.cls-26{fill:url(#Unbenannter_Verlauf_26);}.cls-27{fill:url(#Unbenannter_Verlauf_27);}.cls-28{fill:url(#Unbenannter_Verlauf_28);}.cls-29{fill:url(#Unbenannter_Verlauf_29);}.cls-30{fill:url(#Unbenannter_Verlauf_30);}.cls-31{fill:url(#Unbenannter_Verlauf_31);}.cls-32{fill:url(#Unbenannter_Verlauf_32);}.cls-33{fill:url(#Unbenannter_Verlauf_33);}.cls-34{fill:url(#Unbenannter_Verlauf_34);}.cls-35{fill:url(#Unbenannter_Verlauf_35);}.cls-36{fill:url(#Unbenannter_Verlauf_36);}.cls-37{fill:url(#Unbenannter_Verlauf_37);}.cls-38{fill:url(#Unbenannter_Verlauf_38);}.cls-39{fill:url(#Unbenannter_Verlauf_39);}.cls-40{fill:url(#Unbenannter_Verlauf_40);}.cls-41{fill:url(#Unbenannter_Verlauf_41);}.cls-42{fill:url(#Unbenannter_Verlauf_42);}.cls-43{fill:url(#Unbenannter_Verlauf_43);}.cls-44{fill:url(#Unbenannter_Verlauf_44);}.cls-45{fill:url(#Unbenannter_Verlauf_45);}.cls-46{fill:url(#Unbenannter_Verlauf_46);}.cls-47{fill:url(#Unbenannter_Verlauf_47);}.cls-48{fill:url(#Unbenannter_Verlauf_48);}.cls-49{fill:url(#Unbenannter_Verlauf_49);}.cls-50{fill:url(#Unbenannter_Verlauf_50);}.cls-51{fill:url(#Unbenannter_Verlauf_51);}.cls-52{fill:url(#Unbenannter_Verlauf_52);}.cls-53{fill:url(#Unbenannter_Verlauf_53);}.cls-54{fill:url(#Unbenannter_Verlauf_54);}.cls-55{fill:url(#Unbenannter_Verlauf_55);}.cls-56{fill:url(#Unbenannter_Verlauf_56);}.cls-57{fill:url(#Unbenannter_Verlauf_57);}.cls-58{fill:url(#Unbenannter_Verlauf_58);}.cls-59{fill:url(#Unbenannter_Verlauf_59);}.cls-60{fill:url(#Unbenannter_Verlauf_60);}.cls-61{fill:url(#Unbenannter_Verlauf_61);}.cls-62{fill:url(#Unbenannter_Verlauf_62);}.cls-63{fill:url(#Unbenannter_Verlauf_63);}.cls-64{fill:url(#Unbenannter_Verlauf_64);}.cls-65{fill:url(#Unbenannter_Verlauf_65);}.cls-66{fill:url(#Unbenannter_Verlauf_66);}.cls-67{fill:url(#Unbenannter_Verlauf_67);}.cls-68{fill:url(#Unbenannter_Verlauf_68);}.cls-69{fill:url(#Unbenannter_Verlauf_69);}.cls-70{fill:url(#Unbenannter_Verlauf_70);}.cls-71{fill:url(#Unbenannter_Verlauf_71);}.cls-72{fill:url(#Unbenannter_Verlauf_72);}.cls-73{fill:url(#Unbenannter_Verlauf_73);}.cls-74{fill:url(#Unbenannter_Verlauf_74);}.cls-75{fill:url(#Unbenannter_Verlauf_75);}.cls-76{fill:url(#Unbenannter_Verlauf_76);}.cls-77{fill:url(#Unbenannter_Verlauf_77);}.cls-78{fill:url(#Unbenannter_Verlauf_78);}.cls-79{fill:url(#Unbenannter_Verlauf_79);}.cls-80{fill:url(#Unbenannter_Verlauf_80);}.cls-81{fill:url(#Unbenannter_Verlauf_81);}.cls-82{fill:url(#Unbenannter_Verlauf_82);}.cls-83{fill:url(#Unbenannter_Verlauf_83);}.cls-84{fill:url(#Unbenannter_Verlauf_84);}.cls-85{fill:url(#Unbenannter_Verlauf_85);}.cls-86{fill:url(#Unbenannter_Verlauf_86);}.cls-87{fill:url(#Unbenannter_Verlauf_87);}.cls-88{fill:url(#Unbenannter_Verlauf_88);}.cls-89{fill:url(#Unbenannter_Verlauf_89);}.cls-90{fill:url(#Unbenannter_Verlauf_90);}.cls-91{fill:url(#Unbenannter_Verlauf_91);}.cls-92{fill:url(#Unbenannter_Verlauf_92);}.cls-93{fill:url(#Unbenannter_Verlauf_93);}.cls-94{fill:url(#Unbenannter_Verlauf_94);}.cls-95{fill:url(#Unbenannter_Verlauf_95);}.cls-96{fill:url(#Unbenannter_Verlauf_96);}.cls-97{fill:url(#Unbenannter_Verlauf_97);}.cls-98{fill:url(#Unbenannter_Verlauf_98);}.cls-99{fill:url(#Unbenannter_Verlauf_99);}.cls-100{fill:url(#Unbenannter_Verlauf_100);}.cls-101{fill:url(#Unbenannter_Verlauf_101);}.cls-102{fill:url(#Unbenannter_Verlauf_102);}.cls-103{fill:url(#Unbenannter_Verlauf_103);}.cls-104{fill:url(#Unbenannter_Verlauf_104);}.cls-105{fill:url(#Unbenannter_Verlauf_105);}.cls-106{fill:url(#Unbenannter_Verlauf_106);}.cls-107{fill:url(#Unbenannter_Verlauf_107);}.cls-108{fill:url(#Unbenannter_Verlauf_108);}.cls-109{fill:url(#Unbenannter_Verlauf_109);}.cls-110{fill:url(#Unbenannter_Verlauf_110);}.cls-111{fill:url(#Unbenannter_Verlauf_111);}.cls-112{fill:url(#Unbenannter_Verlauf_112);}.cls-113{fill:url(#Unbenannter_Verlauf_113);}.cls-114{fill:url(#Unbenannter_Verlauf_114);}.cls-115{fill:url(#Unbenannter_Verlauf_115);}.cls-116{fill:url(#Unbenannter_Verlauf_116);}</style><linearGradient id="Unbenannter_Verlauf" x1="819.59" y1="520.64" x2="1022.45" y2="520.64" gradientTransform="matrix(1, 0, 0, -1, -253.84, 754.66)" gradientUnits="userSpaceOnUse"><stop offset="0" stop-color="#ffd048"/><stop offset="0.32" stop-color="#fcf18d"/><stop offset="0.68" stop-color="#ce9b16"/><stop offset="1" stop-color="#dd9f17"/><stop offset="1" stop-color="#ffe360"/></linearGradient><linearGradient id="Unbenannter_Verlauf_2" x1="823.88" y1="517.75" x2="1009.52" y2="517.75" gradientTransform="matrix(1, 0, 0, -1, -253.84, 754.66)" gradientUnits="userSpaceOnUse"><stop offset="0" stop-color="#ffe360"/><stop offset="0" stop-color="#dd9f17"/><stop offset="0.32" stop-color="#ce9b16"/><stop offset="0.68" stop-color="#fcf18d"/><stop offset="1" stop-color="#ffd048"/></linearGradient><linearGradient id="Unbenannter_Verlauf_3" x1="977.55" y1="520.64" x2="1180.41" y2="520.64" xlink:href="#Unbenannter_Verlauf"/><linearGradient id="Unbenannter_Verlauf_4" x1="981.84" y1="517.75" x2="1167.48" y2="517.75" xlink:href="#Unbenannter_Verlauf_2"/><linearGradient id="Unbenannter_Verlauf_5" x1="897.69" y1="520.64" x2="1100.54" y2="520.64" xlink:href="#Unbenannter_Verlauf"/><linearGradient id="Unbenannter_Verlauf_6" x1="901.97" y1="517.75" x2="1087.6" y2="517.75" xlink:href="#Unbenannter_Verlauf_2"/><linearGradient id="Unbenannter_Verlauf_7" x1="449.73" y1="-133.68" x2="449.73" y2="185.17" gradientTransform="matrix(1, 0, 0, -1, -243.84, 764.66)" xlink:href="#Unbenannter_Verlauf"/><linearGradient id="Unbenannter_Verlauf_8" x1="823.57" y1="-133.68" x2="823.57" y2="185.13" gradientTransform="matrix(1, 0, 0, -1, -243.84, 764.66)" xlink:href="#Unbenannter_Verlauf"/><linearGradient id="Unbenannter_Verlauf_9" x1="1066.6" y1="-133.68" x2="1066.6" y2="185.17" gradientTransform="matrix(1, 0, 0, -1, -243.84, 764.66)" xlink:href="#Unbenannter_Verlauf"/><linearGradient id="Unbenannter_Verlauf_10" x1="1294.91" y1="-133.65" x2="1294.91" y2="185.17" gradientTransform="matrix(1, 0, 0, -1, -243.84, 764.66)" xlink:href="#Unbenannter_Verlauf"/><linearGradient id="Unbenannter_Verlauf_11" x1="1586.8" y1="-133.7" x2="1586.8" y2="185.21" gradientTransform="matrix(1, 0, 0, -1, -243.84, 764.66)" xlink:href="#Unbenannter_Verlauf"/><linearGradient id="Unbenannter_Verlauf_12" x1="449.7" y1="-133.68" x2="449.7" y2="185.17" gradientTransform="matrix(1, 0, 0, -1, -244.34, 764.16)" xlink:href="#Unbenannter_Verlauf"/><linearGradient id="Unbenannter_Verlauf_13" x1="823.55" y1="-133.68" x2="823.55" y2="185.13" gradientTransform="matrix(1, 0, 0, -1, -244.34, 764.16)" xlink:href="#Unbenannter_Verlauf"/><linearGradient id="Unbenannter_Verlauf_14" x1="1066.6" y1="-133.68" x2="1066.6" y2="185.17" gradientTransform="matrix(1, 0, 0, -1, -244.34, 764.16)" xlink:href="#Unbenannter_Verlauf"/><linearGradient id="Unbenannter_Verlauf_15" x1="1294.91" y1="-133.68" x2="1294.91" y2="185.17" gradientTransform="matrix(1, 0, 0, -1, -244.34, 764.16)" xlink:href="#Unbenannter_Verlauf"/><linearGradient id="Unbenannter_Verlauf_16" x1="1586.8" y1="-133.68" x2="1586.8" y2="185.21" gradientTransform="matrix(1, 0, 0, -1, -244.34, 764.16)" xlink:href="#Unbenannter_Verlauf"/><linearGradient id="Unbenannter_Verlauf_17" x1="449.73" y1="-133.68" x2="449.73" y2="185.17" gradientTransform="matrix(1, 0, 0, -1, -244.84, 763.66)" xlink:href="#Unbenannter_Verlauf"/><linearGradient id="Unbenannter_Verlauf_18" x1="823.57" y1="-133.68" x2="823.57" y2="185.13" gradientTransform="matrix(1, 0, 0, -1, -244.84, 763.66)" xlink:href="#Unbenannter_Verlauf"/><linearGradient id="Unbenannter_Verlauf_19" x1="1066.6" y1="-133.68" x2="1066.6" y2="185.17" gradientTransform="matrix(1, 0, 0, -1, -244.84, 763.66)" xlink:href="#Unbenannter_Verlauf"/><linearGradient id="Unbenannter_Verlauf_20" x1="1294.91" y1="-133.65" x2="1294.91" y2="185.17" gradientTransform="matrix(1, 0, 0, -1, -244.84, 763.66)" xlink:href="#Unbenannter_Verlauf"/><linearGradient id="Unbenannter_Verlauf_21" x1="1586.8" y1="-133.7" x2="1586.8" y2="185.21" gradientTransform="matrix(1, 0, 0, -1, -244.84, 763.66)" xlink:href="#Unbenannter_Verlauf"/><linearGradient id="Unbenannter_Verlauf_22" x1="449.7" y1="-133.68" x2="449.7" y2="185.17" gradientTransform="matrix(1, 0, 0, -1, -245.34, 763.16)" xlink:href="#Unbenannter_Verlauf"/><linearGradient id="Unbenannter_Verlauf_23" x1="823.55" y1="-133.68" x2="823.55" y2="185.13" gradientTransform="matrix(1, 0, 0, -1, -245.34, 763.16)" xlink:href="#Unbenannter_Verlauf"/><linearGradient id="Unbenannter_Verlauf_24" x1="1066.6" y1="-133.68" x2="1066.6" y2="185.17" gradientTransform="matrix(1, 0, 0, -1, -245.34, 763.16)" xlink:href="#Unbenannter_Verlauf"/><linearGradient id="Unbenannter_Verlauf_25" x1="1294.91" y1="-133.68" x2="1294.91" y2="185.17" gradientTransform="matrix(1, 0, 0, -1, -245.34, 763.16)" xlink:href="#Unbenannter_Verlauf"/><linearGradient id="Unbenannter_Verlauf_26" x1="1586.8" y1="-133.68" x2="1586.8" y2="185.21" gradientTransform="matrix(1, 0, 0, -1, -245.34, 763.16)" xlink:href="#Unbenannter_Verlauf"/><linearGradient id="Unbenannter_Verlauf_27" x1="449.73" y1="-133.68" x2="449.73" y2="185.17" gradientTransform="matrix(1, 0, 0, -1, -245.84, 762.66)" xlink:href="#Unbenannter_Verlauf"/><linearGradient id="Unbenannter_Verlauf_28" x1="823.57" y1="-133.68" x2="823.57" y2="185.13" gradientTransform="matrix(1, 0, 0, -1, -245.84, 762.66)" xlink:href="#Unbenannter_Verlauf"/><linearGradient id="Unbenannter_Verlauf_29" x1="1066.6" y1="-133.68" x2="1066.6" y2="185.17" gradientTransform="matrix(1, 0, 0, -1, -245.84, 762.66)" xlink:href="#Unbenannter_Verlauf"/><linearGradient id="Unbenannter_Verlauf_30" x1="1294.91" y1="-133.65" x2="1294.91" y2="185.17" gradientTransform="matrix(1, 0, 0, -1, -245.84, 762.66)" xlink:href="#Unbenannter_Verlauf"/><linearGradient id="Unbenannter_Verlauf_31" x1="1586.8" y1="-133.7" x2="1586.8" y2="185.21" gradientTransform="matrix(1, 0, 0, -1, -245.84, 762.66)" xlink:href="#Unbenannter_Verlauf"/><linearGradient id="Unbenannter_Verlauf_32" x1="449.7" y1="-133.68" x2="449.7" y2="185.17" gradientTransform="matrix(1, 0, 0, -1, -246.34, 762.16)" xlink:href="#Unbenannter_Verlauf"/><linearGradient id="Unbenannter_Verlauf_33" x1="823.55" y1="-133.68" x2="823.55" y2="185.13" gradientTransform="matrix(1, 0, 0, -1, -246.34, 762.16)" xlink:href="#Unbenannter_Verlauf"/><linearGradient id="Unbenannter_Verlauf_34" x1="1066.6" y1="-133.68" x2="1066.6" y2="185.17" gradientTransform="matrix(1, 0, 0, -1, -246.34, 762.16)" xlink:href="#Unbenannter_Verlauf"/><linearGradient id="Unbenannter_Verlauf_35" x1="1294.91" y1="-133.68" x2="1294.91" y2="185.17" gradientTransform="matrix(1, 0, 0, -1, -246.34, 762.16)" xlink:href="#Unbenannter_Verlauf"/><linearGradient id="Unbenannter_Verlauf_36" x1="1586.8" y1="-133.68" x2="1586.8" y2="185.21" gradientTransform="matrix(1, 0, 0, -1, -246.34, 762.16)" xlink:href="#Unbenannter_Verlauf"/><linearGradient id="Unbenannter_Verlauf_37" x1="449.73" y1="-133.68" x2="449.73" y2="185.17" gradientTransform="matrix(1, 0, 0, -1, -246.84, 761.66)" xlink:href="#Unbenannter_Verlauf"/><linearGradient id="Unbenannter_Verlauf_38" x1="823.57" y1="-133.68" x2="823.57" y2="185.13" gradientTransform="matrix(1, 0, 0, -1, -246.84, 761.66)" xlink:href="#Unbenannter_Verlauf"/><linearGradient id="Unbenannter_Verlauf_39" x1="1066.6" y1="-133.68" x2="1066.6" y2="185.17" gradientTransform="matrix(1, 0, 0, -1, -246.84, 761.66)" xlink:href="#Unbenannter_Verlauf"/><linearGradient id="Unbenannter_Verlauf_40" x1="1294.91" y1="-133.65" x2="1294.91" y2="185.17" gradientTransform="matrix(1, 0, 0, -1, -246.84, 761.66)" xlink:href="#Unbenannter_Verlauf"/><linearGradient id="Unbenannter_Verlauf_41" x1="1586.8" y1="-133.7" x2="1586.8" y2="185.21" gradientTransform="matrix(1, 0, 0, -1, -246.84, 761.66)" xlink:href="#Unbenannter_Verlauf"/><linearGradient id="Unbenannter_Verlauf_42" x1="449.7" y1="-133.68" x2="449.7" y2="185.17" gradientTransform="matrix(1, 0, 0, -1, -247.34, 761.16)" xlink:href="#Unbenannter_Verlauf"/><linearGradient id="Unbenannter_Verlauf_43" x1="823.55" y1="-133.68" x2="823.55" y2="185.13" gradientTransform="matrix(1, 0, 0, -1, -247.34, 761.16)" xlink:href="#Unbenannter_Verlauf"/><linearGradient id="Unbenannter_Verlauf_44" x1="1066.6" y1="-133.68" x2="1066.6" y2="185.17" gradientTransform="matrix(1, 0, 0, -1, -247.34, 761.16)" xlink:href="#Unbenannter_Verlauf"/><linearGradient id="Unbenannter_Verlauf_45" x1="1294.91" y1="-133.68" x2="1294.91" y2="185.17" gradientTransform="matrix(1, 0, 0, -1, -247.34, 761.16)" xlink:href="#Unbenannter_Verlauf"/><linearGradient id="Unbenannter_Verlauf_46" x1="1586.8" y1="-133.68" x2="1586.8" y2="185.21" gradientTransform="matrix(1, 0, 0, -1, -247.34, 761.16)" xlink:href="#Unbenannter_Verlauf"/><linearGradient id="Unbenannter_Verlauf_47" x1="449.73" y1="-133.68" x2="449.73" y2="185.17" gradientTransform="matrix(1, 0, 0, -1, -247.84, 760.66)" xlink:href="#Unbenannter_Verlauf"/><linearGradient id="Unbenannter_Verlauf_48" x1="823.57" y1="-133.68" x2="823.57" y2="185.13" gradientTransform="matrix(1, 0, 0, -1, -247.84, 760.66)" xlink:href="#Unbenannter_Verlauf"/><linearGradient id="Unbenannter_Verlauf_49" x1="1066.6" y1="-133.68" x2="1066.6" y2="185.17" gradientTransform="matrix(1, 0, 0, -1, -247.84, 760.66)" xlink:href="#Unbenannter_Verlauf"/><linearGradient id="Unbenannter_Verlauf_50" x1="1294.91" y1="-133.65" x2="1294.91" y2="185.17" gradientTransform="matrix(1, 0, 0, -1, -247.84, 760.66)" xlink:href="#Unbenannter_Verlauf"/><linearGradient id="Unbenannter_Verlauf_51" x1="1586.8" y1="-133.7" x2="1586.8" y2="185.21" gradientTransform="matrix(1, 0, 0, -1, -247.84, 760.66)" xlink:href="#Unbenannter_Verlauf"/><linearGradient id="Unbenannter_Verlauf_52" x1="449.7" y1="-133.68" x2="449.7" y2="185.17" gradientTransform="matrix(1, 0, 0, -1, -248.34, 760.16)" xlink:href="#Unbenannter_Verlauf"/><linearGradient id="Unbenannter_Verlauf_53" x1="823.55" y1="-133.68" x2="823.55" y2="185.13" gradientTransform="matrix(1, 0, 0, -1, -248.34, 760.16)" xlink:href="#Unbenannter_Verlauf"/><linearGradient id="Unbenannter_Verlauf_54" x1="1066.6" y1="-133.68" x2="1066.6" y2="185.17" gradientTransform="matrix(1, 0, 0, -1, -248.34, 760.16)" xlink:href="#Unbenannter_Verlauf"/><linearGradient id="Unbenannter_Verlauf_55" x1="1294.91" y1="-133.68" x2="1294.91" y2="185.17" gradientTransform="matrix(1, 0, 0, -1, -248.34, 760.16)" xlink:href="#Unbenannter_Verlauf"/><linearGradient id="Unbenannter_Verlauf_56" x1="1586.8" y1="-133.68" x2="1586.8" y2="185.21" gradientTransform="matrix(1, 0, 0, -1, -248.34, 760.16)" xlink:href="#Unbenannter_Verlauf"/><linearGradient id="Unbenannter_Verlauf_57" x1="449.73" y1="-133.68" x2="449.73" y2="185.17" gradientTransform="matrix(1, 0, 0, -1, -248.84, 759.66)" xlink:href="#Unbenannter_Verlauf"/><linearGradient id="Unbenannter_Verlauf_58" x1="823.57" y1="-133.68" x2="823.57" y2="185.13" gradientTransform="matrix(1, 0, 0, -1, -248.84, 759.66)" xlink:href="#Unbenannter_Verlauf"/><linearGradient id="Unbenannter_Verlauf_59" x1="1066.6" y1="-133.68" x2="1066.6" y2="185.17" gradientTransform="matrix(1, 0, 0, -1, -248.84, 759.66)" xlink:href="#Unbenannter_Verlauf"/><linearGradient id="Unbenannter_Verlauf_60" x1="1294.91" y1="-133.65" x2="1294.91" y2="185.17" gradientTransform="matrix(1, 0, 0, -1, -248.84, 759.66)" xlink:href="#Unbenannter_Verlauf"/><linearGradient id="Unbenannter_Verlauf_61" x1="1586.8" y1="-133.7" x2="1586.8" y2="185.21" gradientTransform="matrix(1, 0, 0, -1, -248.84, 759.66)" xlink:href="#Unbenannter_Verlauf"/><linearGradient id="Unbenannter_Verlauf_62" x1="449.7" y1="-133.68" x2="449.7" y2="185.17" gradientTransform="matrix(1, 0, 0, -1, -249.34, 759.16)" xlink:href="#Unbenannter_Verlauf"/><linearGradient id="Unbenannter_Verlauf_63" x1="823.55" y1="-133.68" x2="823.55" y2="185.13" gradientTransform="matrix(1, 0, 0, -1, -249.34, 759.16)" xlink:href="#Unbenannter_Verlauf"/><linearGradient id="Unbenannter_Verlauf_64" x1="1066.6" y1="-133.68" x2="1066.6" y2="185.17" gradientTransform="matrix(1, 0, 0, -1, -249.34, 759.16)" xlink:href="#Unbenannter_Verlauf"/><linearGradient id="Unbenannter_Verlauf_65" x1="1294.91" y1="-133.68" x2="1294.91" y2="185.17" gradientTransform="matrix(1, 0, 0, -1, -249.34, 759.16)" xlink:href="#Unbenannter_Verlauf"/><linearGradient id="Unbenannter_Verlauf_66" x1="1586.8" y1="-133.68" x2="1586.8" y2="185.21" gradientTransform="matrix(1, 0, 0, -1, -249.34, 759.16)" xlink:href="#Unbenannter_Verlauf"/><linearGradient id="Unbenannter_Verlauf_67" x1="449.73" y1="-133.68" x2="449.73" y2="185.17" gradientTransform="matrix(1, 0, 0, -1, -249.84, 758.66)" xlink:href="#Unbenannter_Verlauf"/><linearGradient id="Unbenannter_Verlauf_68" x1="823.57" y1="-133.68" x2="823.57" y2="185.13" gradientTransform="matrix(1, 0, 0, -1, -249.84, 758.66)" xlink:href="#Unbenannter_Verlauf"/><linearGradient id="Unbenannter_Verlauf_69" x1="1066.6" y1="-133.68" x2="1066.6" y2="185.17" gradientTransform="matrix(1, 0, 0, -1, -249.84, 758.66)" xlink:href="#Unbenannter_Verlauf"/><linearGradient id="Unbenannter_Verlauf_70" x1="1294.91" y1="-133.65" x2="1294.91" y2="185.17" gradientTransform="matrix(1, 0, 0, -1, -249.84, 758.66)" xlink:href="#Unbenannter_Verlauf"/><linearGradient id="Unbenannter_Verlauf_71" x1="1586.8" y1="-133.7" x2="1586.8" y2="185.21" gradientTransform="matrix(1, 0, 0, -1, -249.84, 758.66)" xlink:href="#Unbenannter_Verlauf"/><linearGradient id="Unbenannter_Verlauf_72" x1="449.7" y1="-133.68" x2="449.7" y2="185.17" gradientTransform="matrix(1, 0, 0, -1, -250.34, 758.16)" xlink:href="#Unbenannter_Verlauf"/><linearGradient id="Unbenannter_Verlauf_73" x1="823.55" y1="-133.68" x2="823.55" y2="185.13" gradientTransform="matrix(1, 0, 0, -1, -250.34, 758.16)" xlink:href="#Unbenannter_Verlauf"/><linearGradient id="Unbenannter_Verlauf_74" x1="1066.6" y1="-133.68" x2="1066.6" y2="185.17" gradientTransform="matrix(1, 0, 0, -1, -250.34, 758.16)" xlink:href="#Unbenannter_Verlauf"/><linearGradient id="Unbenannter_Verlauf_75" x1="1294.91" y1="-133.68" x2="1294.91" y2="185.17" gradientTransform="matrix(1, 0, 0, -1, -250.34, 758.16)" xlink:href="#Unbenannter_Verlauf"/><linearGradient id="Unbenannter_Verlauf_76" x1="1586.8" y1="-133.68" x2="1586.8" y2="185.21" gradientTransform="matrix(1, 0, 0, -1, -250.34, 758.16)" xlink:href="#Unbenannter_Verlauf"/><linearGradient id="Unbenannter_Verlauf_77" x1="449.73" y1="-133.68" x2="449.73" y2="185.17" gradientTransform="matrix(1, 0, 0, -1, -250.84, 757.66)" xlink:href="#Unbenannter_Verlauf"/><linearGradient id="Unbenannter_Verlauf_78" x1="823.57" y1="-133.68" x2="823.57" y2="185.13" gradientTransform="matrix(1, 0, 0, -1, -250.84, 757.66)" xlink:href="#Unbenannter_Verlauf"/><linearGradient id="Unbenannter_Verlauf_79" x1="1066.6" y1="-133.68" x2="1066.6" y2="185.17" gradientTransform="matrix(1, 0, 0, -1, -250.84, 757.66)" xlink:href="#Unbenannter_Verlauf"/><linearGradient id="Unbenannter_Verlauf_80" x1="1294.91" y1="-133.65" x2="1294.91" y2="185.17" gradientTransform="matrix(1, 0, 0, -1, -250.84, 757.66)" xlink:href="#Unbenannter_Verlauf"/><linearGradient id="Unbenannter_Verlauf_81" x1="1586.8" y1="-133.7" x2="1586.8" y2="185.21" gradientTransform="matrix(1, 0, 0, -1, -250.84, 757.66)" xlink:href="#Unbenannter_Verlauf"/><linearGradient id="Unbenannter_Verlauf_82" x1="449.7" y1="-133.68" x2="449.7" y2="185.17" gradientTransform="matrix(1, 0, 0, -1, -251.34, 757.16)" xlink:href="#Unbenannter_Verlauf"/><linearGradient id="Unbenannter_Verlauf_83" x1="823.55" y1="-133.68" x2="823.55" y2="185.13" gradientTransform="matrix(1, 0, 0, -1, -251.34, 757.16)" xlink:href="#Unbenannter_Verlauf"/><linearGradient id="Unbenannter_Verlauf_84" x1="1066.6" y1="-133.68" x2="1066.6" y2="185.17" gradientTransform="matrix(1, 0, 0, -1, -251.34, 757.16)" xlink:href="#Unbenannter_Verlauf"/><linearGradient id="Unbenannter_Verlauf_85" x1="1294.91" y1="-133.68" x2="1294.91" y2="185.17" gradientTransform="matrix(1, 0, 0, -1, -251.34, 757.16)" xlink:href="#Unbenannter_Verlauf"/><linearGradient id="Unbenannter_Verlauf_86" x1="1586.8" y1="-133.68" x2="1586.8" y2="185.21" gradientTransform="matrix(1, 0, 0, -1, -251.34, 757.16)" xlink:href="#Unbenannter_Verlauf"/><linearGradient id="Unbenannter_Verlauf_87" x1="449.73" y1="-133.68" x2="449.73" y2="185.17" gradientTransform="matrix(1, 0, 0, -1, -251.84, 756.66)" xlink:href="#Unbenannter_Verlauf"/><linearGradient id="Unbenannter_Verlauf_88" x1="823.57" y1="-133.68" x2="823.57" y2="185.13" gradientTransform="matrix(1, 0, 0, -1, -251.84, 756.66)" xlink:href="#Unbenannter_Verlauf"/><linearGradient id="Unbenannter_Verlauf_89" x1="1066.6" y1="-133.68" x2="1066.6" y2="185.17" gradientTransform="matrix(1, 0, 0, -1, -251.84, 756.66)" xlink:href="#Unbenannter_Verlauf"/><linearGradient id="Unbenannter_Verlauf_90" x1="1294.91" y1="-133.65" x2="1294.91" y2="185.17" gradientTransform="matrix(1, 0, 0, -1, -251.84, 756.66)" xlink:href="#Unbenannter_Verlauf"/><linearGradient id="Unbenannter_Verlauf_91" x1="1586.8" y1="-133.7" x2="1586.8" y2="185.21" gradientTransform="matrix(1, 0, 0, -1, -251.84, 756.66)" xlink:href="#Unbenannter_Verlauf"/><linearGradient id="Unbenannter_Verlauf_92" x1="449.7" y1="-133.68" x2="449.7" y2="185.17" gradientTransform="matrix(1, 0, 0, -1, -252.34, 756.16)" xlink:href="#Unbenannter_Verlauf"/><linearGradient id="Unbenannter_Verlauf_93" x1="823.55" y1="-133.68" x2="823.55" y2="185.13" gradientTransform="matrix(1, 0, 0, -1, -252.34, 756.16)" xlink:href="#Unbenannter_Verlauf"/><linearGradient id="Unbenannter_Verlauf_94" x1="1066.6" y1="-133.68" x2="1066.6" y2="185.17" gradientTransform="matrix(1, 0, 0, -1, -252.34, 756.16)" xlink:href="#Unbenannter_Verlauf"/><linearGradient id="Unbenannter_Verlauf_95" x1="1294.91" y1="-133.68" x2="1294.91" y2="185.17" gradientTransform="matrix(1, 0, 0, -1, -252.34, 756.16)" xlink:href="#Unbenannter_Verlauf"/><linearGradient id="Unbenannter_Verlauf_96" x1="1586.8" y1="-133.68" x2="1586.8" y2="185.21" gradientTransform="matrix(1, 0, 0, -1, -252.34, 756.16)" xlink:href="#Unbenannter_Verlauf"/><linearGradient id="Unbenannter_Verlauf_97" x1="449.73" y1="-133.68" x2="449.73" y2="185.17" gradientTransform="matrix(1, 0, 0, -1, -252.84, 755.66)" xlink:href="#Unbenannter_Verlauf"/><linearGradient id="Unbenannter_Verlauf_98" x1="823.57" y1="-133.68" x2="823.57" y2="185.13" gradientTransform="matrix(1, 0, 0, -1, -252.84, 755.66)" xlink:href="#Unbenannter_Verlauf"/><linearGradient id="Unbenannter_Verlauf_99" x1="1066.6" y1="-133.68" x2="1066.6" y2="185.17" gradientTransform="matrix(1, 0, 0, -1, -252.84, 755.66)" xlink:href="#Unbenannter_Verlauf"/><linearGradient id="Unbenannter_Verlauf_100" x1="1294.91" y1="-133.65" x2="1294.91" y2="185.17" gradientTransform="matrix(1, 0, 0, -1, -252.84, 755.66)" xlink:href="#Unbenannter_Verlauf"/><linearGradient id="Unbenannter_Verlauf_101" x1="1586.8" y1="-133.7" x2="1586.8" y2="185.21" gradientTransform="matrix(1, 0, 0, -1, -252.84, 755.66)" xlink:href="#Unbenannter_Verlauf"/><linearGradient id="Unbenannter_Verlauf_102" x1="449.7" y1="-133.68" x2="449.7" y2="185.17" gradientTransform="matrix(1, 0, 0, -1, -253.34, 755.16)" xlink:href="#Unbenannter_Verlauf"/><linearGradient id="Unbenannter_Verlauf_103" x1="823.55" y1="-133.68" x2="823.55" y2="185.13" gradientTransform="matrix(1, 0, 0, -1, -253.34, 755.16)" xlink:href="#Unbenannter_Verlauf"/><linearGradient id="Unbenannter_Verlauf_104" x1="1066.6" y1="-133.68" x2="1066.6" y2="185.17" gradientTransform="matrix(1, 0, 0, -1, -253.34, 755.16)" xlink:href="#Unbenannter_Verlauf"/><linearGradient id="Unbenannter_Verlauf_105" x1="1294.91" y1="-133.68" x2="1294.91" y2="185.17" gradientTransform="matrix(1, 0, 0, -1, -253.34, 755.16)" xlink:href="#Unbenannter_Verlauf"/><linearGradient id="Unbenannter_Verlauf_106" x1="1586.8" y1="-133.68" x2="1586.8" y2="185.21" gradientTransform="matrix(1, 0, 0, -1, -253.34, 755.16)" xlink:href="#Unbenannter_Verlauf"/><linearGradient id="Unbenannter_Verlauf_107" x1="449.73" y1="-133.68" x2="449.73" y2="185.17" xlink:href="#Unbenannter_Verlauf"/><linearGradient id="Unbenannter_Verlauf_108" x1="823.57" y1="-133.68" x2="823.57" y2="185.13" xlink:href="#Unbenannter_Verlauf"/><linearGradient id="Unbenannter_Verlauf_109" x1="1066.6" y1="-133.68" x2="1066.6" y2="185.17" xlink:href="#Unbenannter_Verlauf"/><linearGradient id="Unbenannter_Verlauf_110" x1="1294.91" y1="-133.65" x2="1294.91" y2="185.17" xlink:href="#Unbenannter_Verlauf"/><linearGradient id="Unbenannter_Verlauf_111" x1="1586.8" y1="-133.7" x2="1586.8" y2="185.21" xlink:href="#Unbenannter_Verlauf"/><linearGradient id="Unbenannter_Verlauf_112" x1="449.73" y1="-133.68" x2="449.73" y2="185.17" xlink:href="#Unbenannter_Verlauf_2"/><linearGradient id="Unbenannter_Verlauf_113" x1="823.57" y1="-133.68" x2="823.57" y2="185.13" xlink:href="#Unbenannter_Verlauf_2"/><linearGradient id="Unbenannter_Verlauf_114" x1="1066.6" y1="-133.68" x2="1066.6" y2="185.17" xlink:href="#Unbenannter_Verlauf_2"/><linearGradient id="Unbenannter_Verlauf_115" x1="1294.91" y1="-133.65" x2="1294.91" y2="185.17" xlink:href="#Unbenannter_Verlauf_2"/><linearGradient id="Unbenannter_Verlauf_116" x1="1586.8" y1="-133.7" x2="1586.8" y2="185.21" xlink:href="#Unbenannter_Verlauf_2"/></defs><g id="Shapes"><path id="Strand_6" data-name="Strand 6" class="cls-1" d="M768.61,0c-28,53.62-50.07,108.91-68.49,166.51a433.49,433.49,0,0,0-12.53,50.09c-10.43,53.88-13.52,109.22-27.53,162.66-1.22,4.65-2.52,9.3-3.88,13.91-4.45,15-9.9,30.19-19.94,42.24C619.3,455.77,592,464.18,565.75,468Q568,467,570,465.71c21.61-12.86,33.25-38.27,41-62.57,16.88-52.86,23-108.42,32.18-163.15S664.91,130,693,82.15a267.89,267.89,0,0,1,32.84-44.59c8.43-9.28,18.79-21,29.82-29.45A68.37,68.37,0,0,1,768.61,0Z" transform="translate(-35.04 0)"/><path id="Strand_5" data-name="Strand 5" class="cls-2" d="M755.68,8.11c-26,51.08-46.84,103.7-64.33,158.4a433.49,433.49,0,0,0-12.53,50.09c-10.44,53.88-13.52,109.22-27.53,162.66-1.22,4.65-2.51,9.3-3.87,13.91-4.46,15-9.91,30.19-19.94,42.24-14.15,17-35.51,25.66-57.44,30.3,21.61-12.86,33.25-38.27,41-62.57,16.88-52.86,23-108.42,32.18-163.15S664.91,130,693,82.15a267.89,267.89,0,0,1,32.84-44.59C734.29,28.28,744.65,16.61,755.68,8.11Z" transform="translate(-35.04 0)"/><path id="strand_4" data-name="strand 4" class="cls-3" d="M926.57,0c-28,53.62-50.06,108.91-68.49,166.51a433.49,433.49,0,0,0-12.53,50.09C835.11,270.48,832,325.82,818,379.26c-1.22,4.65-2.51,9.3-3.87,13.91-4.46,15-9.91,30.19-19.94,42.24-17,20.36-44.28,28.77-70.5,32.63,1.47-.71,2.91-1.49,4.29-2.33,21.61-12.86,33.25-38.27,41-62.57,16.87-52.86,23-108.42,32.17-163.15S822.86,130,851,82.15A268.45,268.45,0,0,1,883.8,37.56c8.44-9.28,18.79-21,29.82-29.45A69.47,69.47,0,0,1,926.57,0Z" transform="translate(-35.04 0)"/><path id="strand_3" data-name="strand 3" class="cls-4" d="M913.64,8.11c-26,51.08-46.84,103.7-64.33,158.4a433.49,433.49,0,0,0-12.53,50.09c-10.44,53.88-13.52,109.22-27.53,162.66-1.21,4.65-2.51,9.3-3.87,13.91-4.45,15-9.9,30.19-19.94,42.24-14.15,17-35.51,25.66-57.44,30.3,21.61-12.86,33.25-38.27,41-62.57,16.87-52.86,23-108.42,32.17-163.15S822.86,130,851,82.15A268.45,268.45,0,0,1,883.8,37.56C892.26,28.28,902.61,16.61,913.64,8.11Z" transform="translate(-35.04 0)"/><path id="strand_2" data-name="strand 2" class="cls-5" d="M846.7,0c-28,53.62-50.07,108.91-68.49,166.51a433.49,433.49,0,0,0-12.53,50.09c-10.44,53.88-13.52,109.22-27.52,162.66-1.22,4.65-2.52,9.3-3.88,13.91-4.45,15-9.9,30.19-19.94,42.24-16.94,20.36-44.27,28.77-70.49,32.63q2.21-1.07,4.29-2.33c21.61-12.86,33.25-38.27,41-62.57,16.88-52.86,23-108.42,32.18-163.15S743,130,771.11,82.15A267.89,267.89,0,0,1,804,37.56c8.43-9.28,18.79-21,29.81-29.45A69.4,69.4,0,0,1,846.7,0Z" transform="translate(-35.04 0)"/><path id="strand_1" data-name="strand 1" class="cls-6" d="M833.76,8.11c-26,51.08-46.83,103.7-64.32,158.4a433.49,433.49,0,0,0-12.53,50.09c-10.44,53.88-13.52,109.22-27.53,162.66-1.22,4.65-2.51,9.3-3.87,13.91-4.46,15-9.91,30.19-19.94,42.24-14.15,17-35.51,25.66-57.44,30.3,21.61-12.86,33.25-38.27,41-62.57,16.88-52.86,23-108.42,32.18-163.15S743,130,771.1,82.15a267.89,267.89,0,0,1,32.84-44.59C812.38,28.28,822.74,16.61,833.76,8.11Z" transform="translate(-35.04 0)"/></g><path class="cls-7" d="M315.06,749.54H96.66V870.77q0,9.81,2.92,13.78t12,6.31v7.48H45v-7.48q9.1-2.33,12-6.31T60,870.77V607.06q0-9.81-3-13.9T45.05,587v-7.48h66.57V587q-8.88,2.34-11.92,6.31t-3,13.78V719.18H315.06V607.06q0-9.81-3-13.9T300.16,587v-7.48h66.57V587q-8.88,2.34-11.91,6.31t-3,13.78V870.77q0,9.59,3,13.67t11.91,6.42v7.48H300.16v-7.48q8.86-2.33,11.91-6.31t3-13.78Z" transform="translate(-35.04 0)"/><path class="cls-8" d="M663,808.87H492.42l-28,60.5q-4,8.64-4,12.15,0,7,13.82,9.34v7.48H403.16v-7.48q9.57-1.64,14.6-7T431,860.5l116.8-252q4.2-9.11,4.2-12.38Q552,590,540.5,587v-7.48h77.55V587q-11.44,3.74-11.44,9.81,0,2.58,4.2,11.68L722.66,851.39Q735,878.24,739,882.92t17.29,7.94v7.48H680.61v-7.48Q694.2,889,694.2,880.58q0-3.74-5.14-14.48Zm-13.47-30.36L577.7,621,506,778.51Z" transform="translate(-35.04 0)"/><path class="cls-9" d="M804.41,870.77V607.06q0-9.81-3-13.9T789.49,587v-7.48h66.58V587q-8.88,2.34-11.92,6.31t-3,13.78V870.77q0,9.81,2.92,13.78t12,6.31v7.48H789.46v-7.48q9.12-2.33,12-6.31T804.41,870.77Z" transform="translate(-35.04 0)"/><path class="cls-10" d="M944.48,754.92V870.77q0,9.56,3,13.64t11.91,6.41v7.48H892.86v-7.48q8.86-2.33,11.91-6.31t3-13.78V607.06q0-9.81-3-13.9T892.86,587v-7.48h175q36,0,56.88,3.87T1161,596.77a74.77,74.77,0,0,1,25.69,26.9q11.22,19.41,11.22,43.74,0,36.5-24.18,59.53t-66.45,26.31l81,125.92q7.23,11.66,21,11.66v7.48h-73.8v-7.48q11.44-1.86,11.44-6.53,0-2.32-8.17-15.16l-72.44-114.25Zm0-30.37h129.17q26.4,0,39.83-2.22a70.79,70.79,0,0,0,23.68-8.06q24-14,24-47,0-33.16-24.75-47.18a73.57,73.57,0,0,0-24.41-8.18q-13.44-2.1-41.7-2.1H944.4Z" transform="translate(-35.04 0)"/><path class="cls-11" d="M1363,757.13V870.77c0,6.4,1,11,3,13.68s6,4.87,11.92,6.43v7.48h-66.58v-7.48q8.88-2.34,11.92-6.31t3-13.8V757.13l-103-134.92q-16.82-21.93-23.24-27.77a30.9,30.9,0,0,0-16-7.47v-7.48h81V587q-11,2.81-11,9.1,0,7.71,11,22.64l80.92,110.23,80.71-114q10.31-14.48,10.3-19.61,0-5.83-10.3-8.4v-7.48h75.33v7.48a36.38,36.38,0,0,0-19.62,10.27q-16.83,17.73-21.73,25Z" transform="translate(-35.04 0)"/><path class="cls-12" d="M314.56,749H96.16V870.27q0,9.81,2.92,13.78t12,6.31v7.48H44.54v-7.48q9.1-2.33,12-6.31t2.92-13.78V606.56q0-9.81-3-13.9t-11.91-6.19V579h66.61v7.48q-8.93,2.29-12,6.3t-3,13.78V718.68h218.4V606.56q0-9.81-3-13.9t-11.91-6.19V579h66.51v7.48q-8.87,2.29-11.89,6.3t-3,13.78V870.27q0,9.59,3,13.67t11.91,6.42v7.48H299.61v-7.48q8.86-2.33,11.91-6.31t3-13.78Z" transform="translate(-35.04 0)"/><path class="cls-13" d="M662.46,808.37H491.92l-28,60.5q-4,8.64-4,12.15,0,7,13.82,9.34v7.48H402.62v-7.48q9.57-1.64,14.6-7T430.41,860l116.8-252q4.2-9.11,4.2-12.38,0-6.07-11.45-9.11V579h77.55v7.48q-11.44,3.74-11.44,9.81,0,2.58,4.2,11.68L722.16,850.89q12.38,26.85,16.35,31.53t17.29,7.94v7.48H680.16v-7.48q13.59-1.86,13.59-10.28,0-3.74-5.14-14.48ZM649,778,577.16,620.46,505.44,778Z" transform="translate(-35.04 0)"/><path class="cls-14" d="M803.91,870.27V606.56q0-9.81-3-13.9T789,586.47V579h66.58v7.48q-8.88,2.34-11.92,6.31t-3,13.78V870.27q0,9.81,2.92,13.78t12,6.31v7.48H789v-7.48q9.12-2.33,12-6.31T803.91,870.27Z" transform="translate(-35.04 0)"/><path class="cls-15" d="M944,754.42V870.31q0,9.56,3,13.64t11.91,6.41v7.48H892.36v-7.48q8.86-2.33,11.91-6.31t3-13.78V606.56q0-9.81-3-13.9t-11.91-6.19V579h175q36,0,56.88,3.87t36.32,13.44a74.77,74.77,0,0,1,25.69,26.9q11.22,19.41,11.22,43.74,0,36.49-24.18,59.53t-66.5,26.3l81,125.92q7.23,11.65,21,11.66v7.48H1135v-7.48q11.44-1.86,11.44-6.53,0-2.33-8.17-15.16l-72.44-114.25Zm0-30.37h129.18q26.4,0,39.83-2.22a71,71,0,0,0,23.71-8.06q24-14,24-47,0-33.16-24.75-47.18a73.57,73.57,0,0,0-24.41-8.18q-13.44-2.1-41.7-2.1H943.94Z" transform="translate(-35.04 0)"/><path class="cls-16" d="M1362.48,756.63V870.25c0,6.4,1,11,3,13.68s6,4.87,11.92,6.43v7.48h-66.58v-7.48q8.88-2.34,11.92-6.31t3-13.8V756.63l-103-134.92q-16.82-21.93-23.24-27.77a30.9,30.9,0,0,0-16-7.47V579h81v7.48q-11,2.81-11,9.1,0,7.71,11,22.64l80.92,110.23,80.71-114q10.31-14.48,10.3-19.61,0-5.83-10.3-8.4V579h75.33v7.48a36.41,36.41,0,0,0-19.57,10.34q-16.83,17.73-21.73,25Z" transform="translate(-35.04 0)"/><path class="cls-17" d="M314.06,748.54H95.66V869.77q0,9.81,2.92,13.78t12,6.31v7.48H44v-7.48q9.1-2.33,12-6.31T59,869.77V606.06q0-9.81-3-13.9T44.05,586v-7.48h66.57V586q-8.88,2.34-11.92,6.31t-3,13.78V718.18H314.06V606.06q0-9.81-3-13.9T299.16,586v-7.48h66.57V586q-8.88,2.34-11.91,6.31t-3,13.78V869.77q0,9.59,3,13.67t11.91,6.42v7.48H299.16v-7.48q8.86-2.33,11.91-6.31t3-13.78Z" transform="translate(-35.04 0)"/><path class="cls-18" d="M662,807.87H491.42l-28,60.5q-4,8.64-4,12.15,0,7,13.82,9.34v7.48H402.16v-7.48q9.57-1.64,14.6-7T430,859.5l116.8-252q4.2-9.11,4.2-12.38Q551,589,539.5,586v-7.48h77.55V586q-11.44,3.74-11.44,9.81,0,2.58,4.2,11.68L721.66,850.39Q734,877.24,738,881.92t17.29,7.94v7.48H679.61v-7.48Q693.2,888,693.2,879.58q0-3.74-5.14-14.48Zm-13.47-30.36L576.7,620,505,777.51Z" transform="translate(-35.04 0)"/><path class="cls-19" d="M803.41,869.77V606.06q0-9.81-3-13.9T788.49,586v-7.48h66.58V586q-8.88,2.34-11.92,6.31t-3,13.78V869.77q0,9.81,2.92,13.78t12,6.31v7.48H788.46v-7.48q9.12-2.33,12-6.31T803.41,869.77Z" transform="translate(-35.04 0)"/><path class="cls-20" d="M943.48,753.92V869.77q0,9.56,3,13.64t11.91,6.41v7.48H891.86v-7.48q8.86-2.33,11.91-6.31t3-13.78V606.06q0-9.81-3-13.9T891.86,586v-7.48h175q36,0,56.88,3.87T1160,595.77a74.77,74.77,0,0,1,25.69,26.9q11.22,19.41,11.22,43.74,0,36.5-24.18,59.53t-66.45,26.31l81,125.92q7.23,11.66,21,11.66v7.48h-73.8v-7.48q11.44-1.86,11.44-6.53,0-2.32-8.17-15.16l-72.44-114.25Zm0-30.37h129.17q26.4,0,39.83-2.22a70.79,70.79,0,0,0,23.68-8.06q24-14,24-47,0-33.16-24.75-47.18a73.57,73.57,0,0,0-24.41-8.18q-13.44-2.1-41.7-2.1H943.4Z" transform="translate(-35.04 0)"/><path class="cls-21" d="M1362,756.13V869.77c0,6.4,1,11,3,13.68s6,4.87,11.92,6.43v7.48h-66.58v-7.48q8.88-2.34,11.92-6.31t3-13.8V756.13l-103-134.92q-16.82-21.93-23.24-27.77a30.9,30.9,0,0,0-16-7.47v-7.48h81V586q-11,2.81-11,9.1,0,7.71,11,22.64l80.92,110.23,80.71-114q10.31-14.48,10.3-19.61,0-5.83-10.3-8.4v-7.48h75.33v7.48a36.38,36.38,0,0,0-19.62,10.27q-16.83,17.73-21.73,25Z" transform="translate(-35.04 0)"/><path class="cls-22" d="M313.56,748H95.16V869.27q0,9.81,2.92,13.78t12,6.31v7.48H43.54v-7.48q9.1-2.33,12-6.31t2.92-13.78V605.56q0-9.81-3-13.9t-11.91-6.19V578h66.61v7.48q-8.93,2.29-12,6.3t-3,13.78V717.68h218.4V605.56q0-9.81-3-13.9t-11.91-6.19V578h66.51v7.48q-8.87,2.29-11.89,6.3t-3,13.78V869.27q0,9.59,3,13.67t11.91,6.42v7.48H298.61v-7.48q8.86-2.33,11.91-6.31t3-13.78Z" transform="translate(-35.04 0)"/><path class="cls-23" d="M661.46,807.37H490.92l-28,60.5q-4,8.64-4,12.15,0,7,13.82,9.34v7.48H401.62v-7.48q9.57-1.64,14.6-7T429.41,859l116.8-252q4.2-9.11,4.2-12.38,0-6.07-11.45-9.11V578h77.55v7.48q-11.44,3.74-11.44,9.81,0,2.58,4.2,11.68L721.16,849.89q12.38,26.85,16.35,31.53t17.29,7.94v7.48H679.16v-7.48q13.59-1.86,13.59-10.28,0-3.74-5.14-14.48ZM648,777,576.16,619.46,504.44,777Z" transform="translate(-35.04 0)"/><path class="cls-24" d="M802.91,869.27V605.56q0-9.81-3-13.9T788,585.47V578h66.58v7.48q-8.88,2.34-11.92,6.31t-3,13.78V869.27q0,9.81,2.92,13.78t12,6.31v7.48H788v-7.48q9.12-2.33,12-6.31T802.91,869.27Z" transform="translate(-35.04 0)"/><path class="cls-25" d="M943,753.42V869.31q0,9.56,3,13.64t11.91,6.41v7.48H891.36v-7.48q8.86-2.33,11.91-6.31t3-13.78V605.56q0-9.81-3-13.9t-11.91-6.19V578h175q36,0,56.88,3.87t36.32,13.44a74.77,74.77,0,0,1,25.69,26.9q11.22,19.41,11.22,43.74,0,36.49-24.18,59.53t-66.5,26.3l81,125.92q7.23,11.65,21,11.66v7.48H1134v-7.48q11.44-1.86,11.44-6.53,0-2.33-8.17-15.16l-72.44-114.25Zm0-30.37h129.18q26.4,0,39.83-2.22a71,71,0,0,0,23.71-8.06q24-14,24-47,0-33.16-24.75-47.18a73.57,73.57,0,0,0-24.41-8.18q-13.44-2.1-41.7-2.1H942.94Z" transform="translate(-35.04 0)"/><path class="cls-26" d="M1361.48,755.63V869.25c0,6.4,1,11,3,13.68s6,4.87,11.92,6.43v7.48h-66.58v-7.48q8.88-2.34,11.92-6.31t3-13.8V755.63l-103-134.92q-16.82-21.93-23.24-27.77a30.9,30.9,0,0,0-16-7.47V578h81v7.48q-11,2.81-11,9.1,0,7.71,11,22.64l80.92,110.23,80.71-114q10.31-14.48,10.3-19.61,0-5.83-10.3-8.4V578h75.33v7.48a36.41,36.41,0,0,0-19.57,10.34q-16.83,17.73-21.73,25Z" transform="translate(-35.04 0)"/><path class="cls-27" d="M313.06,747.54H94.66V868.77q0,9.81,2.92,13.78t12,6.31v7.48H43v-7.48q9.1-2.33,12-6.31T58,868.77V605.06q0-9.81-3-13.9T43.05,585v-7.48h66.57V585q-8.88,2.34-11.92,6.31t-3,13.78V717.18H313.06V605.06q0-9.81-3-13.9T298.16,585v-7.48h66.57V585q-8.88,2.34-11.91,6.31t-3,13.78V868.77q0,9.59,3,13.67t11.91,6.42v7.48H298.16v-7.48q8.86-2.33,11.91-6.31t3-13.78Z" transform="translate(-35.04 0)"/><path class="cls-28" d="M661,806.87H490.42l-28,60.5q-4,8.64-4,12.15,0,7,13.82,9.34v7.48H401.16v-7.48q9.57-1.64,14.6-7T429,858.5l116.8-252q4.2-9.11,4.2-12.38Q550,588,538.5,585v-7.48h77.55V585q-11.44,3.74-11.44,9.81,0,2.58,4.2,11.68L720.66,849.39Q733,876.24,737,880.92t17.29,7.94v7.48H678.61v-7.48Q692.2,887,692.2,878.58q0-3.74-5.14-14.48Zm-13.47-30.36L575.7,619,504,776.51Z" transform="translate(-35.04 0)"/><path class="cls-29" d="M802.41,868.77V605.06q0-9.81-3-13.9T787.49,585v-7.48h66.58V585q-8.88,2.34-11.92,6.31t-3,13.78V868.77q0,9.81,2.92,13.78t12,6.31v7.48H787.46v-7.48q9.12-2.33,12-6.31T802.41,868.77Z" transform="translate(-35.04 0)"/><path class="cls-30" d="M942.48,752.92V868.77q0,9.56,3,13.64t11.91,6.41v7.48H890.86v-7.48q8.86-2.33,11.91-6.31t3-13.78V605.06q0-9.81-3-13.9T890.86,585v-7.48h175q36,0,56.88,3.87T1159,594.77a74.77,74.77,0,0,1,25.69,26.9q11.22,19.41,11.22,43.74,0,36.5-24.18,59.53t-66.45,26.31l81,125.92q7.23,11.66,21,11.66v7.48h-73.8v-7.48q11.44-1.86,11.44-6.53,0-2.32-8.17-15.16l-72.44-114.25Zm0-30.37h129.17q26.4,0,39.83-2.22a70.79,70.79,0,0,0,23.68-8.06q24-14,24-47,0-33.16-24.75-47.18a73.57,73.57,0,0,0-24.41-8.18q-13.44-2.1-41.7-2.1H942.4Z" transform="translate(-35.04 0)"/><path class="cls-31" d="M1361,755.13V868.77c0,6.4,1,11,3,13.68s6,4.87,11.92,6.43v7.48h-66.58v-7.48q8.88-2.34,11.92-6.31t3-13.8V755.13l-103-134.92q-16.82-21.93-23.24-27.77a30.9,30.9,0,0,0-16-7.47v-7.48h81V585q-11,2.81-11,9.1,0,7.71,11,22.64l80.92,110.23,80.71-114q10.31-14.48,10.3-19.61,0-5.83-10.3-8.4v-7.48h75.33v7.48a36.38,36.38,0,0,0-19.62,10.27q-16.83,17.73-21.73,25Z" transform="translate(-35.04 0)"/><path class="cls-32" d="M312.56,747H94.16V868.27q0,9.81,2.92,13.78t12,6.31v7.48H42.54v-7.48q9.1-2.33,12-6.31t2.92-13.78V604.56q0-9.81-3-13.9t-11.91-6.19V577h66.61v7.48q-8.93,2.29-12,6.3t-3,13.78V716.68h218.4V604.56q0-9.81-3-13.9t-11.91-6.19V577h66.51v7.48q-8.87,2.29-11.89,6.3t-3,13.78V868.27q0,9.59,3,13.67t11.91,6.42v7.48H297.61v-7.48q8.86-2.33,11.91-6.31t3-13.78Z" transform="translate(-35.04 0)"/><path class="cls-33" d="M660.46,806.37H489.92l-28,60.5q-4,8.64-4,12.15,0,7,13.82,9.34v7.48H400.62v-7.48q9.57-1.64,14.6-7T428.41,858l116.8-252q4.2-9.11,4.2-12.38,0-6.07-11.45-9.11V577h77.55v7.48q-11.44,3.74-11.44,9.81,0,2.58,4.2,11.68L720.16,848.89q12.38,26.85,16.35,31.53t17.29,7.94v7.48H678.16v-7.48q13.59-1.86,13.59-10.28,0-3.74-5.14-14.48ZM647,776,575.16,618.46,503.44,776Z" transform="translate(-35.04 0)"/><path class="cls-34" d="M801.91,868.27V604.56q0-9.81-3-13.9T787,584.47V577h66.58v7.48q-8.88,2.34-11.92,6.31t-3,13.78V868.27q0,9.81,2.92,13.78t12,6.31v7.48H787v-7.48q9.12-2.33,12-6.31T801.91,868.27Z" transform="translate(-35.04 0)"/><path class="cls-35" d="M942,752.42V868.31q0,9.56,3,13.64t11.91,6.41v7.48H890.36v-7.48q8.86-2.33,11.91-6.31t3-13.78V604.56q0-9.81-3-13.9t-11.91-6.19V577h175q36,0,56.88,3.87t36.32,13.44a74.77,74.77,0,0,1,25.69,26.9q11.22,19.41,11.22,43.74,0,36.49-24.18,59.53t-66.5,26.3l81,125.92q7.23,11.65,21,11.66v7.48H1133v-7.48q11.44-1.86,11.44-6.53,0-2.33-8.17-15.16l-72.44-114.25Zm0-30.37h129.18q26.4,0,39.83-2.22a71,71,0,0,0,23.71-8.06q24-14,24-47,0-33.16-24.75-47.18a73.57,73.57,0,0,0-24.41-8.18q-13.44-2.1-41.7-2.1H941.94Z" transform="translate(-35.04 0)"/><path class="cls-36" d="M1360.48,754.63V868.25c0,6.4,1,11,3,13.68s6,4.87,11.92,6.43v7.48h-66.58v-7.48q8.88-2.34,11.92-6.31t3-13.8V754.63l-103-134.92q-16.82-21.93-23.24-27.77a30.9,30.9,0,0,0-16-7.47V577h81v7.48q-11,2.81-11,9.1,0,7.71,11,22.64l80.92,110.23,80.71-114q10.31-14.48,10.3-19.61,0-5.83-10.3-8.4V577h75.33v7.48a36.41,36.41,0,0,0-19.57,10.34q-16.83,17.73-21.73,25Z" transform="translate(-35.04 0)"/><path class="cls-37" d="M312.06,746.54H93.66V867.77q0,9.81,2.92,13.78t12,6.31v7.48H42v-7.48q9.1-2.33,12-6.31T57,867.77V604.06q0-9.81-3-13.9T42.05,584v-7.48h66.57V584q-8.88,2.34-11.92,6.31t-3,13.78V716.18H312.06V604.06q0-9.81-3-13.9T297.16,584v-7.48h66.57V584q-8.88,2.34-11.91,6.31t-3,13.78V867.77q0,9.59,3,13.67t11.91,6.42v7.48H297.16v-7.48q8.86-2.33,11.91-6.31t3-13.78Z" transform="translate(-35.04 0)"/><path class="cls-38" d="M660,805.87H489.42l-28,60.5q-4,8.64-4,12.15,0,7,13.82,9.34v7.48H400.16v-7.48q9.57-1.64,14.6-7T428,857.5l116.8-252q4.2-9.11,4.2-12.38Q549,587,537.5,584v-7.48h77.55V584q-11.44,3.74-11.44,9.81,0,2.58,4.2,11.68L719.66,848.39Q732,875.24,736,879.92t17.29,7.94v7.48H677.61v-7.48Q691.2,886,691.2,877.58q0-3.74-5.14-14.48Zm-13.47-30.36L574.7,618,503,775.51Z" transform="translate(-35.04 0)"/><path class="cls-39" d="M801.41,867.77V604.06q0-9.81-3-13.9T786.49,584v-7.48h66.58V584q-8.88,2.34-11.92,6.31t-3,13.78V867.77q0,9.81,2.92,13.78t12,6.31v7.48H786.46v-7.48q9.12-2.33,12-6.31T801.41,867.77Z" transform="translate(-35.04 0)"/><path class="cls-40" d="M941.48,751.92V867.77q0,9.56,3,13.64t11.91,6.41v7.48H889.86v-7.48q8.86-2.33,11.91-6.31t3-13.78V604.06q0-9.81-3-13.9T889.86,584v-7.48h175q36,0,56.88,3.87T1158,593.77a74.77,74.77,0,0,1,25.69,26.9q11.22,19.41,11.22,43.74,0,36.5-24.18,59.53t-66.45,26.31l81,125.92q7.23,11.66,21,11.66v7.48h-73.8v-7.48q11.44-1.86,11.44-6.53,0-2.32-8.17-15.16l-72.44-114.25Zm0-30.37h129.17q26.4,0,39.83-2.22a70.79,70.79,0,0,0,23.68-8.06q24-14,24-47,0-33.16-24.75-47.18a73.57,73.57,0,0,0-24.41-8.18q-13.44-2.1-41.7-2.1H941.4Z" transform="translate(-35.04 0)"/><path class="cls-41" d="M1360,754.13V867.77c0,6.4,1,11,3,13.68s6,4.87,11.92,6.43v7.48h-66.58v-7.48q8.88-2.34,11.92-6.31t3-13.8V754.13l-103-134.92q-16.82-21.93-23.24-27.77a30.9,30.9,0,0,0-16-7.47v-7.48h81V584q-11,2.81-11,9.1,0,7.71,11,22.64l80.92,110.23,80.71-114q10.31-14.48,10.3-19.61,0-5.83-10.3-8.4v-7.48h75.33v7.48a36.38,36.38,0,0,0-19.62,10.27q-16.83,17.73-21.73,25Z" transform="translate(-35.04 0)"/><path class="cls-42" d="M311.56,746H93.16V867.27q0,9.81,2.92,13.78t12,6.31v7.48H41.54v-7.48q9.1-2.33,12-6.31t2.92-13.78V603.56q0-9.81-3-13.9t-11.91-6.19V576h66.61v7.48q-8.93,2.29-12,6.3t-3,13.78V715.68h218.4V603.56q0-9.81-3-13.9t-11.91-6.19V576h66.51v7.48q-8.87,2.29-11.89,6.3t-3,13.78V867.27q0,9.59,3,13.67t11.91,6.42v7.48H296.61v-7.48q8.86-2.33,11.91-6.31t3-13.78Z" transform="translate(-35.04 0)"/><path class="cls-43" d="M659.46,805.37H488.92l-28,60.5q-4,8.64-4,12.15,0,7,13.82,9.34v7.48H399.62v-7.48q9.57-1.64,14.6-7T427.41,857l116.8-252q4.2-9.11,4.2-12.38,0-6.07-11.45-9.11V576h77.55v7.48q-11.44,3.74-11.44,9.81,0,2.58,4.2,11.68L719.16,847.89q12.38,26.85,16.35,31.53t17.29,7.94v7.48H677.16v-7.48q13.59-1.86,13.59-10.28,0-3.74-5.14-14.48ZM646,775,574.16,617.46,502.44,775Z" transform="translate(-35.04 0)"/><path class="cls-44" d="M800.91,867.27V603.56q0-9.81-3-13.9T786,583.47V576h66.58v7.48q-8.88,2.34-11.92,6.31t-3,13.78V867.27q0,9.81,2.92,13.78t12,6.31v7.48H786v-7.48q9.12-2.33,12-6.31T800.91,867.27Z" transform="translate(-35.04 0)"/><path class="cls-45" d="M941,751.42V867.31q0,9.56,3,13.64t11.91,6.41v7.48H889.36v-7.48q8.86-2.33,11.91-6.31t3-13.78V603.56q0-9.81-3-13.9t-11.91-6.19V576h175q36,0,56.88,3.87t36.32,13.44a74.77,74.77,0,0,1,25.69,26.9q11.22,19.41,11.22,43.74,0,36.49-24.18,59.53t-66.5,26.3l81,125.92q7.23,11.65,21,11.66v7.48H1132v-7.48q11.44-1.86,11.44-6.53,0-2.33-8.17-15.16l-72.44-114.25Zm0-30.37h129.18q26.4,0,39.83-2.22a71,71,0,0,0,23.71-8.06q24-14,24-47,0-33.16-24.75-47.18a73.57,73.57,0,0,0-24.41-8.18q-13.44-2.1-41.7-2.1H940.94Z" transform="translate(-35.04 0)"/><path class="cls-46" d="M1359.48,753.63V867.25c0,6.4,1,11,3,13.68s6,4.87,11.92,6.43v7.48h-66.58v-7.48q8.88-2.34,11.92-6.31t3-13.8V753.63l-103-134.92q-16.82-21.93-23.24-27.77a30.9,30.9,0,0,0-16-7.47V576h81v7.48q-11,2.81-11,9.1,0,7.71,11,22.64l80.92,110.23,80.71-114q10.31-14.48,10.3-19.61,0-5.83-10.3-8.4V576h75.33v7.48a36.41,36.41,0,0,0-19.57,10.34q-16.83,17.73-21.73,25Z" transform="translate(-35.04 0)"/><path class="cls-47" d="M311.06,745.54H92.66V866.77q0,9.81,2.92,13.78t12,6.31v7.48H41v-7.48q9.1-2.33,12-6.31T56,866.77V603.06q0-9.81-3-13.9T41.05,583v-7.48h66.57V583q-8.88,2.34-11.92,6.31t-3,13.78V715.18H311.06V603.06q0-9.81-3-13.9T296.16,583v-7.48h66.57V583q-8.88,2.34-11.91,6.31t-3,13.78V866.77q0,9.59,3,13.67t11.91,6.42v7.48H296.16v-7.48q8.86-2.33,11.91-6.31t3-13.78Z" transform="translate(-35.04 0)"/><path class="cls-48" d="M659,804.87H488.42l-28,60.5q-4,8.64-4,12.15,0,7,13.82,9.34v7.48H399.16v-7.48q9.57-1.64,14.6-7T427,856.5l116.8-252q4.2-9.11,4.2-12.38Q548,586,536.5,583v-7.48h77.55V583q-11.44,3.74-11.44,9.81,0,2.58,4.2,11.68L718.66,847.39Q731,874.24,735,878.92t17.29,7.94v7.48H676.61v-7.48Q690.2,885,690.2,876.58q0-3.74-5.14-14.48Zm-13.47-30.36L573.7,617,502,774.51Z" transform="translate(-35.04 0)"/><path class="cls-49" d="M800.41,866.77V603.06q0-9.81-3-13.9T785.49,583v-7.48h66.58V583q-8.88,2.34-11.92,6.31t-3,13.78V866.77q0,9.81,2.92,13.78t12,6.31v7.48H785.46v-7.48q9.12-2.33,12-6.31T800.41,866.77Z" transform="translate(-35.04 0)"/><path class="cls-50" d="M940.48,750.92V866.77q0,9.56,3,13.64t11.91,6.41v7.48H888.86v-7.48q8.86-2.33,11.91-6.31t3-13.78V603.06q0-9.81-3-13.9T888.86,583v-7.48h175q36,0,56.88,3.87T1157,592.77a74.77,74.77,0,0,1,25.69,26.9q11.22,19.41,11.22,43.74,0,36.5-24.18,59.53t-66.45,26.31l81,125.92q7.23,11.66,21,11.66v7.48h-73.8v-7.48q11.44-1.86,11.44-6.53,0-2.32-8.17-15.16l-72.44-114.25Zm0-30.37h129.17q26.4,0,39.83-2.22a70.79,70.79,0,0,0,23.68-8.06q24-14,24-47,0-33.16-24.75-47.18a73.57,73.57,0,0,0-24.41-8.18q-13.44-2.1-41.7-2.1H940.4Z" transform="translate(-35.04 0)"/><path class="cls-51" d="M1359,753.13V866.77c0,6.4,1,11,3,13.68s6,4.87,11.92,6.43v7.48h-66.58v-7.48q8.88-2.34,11.92-6.31t3-13.8V753.13l-103-134.92q-16.82-21.93-23.24-27.77a30.9,30.9,0,0,0-16-7.47v-7.48h81V583q-11,2.81-11,9.1,0,7.71,11,22.64l80.92,110.23,80.71-114q10.31-14.48,10.3-19.61,0-5.83-10.3-8.4v-7.48h75.33v7.48a36.38,36.38,0,0,0-19.62,10.27q-16.83,17.73-21.73,25Z" transform="translate(-35.04 0)"/><path class="cls-52" d="M310.56,745H92.16V866.27q0,9.81,2.92,13.78t12,6.31v7.48H40.54v-7.48q9.1-2.33,12-6.31t2.92-13.78V602.56q0-9.81-3-13.9t-11.91-6.19V575h66.61v7.48q-8.93,2.29-12,6.3t-3,13.78V714.68h218.4V602.56q0-9.81-3-13.9t-11.91-6.19V575h66.51v7.48q-8.87,2.29-11.89,6.3t-3,13.78V866.27q0,9.59,3,13.67t11.91,6.42v7.48H295.61v-7.48q8.86-2.33,11.91-6.31t3-13.78Z" transform="translate(-35.04 0)"/><path class="cls-53" d="M658.46,804.37H487.92l-28,60.5q-4,8.64-4,12.15,0,7,13.82,9.34v7.48H398.62v-7.48q9.57-1.64,14.6-7T426.41,856l116.8-252q4.2-9.11,4.2-12.38,0-6.07-11.45-9.11V575h77.55v7.48q-11.44,3.74-11.44,9.81,0,2.58,4.2,11.68L718.16,846.89q12.38,26.85,16.35,31.53t17.29,7.94v7.48H676.16v-7.48q13.59-1.86,13.59-10.28,0-3.74-5.14-14.48ZM645,774,573.16,616.46,501.44,774Z" transform="translate(-35.04 0)"/><path class="cls-54" d="M799.91,866.27V602.56q0-9.81-3-13.9T785,582.47V575h66.58v7.48q-8.88,2.34-11.92,6.31t-3,13.78V866.27q0,9.81,2.92,13.78t12,6.31v7.48H785v-7.48q9.12-2.33,12-6.31T799.91,866.27Z" transform="translate(-35.04 0)"/><path class="cls-55" d="M940,750.42V866.31q0,9.56,3,13.64t11.91,6.41v7.48H888.36v-7.48q8.86-2.33,11.91-6.31t3-13.78V602.56q0-9.81-3-13.9t-11.91-6.19V575h175q36,0,56.88,3.87t36.32,13.44a74.77,74.77,0,0,1,25.69,26.9q11.22,19.41,11.22,43.74,0,36.49-24.18,59.53t-66.5,26.3l81,125.92q7.23,11.65,21,11.66v7.48H1131v-7.48q11.44-1.86,11.44-6.53,0-2.33-8.17-15.16l-72.44-114.25Zm0-30.37h129.18q26.4,0,39.83-2.22a71,71,0,0,0,23.71-8.06q24-14,24-47,0-33.16-24.75-47.18a73.57,73.57,0,0,0-24.41-8.18q-13.44-2.1-41.7-2.1H939.94Z" transform="translate(-35.04 0)"/><path class="cls-56" d="M1358.48,752.63V866.25c0,6.4,1,11,3,13.68s6,4.87,11.92,6.43v7.48h-66.58v-7.48q8.88-2.34,11.92-6.31t3-13.8V752.63l-103-134.92q-16.82-21.93-23.24-27.77a30.9,30.9,0,0,0-16-7.47V575h81v7.48q-11,2.81-11,9.1,0,7.71,11,22.64l80.92,110.23,80.71-114q10.31-14.48,10.3-19.61,0-5.83-10.3-8.4V575h75.33v7.48a36.41,36.41,0,0,0-19.57,10.34q-16.83,17.73-21.73,25Z" transform="translate(-35.04 0)"/><path class="cls-57" d="M310.06,744.54H91.66V865.77q0,9.81,2.92,13.78t12,6.31v7.48H40v-7.48q9.1-2.33,12-6.31T55,865.77V602.06q0-9.81-3-13.9T40.05,582v-7.48h66.57V582q-8.88,2.34-11.92,6.31t-3,13.78V714.18H310.06V602.06q0-9.81-3-13.9T295.16,582v-7.48h66.57V582q-8.88,2.34-11.91,6.31t-3,13.78V865.77q0,9.59,3,13.67t11.91,6.42v7.48H295.16v-7.48q8.86-2.33,11.91-6.31t3-13.78Z" transform="translate(-35.04 0)"/><path class="cls-58" d="M658,803.87H487.42l-28,60.5q-4,8.64-4,12.15,0,7,13.82,9.34v7.48H398.16v-7.48q9.57-1.64,14.6-7T426,855.5l116.8-252q4.2-9.11,4.2-12.38Q547,585,535.5,582v-7.48h77.55V582q-11.44,3.74-11.44,9.81,0,2.58,4.2,11.68L717.66,846.39Q730,873.24,734,877.92t17.29,7.94v7.48H675.61v-7.48Q689.2,884,689.2,875.58q0-3.74-5.14-14.48Zm-13.47-30.36L572.7,616,501,773.51Z" transform="translate(-35.04 0)"/><path class="cls-59" d="M799.41,865.77V602.06q0-9.81-3-13.9T784.49,582v-7.48h66.58V582q-8.88,2.34-11.92,6.31t-3,13.78V865.77q0,9.81,2.92,13.78t12,6.31v7.48H784.46v-7.48q9.12-2.33,12-6.31T799.41,865.77Z" transform="translate(-35.04 0)"/><path class="cls-60" d="M939.48,749.92V865.77q0,9.56,3,13.64t11.91,6.41v7.48H887.86v-7.48q8.86-2.33,11.91-6.31t3-13.78V602.06q0-9.81-3-13.9T887.86,582v-7.48h175q36,0,56.88,3.87T1156,591.77a74.77,74.77,0,0,1,25.69,26.9q11.22,19.41,11.22,43.74,0,36.5-24.18,59.53t-66.45,26.31l81,125.92q7.23,11.66,21,11.66v7.48h-73.8v-7.48q11.44-1.86,11.44-6.53,0-2.32-8.17-15.16l-72.44-114.25Zm0-30.37h129.17q26.4,0,39.83-2.22a70.79,70.79,0,0,0,23.68-8.06q24-14,24-47,0-33.16-24.75-47.18a73.57,73.57,0,0,0-24.41-8.18q-13.44-2.1-41.7-2.1H939.4Z" transform="translate(-35.04 0)"/><path class="cls-61" d="M1358,752.13V865.77c0,6.4,1,11,3,13.68s6,4.87,11.92,6.43v7.48h-66.58v-7.48q8.88-2.34,11.92-6.31t3-13.8V752.13l-103-134.92q-16.82-21.93-23.24-27.77a30.9,30.9,0,0,0-16-7.47v-7.48h81V582q-11,2.81-11,9.1,0,7.71,11,22.64l80.92,110.23,80.71-114q10.31-14.48,10.3-19.61,0-5.83-10.3-8.4v-7.48h75.33v7.48a36.38,36.38,0,0,0-19.62,10.27q-16.83,17.73-21.73,25Z" transform="translate(-35.04 0)"/><path class="cls-62" d="M309.56,744H91.16V865.27q0,9.81,2.92,13.78t12,6.31v7.48H39.54v-7.48q9.1-2.33,12-6.31t2.92-13.78V601.56q0-9.81-3-13.9t-11.91-6.19V574h66.61v7.48q-8.93,2.29-12,6.3t-3,13.78V713.68h218.4V601.56q0-9.81-3-13.9t-11.91-6.19V574h66.51v7.48q-8.87,2.29-11.89,6.3t-3,13.78V865.27q0,9.59,3,13.67t11.91,6.42v7.48H294.61v-7.48q8.86-2.33,11.91-6.31t3-13.78Z" transform="translate(-35.04 0)"/><path class="cls-63" d="M657.46,803.37H486.92l-28,60.5q-4,8.64-4,12.15,0,7,13.82,9.34v7.48H397.62v-7.48q9.57-1.64,14.6-7T425.41,855l116.8-252q4.2-9.11,4.2-12.38,0-6.07-11.45-9.11V574h77.55v7.48q-11.44,3.74-11.44,9.81,0,2.58,4.2,11.68L717.16,845.89q12.38,26.85,16.35,31.53t17.29,7.94v7.48H675.16v-7.48q13.59-1.86,13.59-10.28,0-3.74-5.14-14.48ZM644,773,572.16,615.46,500.44,773Z" transform="translate(-35.04 0)"/><path class="cls-64" d="M798.91,865.27V601.56q0-9.81-3-13.9T784,581.47V574h66.58v7.48q-8.88,2.34-11.92,6.31t-3,13.78V865.27q0,9.81,2.92,13.78t12,6.31v7.48H784v-7.48q9.12-2.33,12-6.31T798.91,865.27Z" transform="translate(-35.04 0)"/><path class="cls-65" d="M939,749.42V865.31q0,9.56,3,13.64t11.91,6.41v7.48H887.36v-7.48q8.86-2.33,11.91-6.31t3-13.78V601.56q0-9.81-3-13.9t-11.91-6.19V574h175q36,0,56.88,3.87t36.32,13.44a74.77,74.77,0,0,1,25.69,26.9q11.22,19.41,11.22,43.74,0,36.49-24.18,59.53t-66.5,26.3l81,125.92q7.23,11.65,21,11.66v7.48H1130v-7.48q11.44-1.86,11.44-6.53,0-2.33-8.17-15.16l-72.44-114.25Zm0-30.37h129.18q26.4,0,39.83-2.22a71,71,0,0,0,23.71-8.06q24-14,24-47,0-33.16-24.75-47.18a73.57,73.57,0,0,0-24.41-8.18q-13.44-2.1-41.7-2.1H938.94Z" transform="translate(-35.04 0)"/><path class="cls-66" d="M1357.48,751.63V865.25c0,6.4,1,11,3,13.68s6,4.87,11.92,6.43v7.48h-66.58v-7.48q8.88-2.34,11.92-6.31t3-13.8V751.63l-103-134.92q-16.82-21.93-23.24-27.77a30.9,30.9,0,0,0-16-7.47V574h81v7.48q-11,2.81-11,9.1,0,7.71,11,22.64l80.92,110.23,80.71-114q10.31-14.48,10.3-19.61,0-5.83-10.3-8.4V574h75.33v7.48a36.41,36.41,0,0,0-19.57,10.34q-16.83,17.73-21.73,25Z" transform="translate(-35.04 0)"/><path class="cls-67" d="M309.06,743.54H90.66V864.77q0,9.81,2.92,13.78t12,6.31v7.48H39v-7.48q9.1-2.33,12-6.31T54,864.77V601.06q0-9.81-3-13.9T39.05,581v-7.48h66.57V581q-8.88,2.34-11.92,6.31t-3,13.78V713.18H309.06V601.06q0-9.81-3-13.9T294.16,581v-7.48h66.57V581q-8.88,2.34-11.91,6.31t-3,13.78V864.77q0,9.59,3,13.67t11.91,6.42v7.48H294.16v-7.48q8.86-2.33,11.91-6.31t3-13.78Z" transform="translate(-35.04 0)"/><path class="cls-68" d="M657,802.87H486.42l-28,60.5q-4,8.64-4,12.15,0,7,13.82,9.34v7.48H397.16v-7.48q9.57-1.64,14.6-7T425,854.5l116.8-252q4.2-9.11,4.2-12.38Q546,584,534.5,581v-7.48h77.55V581q-11.44,3.74-11.44,9.81,0,2.58,4.2,11.68L716.66,845.39Q729,872.24,733,876.92t17.29,7.94v7.48H674.61v-7.48Q688.2,883,688.2,874.58q0-3.74-5.14-14.48Zm-13.47-30.36L571.7,615,500,772.51Z" transform="translate(-35.04 0)"/><path class="cls-69" d="M798.41,864.77V601.06q0-9.81-3-13.9T783.49,581v-7.48h66.58V581q-8.88,2.34-11.92,6.31t-3,13.78V864.77q0,9.81,2.92,13.78t12,6.31v7.48H783.46v-7.48q9.12-2.33,12-6.31T798.41,864.77Z" transform="translate(-35.04 0)"/><path class="cls-70" d="M938.48,748.92V864.77q0,9.56,3,13.64t11.91,6.41v7.48H886.86v-7.48q8.86-2.33,11.91-6.31t3-13.78V601.06q0-9.81-3-13.9T886.86,581v-7.48h175q36,0,56.88,3.87T1155,590.77a74.77,74.77,0,0,1,25.69,26.9q11.22,19.41,11.22,43.74,0,36.5-24.18,59.53t-66.45,26.31l81,125.92q7.23,11.66,21,11.66v7.48h-73.8v-7.48q11.44-1.86,11.44-6.53,0-2.32-8.17-15.16l-72.44-114.25Zm0-30.37h129.17q26.4,0,39.83-2.22a70.79,70.79,0,0,0,23.68-8.06q24-14,24-47,0-33.16-24.75-47.18a73.57,73.57,0,0,0-24.41-8.18q-13.44-2.1-41.7-2.1H938.4Z" transform="translate(-35.04 0)"/><path class="cls-71" d="M1357,751.13V864.77c0,6.4,1,11,3,13.68s6,4.87,11.92,6.43v7.48h-66.58v-7.48q8.88-2.34,11.92-6.31t3-13.8V751.13l-103-134.92q-16.82-21.93-23.24-27.77a30.9,30.9,0,0,0-16-7.47v-7.48h81V581q-11,2.81-11,9.1,0,7.71,11,22.64l80.92,110.23,80.71-114q10.31-14.48,10.3-19.61,0-5.83-10.3-8.4v-7.48h75.33v7.48a36.38,36.38,0,0,0-19.62,10.27q-16.83,17.73-21.73,25Z" transform="translate(-35.04 0)"/><path class="cls-72" d="M308.56,743H90.16V864.27q0,9.81,2.92,13.78t12,6.31v7.48H38.54v-7.48q9.1-2.33,12-6.31t2.92-13.78V600.56q0-9.81-3-13.9t-11.91-6.19V573h66.61v7.48q-8.93,2.29-12,6.3t-3,13.78V712.68h218.4V600.56q0-9.81-3-13.9t-11.91-6.19V573h66.51v7.48q-8.87,2.29-11.89,6.3t-3,13.78V864.27q0,9.59,3,13.67t11.91,6.42v7.48H293.61v-7.48q8.86-2.33,11.91-6.31t3-13.78Z" transform="translate(-35.04 0)"/><path class="cls-73" d="M656.46,802.37H485.92l-28,60.5q-4,8.64-4,12.15,0,7,13.82,9.34v7.48H396.62v-7.48q9.57-1.64,14.6-7T424.41,854l116.8-252q4.2-9.11,4.2-12.38,0-6.07-11.45-9.11V573h77.55v7.48q-11.44,3.74-11.44,9.81,0,2.58,4.2,11.68L716.16,844.89q12.38,26.85,16.35,31.53t17.29,7.94v7.48H674.16v-7.48q13.59-1.86,13.59-10.28,0-3.74-5.14-14.48ZM643,772,571.16,614.46,499.44,772Z" transform="translate(-35.04 0)"/><path class="cls-74" d="M797.91,864.27V600.56q0-9.81-3-13.9T783,580.47V573h66.58v7.48q-8.88,2.34-11.92,6.31t-3,13.78V864.27q0,9.81,2.92,13.78t12,6.31v7.48H783v-7.48q9.12-2.33,12-6.31T797.91,864.27Z" transform="translate(-35.04 0)"/><path class="cls-75" d="M938,748.42V864.31q0,9.56,3,13.64t11.91,6.41v7.48H886.36v-7.48q8.86-2.33,11.91-6.31t3-13.78V600.56q0-9.81-3-13.9t-11.91-6.19V573h175q36,0,56.88,3.87t36.32,13.44a74.77,74.77,0,0,1,25.69,26.9q11.22,19.41,11.22,43.74,0,36.49-24.18,59.53t-66.5,26.3l81,125.92q7.23,11.65,21,11.66v7.48H1129v-7.48q11.44-1.86,11.44-6.53,0-2.33-8.17-15.16l-72.44-114.25Zm0-30.37h129.18q26.4,0,39.83-2.22a71,71,0,0,0,23.71-8.06q24-14,24-47,0-33.16-24.75-47.18a73.57,73.57,0,0,0-24.41-8.18q-13.44-2.1-41.7-2.1H937.94Z" transform="translate(-35.04 0)"/><path class="cls-76" d="M1356.48,750.63V864.25c0,6.4,1,11,3,13.68s6,4.87,11.92,6.43v7.48h-66.58v-7.48q8.88-2.34,11.92-6.31t3-13.8V750.63l-103-134.92q-16.82-21.93-23.24-27.77a30.9,30.9,0,0,0-16-7.47V573h81v7.48q-11,2.81-11,9.1,0,7.71,11,22.64l80.92,110.23,80.71-114q10.31-14.48,10.3-19.61,0-5.83-10.3-8.4V573h75.33v7.48a36.41,36.41,0,0,0-19.57,10.34q-16.83,17.73-21.73,25Z" transform="translate(-35.04 0)"/><path class="cls-77" d="M308.06,742.54H89.66V863.77q0,9.81,2.92,13.78t12,6.31v7.48H38v-7.48q9.1-2.33,12-6.31T53,863.77V600.06q0-9.81-3-13.9T38.05,580v-7.48h66.57V580q-8.88,2.34-11.92,6.31t-3,13.78V712.18H308.06V600.06q0-9.81-3-13.9T293.16,580v-7.48h66.57V580q-8.88,2.34-11.91,6.31t-3,13.78V863.77q0,9.59,3,13.67t11.91,6.42v7.48H293.16v-7.48q8.86-2.33,11.91-6.31t3-13.78Z" transform="translate(-35.04 0)"/><path class="cls-78" d="M656,801.87H485.42l-28,60.5q-4,8.64-4,12.15,0,7,13.82,9.34v7.48H396.16v-7.48q9.57-1.64,14.6-7T424,853.5l116.8-252q4.2-9.11,4.2-12.38Q545,583,533.5,580v-7.48h77.55V580q-11.44,3.74-11.44,9.81,0,2.58,4.2,11.68L715.66,844.39Q728,871.24,732,875.92t17.29,7.94v7.48H673.61v-7.48Q687.2,882,687.2,873.58q0-3.74-5.14-14.48Zm-13.47-30.36L570.7,614,499,771.51Z" transform="translate(-35.04 0)"/><path class="cls-79" d="M797.41,863.77V600.06q0-9.81-3-13.9T782.49,580v-7.48h66.58V580q-8.88,2.34-11.92,6.31t-3,13.78V863.77q0,9.81,2.92,13.78t12,6.31v7.48H782.46v-7.48q9.12-2.33,12-6.31T797.41,863.77Z" transform="translate(-35.04 0)"/><path class="cls-80" d="M937.48,747.92V863.77q0,9.56,3,13.64t11.91,6.41v7.48H885.86v-7.48q8.86-2.33,11.91-6.31t3-13.78V600.06q0-9.81-3-13.9T885.86,580v-7.48h175q36,0,56.88,3.87T1154,589.77a74.77,74.77,0,0,1,25.69,26.9q11.22,19.41,11.22,43.74,0,36.5-24.18,59.53t-66.45,26.31l81,125.92q7.23,11.66,21,11.66v7.48h-73.8v-7.48q11.44-1.86,11.44-6.53,0-2.32-8.17-15.16l-72.44-114.25Zm0-30.37h129.17q26.4,0,39.83-2.22a70.79,70.79,0,0,0,23.68-8.06q24-14,24-47,0-33.16-24.75-47.18a73.57,73.57,0,0,0-24.41-8.18q-13.44-2.1-41.7-2.1H937.4Z" transform="translate(-35.04 0)"/><path class="cls-81" d="M1356,750.13V863.77c0,6.4,1,11,3,13.68s6,4.87,11.92,6.43v7.48h-66.58v-7.48q8.88-2.34,11.92-6.31t3-13.8V750.13l-103-134.92q-16.82-21.93-23.24-27.77a30.9,30.9,0,0,0-16-7.47v-7.48h81V580q-11,2.81-11,9.1,0,7.71,11,22.64l80.92,110.23,80.71-114q10.31-14.48,10.3-19.61,0-5.83-10.3-8.4v-7.48h75.33v7.48a36.38,36.38,0,0,0-19.62,10.27q-16.83,17.73-21.73,25Z" transform="translate(-35.04 0)"/><path class="cls-82" d="M307.56,742H89.16V863.27q0,9.81,2.92,13.78t12,6.31v7.48H37.54v-7.48q9.1-2.33,12-6.31t2.92-13.78V599.56q0-9.81-3-13.9t-11.91-6.19V572h66.61v7.48q-8.93,2.29-12,6.3t-3,13.78V711.68h218.4V599.56q0-9.81-3-13.9t-11.91-6.19V572h66.51v7.48q-8.87,2.29-11.89,6.3t-3,13.78V863.27q0,9.59,3,13.67t11.91,6.42v7.48H292.61v-7.48q8.86-2.33,11.91-6.31t3-13.78Z" transform="translate(-35.04 0)"/><path class="cls-83" d="M655.46,801.37H484.92l-28,60.5q-4,8.64-4,12.15,0,7,13.82,9.34v7.48H395.62v-7.48q9.57-1.64,14.6-7T423.41,853l116.8-252q4.2-9.11,4.2-12.38,0-6.07-11.45-9.11V572h77.55v7.48q-11.44,3.74-11.44,9.81,0,2.58,4.2,11.68L715.16,843.89q12.38,26.85,16.35,31.53t17.29,7.94v7.48H673.16v-7.48q13.59-1.86,13.59-10.28,0-3.74-5.14-14.48ZM642,771,570.16,613.46,498.44,771Z" transform="translate(-35.04 0)"/><path class="cls-84" d="M796.91,863.27V599.56q0-9.81-3-13.9T782,579.47V572h66.58v7.48q-8.88,2.34-11.92,6.31t-3,13.78V863.27q0,9.81,2.92,13.78t12,6.31v7.48H782v-7.48q9.12-2.33,12-6.31T796.91,863.27Z" transform="translate(-35.04 0)"/><path class="cls-85" d="M937,747.42V863.31q0,9.56,3,13.64t11.91,6.41v7.48H885.36v-7.48q8.86-2.33,11.91-6.31t3-13.78V599.56q0-9.81-3-13.9t-11.91-6.19V572h175q36,0,56.88,3.87t36.32,13.44a74.77,74.77,0,0,1,25.69,26.9q11.22,19.41,11.22,43.74,0,36.49-24.18,59.53t-66.5,26.3l81,125.92q7.23,11.65,21,11.66v7.48H1128v-7.48q11.44-1.86,11.44-6.53,0-2.33-8.17-15.16l-72.44-114.25Zm0-30.37h129.18q26.4,0,39.83-2.22a71,71,0,0,0,23.71-8.06q24-14,24-47,0-33.16-24.75-47.18a73.57,73.57,0,0,0-24.41-8.18q-13.44-2.1-41.7-2.1H936.94Z" transform="translate(-35.04 0)"/><path class="cls-86" d="M1355.48,749.63V863.25c0,6.4,1,11,3,13.68s6,4.87,11.92,6.43v7.48h-66.58v-7.48q8.88-2.34,11.92-6.31t3-13.8V749.63l-103-134.92q-16.82-21.93-23.24-27.77a30.9,30.9,0,0,0-16-7.47V572h81v7.48q-11,2.81-11,9.1,0,7.71,11,22.64l80.92,110.23,80.71-114q10.31-14.48,10.3-19.61,0-5.83-10.3-8.4V572h75.33v7.48a36.41,36.41,0,0,0-19.57,10.34q-16.83,17.73-21.73,25Z" transform="translate(-35.04 0)"/><path class="cls-87" d="M307.06,741.54H88.66V862.77q0,9.81,2.92,13.78t12,6.31v7.48H37v-7.48q9.1-2.33,12-6.31T52,862.77V599.06q0-9.81-3-13.9T37.05,579v-7.48h66.57V579q-8.88,2.34-11.92,6.31t-3,13.78V711.18H307.06V599.06q0-9.81-3-13.9T292.16,579v-7.48h66.57V579q-8.88,2.34-11.91,6.31t-3,13.78V862.77q0,9.59,3,13.67t11.91,6.42v7.48H292.16v-7.48q8.86-2.33,11.91-6.31t3-13.78Z" transform="translate(-35.04 0)"/><path class="cls-88" d="M655,800.87H484.42l-28,60.5q-4,8.64-4,12.15,0,7,13.82,9.34v7.48H395.16v-7.48q9.57-1.64,14.6-7T423,852.5l116.8-252q4.2-9.11,4.2-12.38Q544,582,532.5,579v-7.48h77.55V579q-11.44,3.74-11.44,9.81,0,2.58,4.2,11.68L714.66,843.39Q727,870.24,731,874.92t17.29,7.94v7.48H672.61v-7.48Q686.2,881,686.2,872.58q0-3.74-5.14-14.48Zm-13.47-30.36L569.7,613,498,770.51Z" transform="translate(-35.04 0)"/><path class="cls-89" d="M796.41,862.77V599.06q0-9.81-3-13.9T781.49,579v-7.48h66.58V579q-8.88,2.34-11.92,6.31t-3,13.78V862.77q0,9.81,2.92,13.78t12,6.31v7.48H781.46v-7.48q9.12-2.33,12-6.31T796.41,862.77Z" transform="translate(-35.04 0)"/><path class="cls-90" d="M936.48,746.92V862.77q0,9.56,3,13.64t11.91,6.41v7.48H884.86v-7.48q8.86-2.33,11.91-6.31t3-13.78V599.06q0-9.81-3-13.9T884.86,579v-7.48h175q36,0,56.88,3.87T1153,588.77a74.77,74.77,0,0,1,25.69,26.9q11.22,19.41,11.22,43.74,0,36.5-24.18,59.53t-66.45,26.31l81,125.92q7.23,11.66,21,11.66v7.48h-73.8v-7.48q11.44-1.86,11.44-6.53,0-2.32-8.17-15.16l-72.44-114.25Zm0-30.37h129.17q26.4,0,39.83-2.22a70.79,70.79,0,0,0,23.68-8.06q24-14,24-47,0-33.16-24.75-47.18a73.57,73.57,0,0,0-24.41-8.18q-13.44-2.1-41.7-2.1H936.4Z" transform="translate(-35.04 0)"/><path class="cls-91" d="M1355,749.13V862.77c0,6.4,1,11,3,13.68s6,4.87,11.92,6.43v7.48h-66.58v-7.48q8.88-2.34,11.92-6.31t3-13.8V749.13l-103-134.92q-16.82-21.93-23.24-27.77a30.9,30.9,0,0,0-16-7.47v-7.48h81V579q-11,2.81-11,9.1,0,7.71,11,22.64l80.92,110.23,80.71-114q10.31-14.48,10.3-19.61,0-5.83-10.3-8.4v-7.48h75.33v7.48a36.38,36.38,0,0,0-19.62,10.27q-16.83,17.73-21.73,25Z" transform="translate(-35.04 0)"/><path class="cls-92" d="M306.56,741H88.16V862.27q0,9.81,2.92,13.78t12,6.31v7.48H36.54v-7.48q9.1-2.33,12-6.31t2.92-13.78V598.56q0-9.81-3-13.9t-11.91-6.19V571h66.61v7.48q-8.93,2.29-12,6.3t-3,13.78V710.68h218.4V598.56q0-9.81-3-13.9t-11.91-6.19V571h66.51v7.48q-8.87,2.29-11.89,6.3t-3,13.78V862.27q0,9.59,3,13.67t11.91,6.42v7.48H291.61v-7.48q8.86-2.33,11.91-6.31t3-13.78Z" transform="translate(-35.04 0)"/><path class="cls-93" d="M654.46,800.37H483.92l-28,60.5q-4,8.64-4,12.15,0,7,13.82,9.34v7.48H394.62v-7.48q9.57-1.64,14.6-7T422.41,852l116.8-252q4.2-9.11,4.2-12.38,0-6.07-11.45-9.11V571h77.55v7.48q-11.44,3.74-11.44,9.81,0,2.58,4.2,11.68L714.16,842.89q12.38,26.85,16.35,31.53t17.29,7.94v7.48H672.16v-7.48q13.59-1.86,13.59-10.28,0-3.74-5.14-14.48ZM641,770,569.16,612.46,497.44,770Z" transform="translate(-35.04 0)"/><path class="cls-94" d="M795.91,862.27V598.56q0-9.81-3-13.9T781,578.47V571h66.58v7.48q-8.88,2.34-11.92,6.31t-3,13.78V862.27q0,9.81,2.92,13.78t12,6.31v7.48H781v-7.48q9.12-2.33,12-6.31T795.91,862.27Z" transform="translate(-35.04 0)"/><path class="cls-95" d="M936,746.42V862.31q0,9.56,3,13.64t11.91,6.41v7.48H884.36v-7.48q8.86-2.33,11.91-6.31t3-13.78V598.56q0-9.81-3-13.9t-11.91-6.19V571h175q36,0,56.88,3.87t36.32,13.44a74.77,74.77,0,0,1,25.69,26.9q11.22,19.41,11.22,43.74,0,36.49-24.18,59.53t-66.5,26.3l81,125.92q7.23,11.65,21,11.66v7.48H1127v-7.48q11.44-1.86,11.44-6.53,0-2.33-8.17-15.16l-72.44-114.25Zm0-30.37h129.18q26.4,0,39.83-2.22a71,71,0,0,0,23.71-8.06q24-14,24-47,0-33.16-24.75-47.18a73.57,73.57,0,0,0-24.41-8.18q-13.44-2.1-41.7-2.1H935.94Z" transform="translate(-35.04 0)"/><path class="cls-96" d="M1354.48,748.63V862.25c0,6.4,1,11,3,13.68s6,4.87,11.92,6.43v7.48h-66.58v-7.48q8.88-2.34,11.92-6.31t3-13.8V748.63l-103-134.92q-16.82-21.93-23.24-27.77a30.9,30.9,0,0,0-16-7.47V571h81v7.48q-11,2.81-11,9.1,0,7.71,11,22.64l80.92,110.23,80.71-114q10.31-14.48,10.3-19.61,0-5.83-10.3-8.4V571h75.33v7.48a36.41,36.41,0,0,0-19.57,10.34q-16.83,17.73-21.73,25Z" transform="translate(-35.04 0)"/><path class="cls-97" d="M306.06,740.54H87.66V861.77q0,9.81,2.92,13.78t12,6.31v7.48H36v-7.48q9.1-2.33,12-6.31T51,861.77V598.06q0-9.81-3-13.9T36.05,578v-7.48h66.57V578q-8.88,2.34-11.92,6.31t-3,13.78V710.18H306.06V598.06q0-9.81-3-13.9T291.16,578v-7.48h66.57V578q-8.88,2.34-11.91,6.31t-3,13.78V861.77q0,9.59,3,13.67t11.91,6.42v7.48H291.16v-7.48q8.86-2.33,11.91-6.31t3-13.78Z" transform="translate(-35.04 0)"/><path class="cls-98" d="M654,799.87H483.42l-28,60.5q-4,8.64-4,12.15,0,7,13.82,9.34v7.48H394.16v-7.48q9.57-1.64,14.6-7T422,851.5l116.8-252q4.2-9.11,4.2-12.38Q543,581,531.5,578v-7.48h77.55V578q-11.44,3.74-11.44,9.81,0,2.58,4.2,11.68L713.66,842.39Q726,869.24,730,873.92t17.29,7.94v7.48H671.61v-7.48Q685.2,880,685.2,871.58q0-3.74-5.14-14.48Zm-13.47-30.36L568.7,612,497,769.51Z" transform="translate(-35.04 0)"/><path class="cls-99" d="M795.41,861.77V598.06q0-9.81-3-13.9T780.49,578v-7.48h66.58V578q-8.88,2.34-11.92,6.31t-3,13.78V861.77q0,9.81,2.92,13.78t12,6.31v7.48H780.46v-7.48q9.12-2.33,12-6.31T795.41,861.77Z" transform="translate(-35.04 0)"/><path class="cls-100" d="M935.48,745.92V861.77q0,9.56,3,13.64t11.91,6.41v7.48H883.86v-7.48q8.86-2.33,11.91-6.31t3-13.78V598.06q0-9.81-3-13.9T883.86,578v-7.48h175q36,0,56.88,3.87T1152,587.77a74.77,74.77,0,0,1,25.69,26.9q11.22,19.41,11.22,43.74,0,36.5-24.18,59.53t-66.45,26.31l81,125.92q7.23,11.66,21,11.66v7.48h-73.8v-7.48q11.44-1.86,11.44-6.53,0-2.32-8.17-15.16l-72.44-114.25Zm0-30.37h129.17q26.4,0,39.83-2.22a70.79,70.79,0,0,0,23.68-8.06q24-14,24-47,0-33.16-24.75-47.18a73.57,73.57,0,0,0-24.41-8.18q-13.44-2.1-41.7-2.1H935.4Z" transform="translate(-35.04 0)"/><path class="cls-101" d="M1354,748.13V861.77c0,6.4,1,11,3,13.68s6,4.87,11.92,6.43v7.48h-66.58v-7.48q8.88-2.34,11.92-6.31t3-13.8V748.13l-103-134.92q-16.82-21.93-23.24-27.77a30.9,30.9,0,0,0-16-7.47v-7.48h81V578q-11,2.81-11,9.1,0,7.71,11,22.64l80.92,110.23,80.71-114q10.31-14.48,10.3-19.61,0-5.83-10.3-8.4v-7.48h75.33v7.48a36.38,36.38,0,0,0-19.62,10.27q-16.83,17.73-21.73,25Z" transform="translate(-35.04 0)"/><path class="cls-102" d="M305.56,740H87.16V861.27q0,9.81,2.92,13.78t12,6.31v7.48H35.54v-7.48q9.1-2.33,12-6.31t2.92-13.78V597.56q0-9.81-3-13.9t-11.91-6.19V570h66.61v7.48q-8.93,2.29-12,6.3t-3,13.78V709.68h218.4V597.56q0-9.81-3-13.9t-11.91-6.19V570h66.51v7.48q-8.87,2.29-11.89,6.3t-3,13.78V861.27q0,9.59,3,13.67t11.91,6.42v7.48H290.61v-7.48q8.86-2.33,11.91-6.31t3-13.78Z" transform="translate(-35.04 0)"/><path class="cls-103" d="M653.46,799.37H482.92l-28,60.5q-4,8.64-4,12.15,0,7,13.82,9.34v7.48H393.62v-7.48q9.57-1.64,14.6-7T421.41,851l116.8-252q4.2-9.11,4.2-12.38,0-6.07-11.45-9.11V570h77.55v7.48q-11.44,3.74-11.44,9.81,0,2.58,4.2,11.68L713.16,841.89q12.38,26.85,16.35,31.53t17.29,7.94v7.48H671.16v-7.48q13.59-1.86,13.59-10.28,0-3.74-5.14-14.48ZM640,769,568.16,611.46,496.44,769Z" transform="translate(-35.04 0)"/><path class="cls-104" d="M794.91,861.27V597.56q0-9.81-3-13.9T780,577.47V570h66.58v7.48q-8.88,2.34-11.92,6.31t-3,13.78V861.27q0,9.81,2.92,13.78t12,6.31v7.48H780v-7.48q9.12-2.33,12-6.31T794.91,861.27Z" transform="translate(-35.04 0)"/><path class="cls-105" d="M935,745.42V861.31q0,9.56,3,13.64t11.91,6.41v7.48H883.36v-7.48q8.86-2.33,11.91-6.31t3-13.78V597.56q0-9.81-3-13.9t-11.91-6.19V570h175q36,0,56.88,3.87t36.32,13.44a74.77,74.77,0,0,1,25.69,26.9q11.22,19.41,11.22,43.74,0,36.49-24.18,59.53t-66.5,26.3l81,125.92q7.23,11.65,21,11.66v7.48H1126v-7.48q11.44-1.86,11.44-6.53,0-2.33-8.17-15.16l-72.44-114.25Zm0-30.37h129.18q26.4,0,39.83-2.22a71,71,0,0,0,23.71-8.06q24-14,24-47,0-33.16-24.75-47.18a73.57,73.57,0,0,0-24.41-8.18q-13.44-2.1-41.7-2.1H934.94Z" transform="translate(-35.04 0)"/><path class="cls-106" d="M1353.48,747.63V861.25c0,6.4,1,11,3,13.68s6,4.87,11.92,6.43v7.48h-66.58v-7.48q8.88-2.34,11.92-6.31t3-13.8V747.63l-103-134.92q-16.82-21.93-23.24-27.77a30.9,30.9,0,0,0-16-7.47V570h81v7.48q-11,2.81-11,9.1,0,7.71,11,22.64l80.92,110.23,80.71-114q10.31-14.48,10.3-19.61,0-5.83-10.3-8.4V570h75.33v7.48a36.41,36.41,0,0,0-19.57,10.34q-16.83,17.73-21.73,25Z" transform="translate(-35.04 0)"/><path class="cls-107" d="M305.06,739.54H86.66V860.77q0,9.81,2.92,13.78t12,6.31v7.48H35v-7.48q9.1-2.33,12-6.31T50,860.77V597.06q0-9.81-3-13.9T35.05,577v-7.48h66.57V577q-8.88,2.34-11.92,6.31t-3,13.78V709.18H305.06V597.06q0-9.81-3-13.9T290.16,577v-7.48h66.57V577q-8.88,2.34-11.91,6.31t-3,13.78V860.77q0,9.59,3,13.67t11.91,6.42v7.48H290.16v-7.48q8.86-2.33,11.91-6.31t3-13.78Z" transform="translate(-35.04 0)"/><path class="cls-108" d="M653,798.87H482.42l-28,60.5q-4,8.64-4,12.15,0,7,13.82,9.34v7.48H393.16v-7.48q9.57-1.64,14.6-7T421,850.5l116.8-252q4.2-9.11,4.2-12.38Q542,580,530.5,577v-7.48h77.55V577q-11.44,3.74-11.44,9.81,0,2.58,4.2,11.68L712.66,841.39Q725,868.24,729,872.92t17.29,7.94v7.48H670.61v-7.48Q684.2,879,684.2,870.58q0-3.74-5.14-14.48Zm-13.47-30.36L567.7,611,496,768.51Z" transform="translate(-35.04 0)"/><path class="cls-109" d="M794.41,860.77V597.06q0-9.81-3-13.9T779.49,577v-7.48h66.58V577q-8.88,2.34-11.92,6.31t-3,13.78V860.77q0,9.81,2.92,13.78t12,6.31v7.48H779.46v-7.48q9.12-2.33,12-6.31T794.41,860.77Z" transform="translate(-35.04 0)"/><path class="cls-110" d="M934.48,744.92V860.77q0,9.56,3,13.64t11.91,6.41v7.48H882.86v-7.48q8.86-2.33,11.91-6.31t3-13.78V597.06q0-9.81-3-13.9T882.86,577v-7.48h175q36,0,56.88,3.87T1151,586.77a74.77,74.77,0,0,1,25.69,26.9q11.22,19.41,11.22,43.74,0,36.5-24.18,59.53t-66.45,26.31l81,125.92q7.23,11.66,21,11.66v7.48h-73.8v-7.48q11.44-1.86,11.44-6.53,0-2.32-8.17-15.16l-72.44-114.25Zm0-30.37h129.17q26.4,0,39.83-2.22a70.79,70.79,0,0,0,23.68-8.06q24-14,24-47,0-33.16-24.75-47.18a73.57,73.57,0,0,0-24.41-8.18q-13.44-2.1-41.7-2.1H934.4Z" transform="translate(-35.04 0)"/><path class="cls-111" d="M1353,747.13V860.77c0,6.4,1,11,3,13.68s6,4.87,11.92,6.43v7.48h-66.58v-7.48q8.88-2.34,11.92-6.31t3-13.8V747.13l-103-134.92q-16.82-21.93-23.24-27.77a30.9,30.9,0,0,0-16-7.47v-7.48h81V577q-11,2.81-11,9.1,0,7.71,11,22.64l80.92,110.23,80.71-114q10.31-14.48,10.3-19.61,0-5.83-10.3-8.4v-7.48h75.33v7.48a36.38,36.38,0,0,0-19.62,10.27q-16.83,17.73-21.73,25Z" transform="translate(-35.04 0)"/><path class="cls-112" d="M305.06,739.54H86.66V860.77q0,9.81,2.92,13.78t12,6.31v7.48H35v-7.48q9.1-2.33,12-6.31T50,860.77V597.06q0-9.81-3-13.9T35.05,577v-7.48h66.57V577q-8.88,2.34-11.92,6.31t-3,13.78V709.18H305.06V597.06q0-9.81-3-13.9T290.16,577v-7.48h66.57V577q-8.88,2.34-11.91,6.31t-3,13.78V860.77q0,9.59,3,13.67t11.91,6.42v7.48H290.16v-7.48q8.86-2.33,11.91-6.31t3-13.78Z" transform="translate(-35.04 0)"/><path class="cls-113" d="M653,798.87H482.42l-28,60.5q-4,8.64-4,12.15,0,7,13.82,9.34v7.48H393.16v-7.48q9.57-1.64,14.6-7T421,850.5l116.8-252q4.2-9.11,4.2-12.38Q542,580,530.5,577v-7.48h77.55V577q-11.44,3.74-11.44,9.81,0,2.58,4.2,11.68L712.66,841.39Q725,868.24,729,872.92t17.29,7.94v7.48H670.61v-7.48Q684.2,879,684.2,870.58q0-3.74-5.14-14.48Zm-13.47-30.36L567.7,611,496,768.51Z" transform="translate(-35.04 0)"/><path class="cls-114" d="M794.41,860.77V597.06q0-9.81-3-13.9T779.49,577v-7.48h66.58V577q-8.88,2.34-11.92,6.31t-3,13.78V860.77q0,9.81,2.92,13.78t12,6.31v7.48H779.46v-7.48q9.12-2.33,12-6.31T794.41,860.77Z" transform="translate(-35.04 0)"/><path class="cls-115" d="M934.48,744.92V860.77q0,9.56,3,13.64t11.91,6.41v7.48H882.86v-7.48q8.86-2.33,11.91-6.31t3-13.78V597.06q0-9.81-3-13.9T882.86,577v-7.48h175q36,0,56.88,3.87T1151,586.77a74.77,74.77,0,0,1,25.69,26.9q11.22,19.41,11.22,43.74,0,36.5-24.18,59.53t-66.45,26.31l81,125.92q7.23,11.66,21,11.66v7.48h-73.8v-7.48q11.44-1.86,11.44-6.53,0-2.32-8.17-15.16l-72.44-114.25Zm0-30.37h129.17q26.4,0,39.83-2.22a70.79,70.79,0,0,0,23.68-8.06q24-14,24-47,0-33.16-24.75-47.18a73.57,73.57,0,0,0-24.41-8.18q-13.44-2.1-41.7-2.1H934.4Z" transform="translate(-35.04 0)"/><path class="cls-116" d="M1353,747.13V860.77c0,6.4,1,11,3,13.68s6,4.87,11.92,6.43v7.48h-66.58v-7.48q8.88-2.34,11.92-6.31t3-13.8V747.13l-103-134.92q-16.82-21.93-23.24-27.77a30.9,30.9,0,0,0-16-7.47v-7.48h81V577q-11,2.81-11,9.1,0,7.71,11,22.64l80.92,110.23,80.71-114q10.31-14.48,10.3-19.61,0-5.83-10.3-8.4v-7.48h75.33v7.48a36.38,36.38,0,0,0-19.62,10.27q-16.83,17.73-21.73,25Z" transform="translate(-35.04 0)"/></svg>